{
.appVersion = "3108";
copyright = "Copyright 2011 The ABeeZee Project Authors (https://github.com/googlefonts/abeezee)";
customParameters = (
{
name = fsType;
value = (
);
},
{
name = "Use Line Breaks";
value = 1;
},
{
name = "Use Typo Metrics";
value = 1;
},
{
name = license;
value = "This Font Software is licensed under the SIL Open Font License, Version 1.1. This license is available with a FAQ at: https://scripts.sil.org/OFL";
},
{
name = licenseURL;
value = "https://scripts.sil.org/OFL";
},
{
name = trademark;
value = "ABeeZee is a trademark of Anja Meiners.";
}
);
date = "2022-01-26 15:11:41 +0000";
designer = "Anja Meiners";
designerURL = "https://carrois.com/";
familyName = ABeeZee;
featurePrefixes = (
{
code = "#> languagesystem
languagesystem DFLT dflt;
languagesystem latn dflt;
#< languagesystem
";
name = Languagesystems;
}
);
features = (
{
automatic = 1;
code = "feature locl;
feature sups;
feature frac;
feature ordn;
feature case;
";
name = aalt;
},
{
automatic = 1;
code = "lookup locl_latn_0 {
	script latn;
	language CAT;
	sub  l' periodcentered' l by ldot;
} locl_latn_0;
";
name = locl;
},
{
automatic = 1;
code = "sub one by onesuperior;
sub two by twosuperior;
sub three by threesuperior;
sub four by foursuperior;
";
name = sups;
},
{
automatic = 1;
code = "sub one slash four by onequarter;
sub one slash two by onehalf;
sub three slash four by threequarters;
";
name = frac;
},
{
automatic = 1;
code = "sub [zero one two three four five six seven eight nine] [A a]' by ordfeminine;
sub [zero one two three four five six seven eight nine] [O o]' by ordmasculine;
";
name = ordn;
},
{
automatic = 1;
code = "sub dotaccentcmb by dotaccentcmb.case;
sub dieresis by dieresis.case;
sub grave by grave.case;
sub acute by acute.case;
sub circumflex by circumflex.case;
sub caron by caron.case;
sub ring by ring.case;
sub tilde by tilde.case;
";
name = case;
}
);
fontMaster = (
{
ascender = 920;
capHeight = 700;
customParameters = (
{
name = typoAscender;

glyphs = (
{
color = 6;
glyphname = A;
lastChange = "2022-01-27 14:26:41 +0000";
layers = (
{
hints = (
{
horizontal = 1;
place = "{190, 80}";
type = Stem;
},
{
horizontal = 1;
place = "{-10, 21}";
target = up;
type = BottomGhost;
},
{
horizontal = 1;
place = "{700, -20}";
target = down;
type = TopGhost;
}
);
layerId = "49B01604-4BAD-416A-BFCD-4FBC01F4BDB0";
paths = (
{
closed = 1;
nodes = (
"91 -8 LINE",
"169 190 LINE",
"493 190 LINE",
"571 -10 LINE",
"658 25 LINE",
"388 700 LINE",
"284 700 LINE",
"10 25 LINE"
);
},
{
closed = 1;
nodes = (
"331 606 LINE",
"462 270 LINE",
"199 270 LINE"
);
}
);
width = 668;
}
);
unicode = 0041;
},
{
color = 6;
glyphname = AE;
lastChange = "2022-01-27 14:26:41 +0000";
layers = (
{
associatedMasterId = "49B01604-4BAD-416A-BFCD-4FBC01F4BDB0";
layerId = "ED5A1C3A-03C2-44DF-8033-277772C61E36";
name = img;
width = 918;
},
{
hints = (
{
horizontal = 1;
place = "{0, 82}";
type = Stem;
},
{
horizontal = 1;
place = "{190, 80}";
type = Stem;
},
{
horizontal = 1;
place = "{325, 80}";
type = Stem;
},
{
horizontal = 1;
place = "{618, 82}";
type = Stem;
},
{
horizontal = 1;
place = "{-9, 21}";
target = up;
type = BottomGhost;
},
{
place = "{463, 92}";
type = Stem;
}
);
layerId = "49B01604-4BAD-416A-BFCD-4FBC01F4BDB0";
paths = (
{
closed = 1;
nodes = (
"82 -9 LINE",
"204 190 LINE",
"463 190 LINE",
"463 0 LINE",
"873 0 LINE",
"873 82 LINE",
"555 82 LINE",
"555 325 LINE",
"828 325 LINE",
"828 405 LINE",
"555 405 LINE",
"555 618 LINE",
"873 618 LINE",
"873 700 LINE",
"420 700 LINE",
"5 39 LINE"
);
},
{
closed = 1;
nodes = (
"463 611 LINE",
"463 270 LINE",
"253 270 LINE"
);
}
);
width = 918;
}
);
unicode = 00C6;
},
{
color = 6;
glyphname = B;
lastChange = "2022-01-27 14:26:41 +0000";
layers = (
{
hints = (
{
place = "{90, 95}";
type = Stem;
},
{
place = "{467, 95}";
type = Stem;
},
{
place = "{488, 74}";
type = Stem;
},
{
place = "{488, 97}";
type = Stem;
},
{
horizontal = 1;
place = "{-8, 79}";
type = Stem;
},
{
horizontal = 1;
place = "{324, 74}";
type = Stem;
},
{
horizontal = 1;
place = "{631, 77}";
type = Stem;
}
);
layerId = "49B01604-4BAD-416A-BFCD-4FBC01F4BDB0";
paths = (
{
closed = 1;
nodes = (
"90 2 LINE",
"133 -4 OFFCURVE",
"211 -8 OFFCURVE",
"292 -8 CURVE SMOOTH",
"483 -8 OFFCURVE",
"585 73 OFFCURVE",
"585 200 CURVE SMOOTH",
"585 283 OFFCURVE",
"537 339 OFFCURVE",
"447 371 CURVE",
"522 404 OFFCURVE",
"562 454 OFFCURVE",
"562 528 CURVE SMOOTH",
"562 639 OFFCURVE",
"467 708 OFFCURVE",
"296 708 CURVE SMOOTH",
"206 708 OFFCURVE",
"137 703 OFFCURVE",
"90 698 CURVE"
);
},
{
closed = 1;
nodes = (
"259 71 OFFCURVE",
"220 73 OFFCURVE",
"185 77 CURVE",
"185 324 LINE",
"299 324 LINE SMOOTH",
"420 324 OFFCURVE",
"488 276 OFFCURVE",
"488 196 CURVE SMOOTH",
"488 115 OFFCURVE",
"418 71 OFFCURVE",
"299 71 CURVE SMOOTH"
);
},
{
closed = 1;
nodes = (
"185 398 LINE",
"185 626 LINE",
"216 629 OFFCURVE",
"251 631 OFFCURVE",
"295 631 CURVE SMOOTH",
"401 631 OFFCURVE",
"467 591 OFFCURVE",
"467 516 CURVE SMOOTH",
"467 446 OFFCURVE",
"400 398 OFFCURVE",
"295 398 CURVE SMOOTH"
);
}
);
width = 630;
}
);
unicode = 0042;
},
{
color = 6;
glyphname = C;
lastChange = "2022-01-27 14:26:41 +0000";
layers = (
{
hints = (
{
horizontal = 1;
place = "{-12, 83}";
type = Stem;
},
{
horizontal = 1;
place = "{629, 83}";
type = Stem;
},
{
place = "{50, 97}";
type = Stem;
}
);
layerId = "49B01604-4BAD-416A-BFCD-4FBC01F4BDB0";
paths = (
{
closed = 1;
nodes = (
"147 527 OFFCURVE",
"241 629 OFFCURVE",
"370 629 CURVE SMOOTH",
"428 629 OFFCURVE",
"469 616 OFFCURVE",
"510 596 CURVE",
"539 676 LINE",
"491 699 OFFCURVE",
"438 712 OFFCURVE",
"371 712 CURVE SMOOTH",
"176 712 OFFCURVE",
"50 561 OFFCURVE",
"50 347 CURVE SMOOTH",
"50 126 OFFCURVE",
"176 -12 OFFCURVE",
"359 -12 CURVE SMOOTH",
"443 -12 OFFCURVE",
"505 8 OFFCURVE",
"554 35 CURVE",
"525 114 LINE",
"480 88 OFFCURVE",
"435 71 OFFCURVE",
"370 71 CURVE SMOOTH",
"240 71 OFFCURVE",
"147 183 OFFCURVE",
"147 351 CURVE SMOOTH"
);
}
);
width = 594;
}
);
unicode = 0043;
},
{
color = 6;
glyphname = D;
lastChange = "2022-01-27 14:26:41 +0000";
layers = (
{
hints = (
{
horizontal = 1;
place = "{-8, 83}";
type = Stem;
},
{
horizontal = 1;
place = "{626, 82}";
type = Stem;
},
{
place = "{90, 95}";
type = Stem;
},
{
place = "{535, 97}";
type = Stem;
}
);
layerId = "49B01604-4BAD-416A-BFCD-4FBC01F4BDB0";
paths = (
{
closed = 1;
nodes = (
"90 2 LINE",
"146 -4 OFFCURVE",
"198 -8 OFFCURVE",
"274 -8 CURVE SMOOTH",
"524 -8 OFFCURVE",
"632 156 OFFCURVE",
"632 351 CURVE SMOOTH",
"632 547 OFFCURVE",
"524 708 OFFCURVE",
"285 708 CURVE SMOOTH",
"208 708 OFFCURVE",
"152 704 OFFCURVE",
"90 698 CURVE"
);
},
{
closed = 1;
nodes = (
"456 626 OFFCURVE",
"535 495 OFFCURVE",
"535 351 CURVE SMOOTH",
"535 189 OFFCURVE",
"457 75 OFFCURVE",
"277 75 CURVE SMOOTH",
"244 75 OFFCURVE",
"213 76 OFFCURVE",
"185 80 CURVE",
"185 621 LINE",
"212 624 OFFCURVE",
"243 626 OFFCURVE",
"282 626 CURVE SMOOTH"
);
}
);
width = 682;
}
);
unicode = 0044;
},
{
color = 6;
glyphname = Eth;
lastChange = "2022-01-27 14:26:41 +0000";
layers = (
{
associatedMasterId = "49B01604-4BAD-416A-BFCD-4FBC01F4BDB0";
layerId = "ED5A1C3A-03C2-44DF-8033-277772C61E36";
name = img;
width = 702;
},
{
hints = (
{
horizontal = 1;
place = "{-8, 83}";
type = Stem;
},
{
horizontal = 1;
place = "{304, 80}";
type = Stem;
},
{
horizontal = 1;
place = "{626, 82}";
type = Stem;
},
{
place = "{110, 95}";
type = Stem;
},
{
place = "{555, 97}";
type = Stem;
}
);
layerId = "49B01604-4BAD-416A-BFCD-4FBC01F4BDB0";
paths = (
{
closed = 1;
nodes = (
"10 304 LINE",
"110 304 LINE",
"110 2 LINE",
"166 -4 OFFCURVE",
"218 -8 OFFCURVE",
"294 -8 CURVE SMOOTH",
"544 -8 OFFCURVE",
"652 156 OFFCURVE",
"652 351 CURVE SMOOTH",
"652 547 OFFCURVE",
"544 708 OFFCURVE",
"305 708 CURVE SMOOTH",
"228 708 OFFCURVE",
"172 704 OFFCURVE",
"110 698 CURVE",
"110 384 LINE",
"10 384 LINE"
);
},
{
closed = 1;
nodes = (
"476 626 OFFCURVE",
"555 495 OFFCURVE",
"555 351 CURVE SMOOTH",
"555 189 OFFCURVE",
"477 75 OFFCURVE",
"297 75 CURVE SMOOTH",
"264 75 OFFCURVE",
"233 76 OFFCURVE",
"205 80 CURVE",
"205 304 LINE",
"353 304 LINE",
"353 384 LINE",
"205 384 LINE",
"205 621 LINE",
"232 624 OFFCURVE",
"263 626 OFFCURVE",
"302 626 CURVE SMOOTH"
);
}
);
width = 702;
}
);
unicode = 00D0;
},
{
color = 6;
glyphname = E;
lastChange = "2022-01-27 14:26:41 +0000";
layers = (
{
hints = (
{
horizontal = 1;
place = "{0, 82}";
type = Stem;
},
{
horizontal = 1;
place = "{325, 80}";
type = Stem;
},
{
horizontal = 1;
place = "{618, 82}";
type = Stem;
},
{
place = "{90, 95}";
type = Stem;
}
);
layerId = "49B01604-4BAD-416A-BFCD-4FBC01F4BDB0";
paths = (
{
closed = 1;
nodes = (
"90 0 LINE",
"510 0 LINE",
"510 82 LINE",
"185 82 LINE",
"185 325 LINE",
"465 325 LINE",
"465 405 LINE",
"185 405 LINE",
"185 618 LINE",
"510 618 LINE",
"510 700 LINE",
"90 700 LINE"
);
}
);
width = 555;
}
);
unicode = 0045;
},
{
color = 6;
glyphname = F;
lastChange = "2022-01-27 14:26:41 +0000";
layers = (
{
hints = (
{
horizontal = 1;
place = "{326, 78}";
type = Stem;
},
{
horizontal = 1;
place = "{618, 82}";
type = Stem;
},
{
horizontal = 1;
place = "{0, 21}";
target = up;
type = BottomGhost;
},
{
place = "{90, 95}";
type = Stem;
}
);
layerId = "49B01604-4BAD-416A-BFCD-4FBC01F4BDB0";
paths = (
{
closed = 1;
nodes = (
"90 0 LINE",
"185 0 LINE",
"185 326 LINE",
"452 326 LINE",
"452 404 LINE",
"185 404 LINE",
"185 618 LINE",
"505 618 LINE",
"505 700 LINE",
"90 700 LINE"
);
}
);
width = 535;
}
);
unicode = 0046;
},
{
color = 6;
glyphname = G;
lastChange = "2022-01-27 14:26:41 +0000";
layers = (
{
hints = (
{
place = "{50, 97}";
type = Stem;
},
{
place = "{374, 235}";
type = Stem;
},
{
place = "{519, 90}";
type = Stem;
},
{
horizontal = 1;
place = "{-12, 83}";
type = Stem;
},
{
horizontal = 1;
place = "{296, 75}";
type = Stem;
},
{
horizontal = 1;
place = "{629, 83}";
type = Stem;
},
{
horizontal = 1;
place = "{0, -20}";
target = down;
type = TopGhost;
}
);
layerId = "49B01604-4BAD-416A-BFCD-4FBC01F4BDB0";
paths = (
{
closed = 1;
nodes = (
"374 296 LINE",
"519 296 LINE",
"519 143 LINE",
"485 109 OFFCURVE",
"425 71 OFFCURVE",
"351 71 CURVE SMOOTH",
"230 71 OFFCURVE",
"147 171 OFFCURVE",
"147 338 CURVE SMOOTH",
"147 526 OFFCURVE",
"239 629 OFFCURVE",
"365 629 CURVE SMOOTH",
"436 629 OFFCURVE",
"491 607 OFFCURVE",
"547 576 CURVE",
"582 655 LINE",
"522 688 OFFCURVE",
"457 712 OFFCURVE",
"370 712 CURVE SMOOTH",
"168 712 OFFCURVE",
"50 555 OFFCURVE",
"50 332 CURVE SMOOTH",
"50 121 OFFCURVE",
"167 -12 OFFCURVE",
"329 -12 CURVE SMOOTH",
"410 -12 OFFCURVE",
"478 29 OFFCURVE",
"525 70 CURVE",
"525 0 LINE",
"609 0 LINE",
"609 371 LINE",
"374 371 LINE"
);
}
);
width = 674;
}
);
unicode = 0047;
},
{
color = 6;
glyphname = H;
lastChange = "2022-01-27 14:26:41 +0000";
layers = (
{
hints = (
{
horizontal = 1;
place = "{319, 82}";
type = Stem;
},
{
horizontal = 1;
place = "{0, 21}";
target = up;
type = BottomGhost;
},
{
horizontal = 1;
place = "{700, -20}";
target = down;
type = TopGhost;
},
{
place = "{90, 95}";
type = Stem;
},
{
place = "{530, 95}";
type = Stem;
}
);
layerId = "49B01604-4BAD-416A-BFCD-4FBC01F4BDB0";
paths = (
{
closed = 1;
nodes = (
"530 0 LINE",
"625 0 LINE",
"625 700 LINE",
"530 700 LINE",
"530 401 LINE",
"185 401 LINE",
"185 700 LINE",
"90 700 LINE",
"90 0 LINE",
"185 0 LINE",
"185 319 LINE",
"530 319 LINE"
);
}
);
width = 715;
}
);
unicode = 0048;
},
{
color = 6;
glyphname = I;
lastChange = "2022-01-27 14:26:41 +0000";
layers = (
{
hints = (
{
horizontal = 1;
place = "{0, 21}";
target = up;
type = BottomGhost;
},
{
horizontal = 1;
place = "{700, -20}";
target = down;
type = TopGhost;
},
{
place = "{90, 95}";
type = Stem;
}
);
layerId = "49B01604-4BAD-416A-BFCD-4FBC01F4BDB0";
paths = (
{
closed = 1;
nodes = (
"185 0 LINE",
"185 700 LINE",
"90 700 LINE",
"90 0 LINE"
);
}
);
width = 275;
}
);
unicode = 0049;
},
{
color = 6;
glyphname = J;
lastChange = "2022-01-27 14:26:41 +0000";
layers = (
{
hints = (
{
horizontal = 1;
place = "{-12, 82}";
type = Stem;
},
{
horizontal = 1;
place = "{700, -20}";
target = down;
type = TopGhost;
},
{
place = "{255, 95}";
type = Stem;
}
);
layerId = "49B01604-4BAD-416A-BFCD-4FBC01F4BDB0";
paths = (
{
closed = 1;
nodes = (
"255 221 LINE SMOOTH",
"255 111 OFFCURVE",
"215 70 OFFCURVE",
"151 70 CURVE SMOOTH",
"112 70 OFFCURVE",
"73 91 OFFCURVE",
"46 119 CURVE",
"0 46 LINE",
"36 11 OFFCURVE",
"93 -12 OFFCURVE",
"154 -12 CURVE SMOOTH",
"271 -12 OFFCURVE",
"350 61 OFFCURVE",
"350 231 CURVE SMOOTH",
"350 700 LINE",
"255 700 LINE"
);
}
);
width = 430;
}
);
unicode = 004A;
},
{
color = 6;
glyphname = K;
lastChange = "2022-01-27 14:26:41 +0000";
layers = (
{
hints = (
{
horizontal = 1;
place = "{703, -20}";
target = down;
type = TopGhost;
},
{
horizontal = 1;
place = "{700, -20}";
target = down;
type = TopGhost;
},
{
horizontal = 1;
place = "{0, -20}";
target = down;
type = TopGhost;
},
{
horizontal = 1;
place = "{-12, 21}";
target = up;
type = BottomGhost;
},
{
place = "{90, 95}";
type = Stem;
}
);
layerId = "49B01604-4BAD-416A-BFCD-4FBC01F4BDB0";
paths = (
{
closed = 1;
nodes = (
"274 360 LINE",
"547 644 LINE",
"483 703 LINE",
"185 381 LINE",
"185 700 LINE",
"90 700 LINE",
"90 0 LINE",
"185 0 LINE",
"185 322 LINE",
"525 -12 LINE",
"591 56 LINE"
);
}
);
width = 601;
}
);
unicode = 004B;
},
{
color = 6;
glyphname = L;
lastChange = "2022-01-27 14:26:41 +0000";
layers = (
{
hints = (
{
horizontal = 1;
place = "{0, 85}";
type = Stem;
},
{
horizontal = 1;
place = "{700, -20}";
target = down;
type = TopGhost;
},
{
place = "{90, 95}";
type = Stem;
}
);
layerId = "49B01604-4BAD-416A-BFCD-4FBC01F4BDB0";
paths = (
{
closed = 1;
nodes = (
"506 85 LINE",
"185 85 LINE",
"185 700 LINE",
"90 700 LINE",
"90 0 LINE",
"506 0 LINE"
);
}
);
width = 511;
}
);
unicode = 004C;
},
{
color = 6;
glyphname = Lslash;
lastChange = "2022-01-27 14:26:41 +0000";
layers = (
{
associatedMasterId = "49B01604-4BAD-416A-BFCD-4FBC01F4BDB0";
layerId = "ED5A1C3A-03C2-44DF-8033-277772C61E36";
name = img;
width = 524;
},
{
hints = (
{
horizontal = 1;
place = "{0, 85}";
type = Stem;
},
{
horizontal = 1;
place = "{700, -20}";
target = down;
type = TopGhost;
},
{
place = "{103, 95}";
type = Stem;
}
);
layerId = "49B01604-4BAD-416A-BFCD-4FBC01F4BDB0";
paths = (
{
closed = 1;
nodes = (
"519 85 LINE",
"198 85 LINE",
"198 305 LINE",
"436 401 LINE",
"408 469 LINE",
"198 384 LINE",
"198 700 LINE",
"103 700 LINE",
"103 346 LINE",
"5 307 LINE",
"33 239 LINE",
"103 267 LINE",
"103 0 LINE",
"519 0 LINE"
);
}
);
width = 524;
}
);
unicode = 0141;
},
{
color = 6;
glyphname = M;
lastChange = "2022-01-27 14:26:41 +0000";
layers = (
{
hints = (
{
horizontal = 1;
place = "{0, 21}";
target = up;
type = BottomGhost;
},
{
horizontal = 1;
place = "{700, -20}";
target = down;
type = TopGhost;
},
{
place = "{90, 90}";
type = Stem;
},
{
place = "{649, 95}";
type = Stem;
}
);
layerId = "49B01604-4BAD-416A-BFCD-4FBC01F4BDB0";
paths = (
{
closed = 1;
nodes = (
"649 0 LINE",
"744 0 LINE",
"744 700 LINE",
"608 700 LINE",
"417 257 LINE",
"223 700 LINE",
"90 700 LINE",
"90 0 LINE",
"180 0 LINE",
"180 579 LINE",
"368 158 LINE",
"462 158 LINE",
"649 579 LINE"
);
}
);
width = 834;
}
);
unicode = 004D;
},
{
color = 6;
glyphname = N;
lastChange = "2022-01-27 14:26:41 +0000";
layers = (
{
associatedMasterId = "49B01604-4BAD-416A-BFCD-4FBC01F4BDB0";
layerId = "ED5A1C3A-03C2-44DF-8033-277772C61E36";
name = img;
width = 705;
},
{
hints = (
{
horizontal = 1;
place = "{0, 21}";
target = up;
type = BottomGhost;
},
{
horizontal = 1;
place = "{700, -20}";
target = down;
type = TopGhost;
},
{
place = "{90, 90}";
type = Stem;
},
{
place = "{525, 90}";
type = Stem;
}
);
layerId = "49B01604-4BAD-416A-BFCD-4FBC01F4BDB0";
paths = (
{
closed = 1;
nodes = (
"491 0 LINE",
"615 0 LINE",
"615 700 LINE",
"525 700 LINE",
"525 118 LINE",
"216 700 LINE",
"90 700 LINE",
"90 0 LINE",
"180 0 LINE",
"180 578 LINE"
);
}
);
width = 705;
}
);
unicode = 004E;
},
{
color = 6;
glyphname = O;
lastChange = "2022-01-27 14:26:41 +0000";
layers = (
{
hints = (
{
horizontal = 1;
place = "{-12, 82}";
type = Stem;
},
{
horizontal = 1;
place = "{630, 82}";
type = Stem;
},
{
place = "{50, 97}";
type = Stem;
},
{
place = "{614, 97}";
type = Stem;
}
);
layerId = "49B01604-4BAD-416A-BFCD-4FBC01F4BDB0";
paths = (
{
closed = 1;
nodes = (
"50 151 OFFCURVE",
"173 -12 OFFCURVE",
"380 -12 CURVE SMOOTH",
"587 -12 OFFCURVE",
"711 151 OFFCURVE",
"711 351 CURVE SMOOTH",
"711 550 OFFCURVE",
"586 712 OFFCURVE",
"380 712 CURVE SMOOTH",
"173 712 OFFCURVE",
"50 556 OFFCURVE",
"50 351 CURVE SMOOTH"
);
},
{
closed = 1;
nodes = (
"147 509 OFFCURVE",
"233 630 OFFCURVE",
"380 630 CURVE SMOOTH",
"527 630 OFFCURVE",
"614 494 OFFCURVE",
"614 351 CURVE SMOOTH",
"614 191 OFFCURVE",
"534 70 OFFCURVE",
"380 70 CURVE SMOOTH",
"233 70 OFFCURVE",
"147 206 OFFCURVE",
"147 351 CURVE SMOOTH"
);
}
);
width = 761;
}
);
unicode = 004F;
},
{
color = 6;
glyphname = Oslash;
lastChange = "2022-01-27 14:26:41 +0000";
layers = (
{
associatedMasterId = "49B01604-4BAD-416A-BFCD-4FBC01F4BDB0";
layerId = "ED5A1C3A-03C2-44DF-8033-277772C61E36";
name = img;
width = 761;
},
{
hints = (
{
horizontal = 1;
place = "{-12, 82}";
type = Stem;
},
{
horizontal = 1;
place = "{630, 82}";
type = Stem;
},
{
horizontal = 1;
place = "{-118, 21}";
target = up;
type = BottomGhost;
},
{
horizontal = 1;
place = "{809, -20}";
target = down;
type = TopGhost;
},
{
place = "{50, 97}";
type = Stem;
},
{
place = "{614, 97}";
type = Stem;
}
);
layerId = "49B01604-4BAD-416A-BFCD-4FBC01F4BDB0";
paths = (
{
closed = 1;
nodes = (
"50 220 OFFCURVE",
"102 105 OFFCURVE",
"196 41 CURVE",
"132 -80 LINE",
"214 -118 LINE",
"267 6 LINE",
"301 -5 OFFCURVE",
"339 -12 OFFCURVE",
"380 -12 CURVE SMOOTH",
"587 -12 OFFCURVE",
"711 151 OFFCURVE",
"711 351 CURVE SMOOTH",
"711 476 OFFCURVE",
"662 585 OFFCURVE",
"574 650 CURVE",
"639 771 LINE",
"557 809 LINE",
"505 688 LINE",
"467 703 OFFCURVE",
"426 712 OFFCURVE",
"380 712 CURVE SMOOTH",
"173 712 OFFCURVE",
"50 556 OFFCURVE",
"50 351 CURVE SMOOTH"
);
},
{
closed = 1;
nodes = (
"147 509 OFFCURVE",
"233 630 OFFCURVE",
"380 630 CURVE SMOOTH",
"413 630 OFFCURVE",
"444 623 OFFCURVE",
"469 611 CURVE",
"237 124 LINE",
"179 177 OFFCURVE",
"147 262 OFFCURVE",
"147 351 CURVE SMOOTH"
);
},
{
closed = 1;
nodes = (
"614 191 OFFCURVE",
"534 70 OFFCURVE",
"380 70 CURVE SMOOTH",
"351 70 OFFCURVE",
"325 75 OFFCURVE",
"302 84 CURVE",
"532 566 LINE",
"585 514 OFFCURVE",
"614 433 OFFCURVE",
"614 351 CURVE SMOOTH"
);
}
);
width = 761;
}
);
unicode = 00D8;
},
{
color = 6;
glyphname = OE;
lastChange = "2022-01-27 14:26:41 +0000";
layers = (
{
associatedMasterId = "49B01604-4BAD-416A-BFCD-4FBC01F4BDB0";
layerId = "ED5A1C3A-03C2-44DF-8033-277772C61E36";
name = img;
width = 918;
},
{
hints = (
{
place = "{40, 97}";
type = Stem;
},
{
place = "{463, 92}";
type = Stem;
},
{
horizontal = 1;
place = "{-12, 82}";
type = Stem;
},
{
horizontal = 1;
place = "{0, 82}";
type = Stem;
},
{
horizontal = 1;
place = "{325, 80}";
type = Stem;
},
{
horizontal = 1;
place = "{618, 82}";
type = Stem;
},
{
horizontal = 1;
place = "{630, 82}";
type = Stem;
}
);
layerId = "49B01604-4BAD-416A-BFCD-4FBC01F4BDB0";
paths = (
{
closed = 1;
nodes = (
"163 712 OFFCURVE",
"40 556 OFFCURVE",
"40 351 CURVE SMOOTH",
"40 151 OFFCURVE",
"163 -12 OFFCURVE",
"370 -12 CURVE SMOOTH",
"405 -12 OFFCURVE",
"460 -6 OFFCURVE",
"493 0 CURVE",
"873 0 LINE",
"873 82 LINE",
"555 82 LINE",
"555 325 LINE",
"828 325 LINE",
"828 405 LINE",
"555 405 LINE",
"555 618 LINE",
"873 618 LINE",
"873 700 LINE",
"494 700 LINE",
"454 707 OFFCURVE",
"407 712 OFFCURVE",
"370 712 CURVE SMOOTH"
);
},
{
closed = 1;
nodes = (
"223 70 OFFCURVE",
"137 206 OFFCURVE",
"137 351 CURVE SMOOTH",
"137 509 OFFCURVE",
"223 630 OFFCURVE",
"370 630 CURVE SMOOTH",
"404 630 OFFCURVE",
"431 627 OFFCURVE",
"463 618 CURVE",
"463 81 LINE",
"434 73 OFFCURVE",
"404 70 OFFCURVE",
"370 70 CURVE SMOOTH"
);
}
);
width = 918;
}
);
unicode = 0152;
},
{
color = 6;
glyphname = P;
lastChange = "2022-01-27 14:26:41 +0000";
layers = (
{
hints = (
{
horizontal = 1;
place = "{261, 79}";
type = Stem;
},
{
horizontal = 1;
place = "{628, 80}";
type = Stem;
},
{
horizontal = 1;
place = "{0, 21}";
target = up;
type = BottomGhost;
},
{
place = "{90, 95}";
type = Stem;
},
{
place = "{462, 94}";
type = Stem;
}
);
layerId = "49B01604-4BAD-416A-BFCD-4FBC01F4BDB0";
paths = (
{
closed = 1;
nodes = (
"90 0 LINE",
"185 0 LINE",
"185 264 LINE",
"209 262 OFFCURVE",
"235 261 OFFCURVE",
"263 261 CURVE SMOOTH",
"437 261 OFFCURVE",
"556 345 OFFCURVE",
"556 495 CURVE SMOOTH",
"556 619 OFFCURVE",
"457 708 OFFCURVE",
"283 708 CURVE SMOOTH",
"212 708 OFFCURVE",
"145 704 OFFCURVE",
"90 698 CURVE"
);
},
{
closed = 1;
nodes = (
"237 340 OFFCURVE",
"206 342 OFFCURVE",
"185 345 CURVE",
"185 624 LINE",
"213 627 OFFCURVE",
"245 628 OFFCURVE",
"281 628 CURVE SMOOTH",
"397 628 OFFCURVE",
"462 573 OFFCURVE",
"462 487 CURVE SMOOTH",
"462 397 OFFCURVE",
"394 340 OFFCURVE",
"275 340 CURVE SMOOTH"
);
}
);
width = 581;
}
);
unicode = 0050;
},
{
color = 6;
glyphname = Thorn;
lastChange = "2022-01-27 14:26:41 +0000";
layers = (
{
associatedMasterId = "49B01604-4BAD-416A-BFCD-4FBC01F4BDB0";
layerId = "ED5A1C3A-03C2-44DF-8033-277772C61E36";
name = img;
width = 582;
},
{
hints = (
{
place = "{90, 95}";
type = Stem;
},
{
place = "{462, 95}";
type = Stem;
},
{
horizontal = 1;
place = "{0, 214}";
type = Stem;
},
{
horizontal = 1;
place = "{134, 80}";
type = Stem;
},
{
horizontal = 1;
place = "{502, 80}";
type = Stem;
},
{
horizontal = 1;
place = "{700, -20}";
target = down;
type = TopGhost;
}
);
layerId = "49B01604-4BAD-416A-BFCD-4FBC01F4BDB0";
paths = (
{
closed = 1;
nodes = (
"185 0 LINE",
"185 136 LINE",
"203 135 OFFCURVE",
"227 134 OFFCURVE",
"263 134 CURVE SMOOTH",
"438 134 OFFCURVE",
"557 219 OFFCURVE",
"557 369 CURVE SMOOTH",
"557 493 OFFCURVE",
"458 582 OFFCURVE",
"283 582 CURVE SMOOTH",
"249 582 OFFCURVE",
"216 581 OFFCURVE",
"185 579 CURVE",
"185 700 LINE",
"90 700 LINE",
"90 0 LINE"
);
},
{
closed = 1;
nodes = (
"397 502 OFFCURVE",
"462 447 OFFCURVE",
"462 361 CURVE SMOOTH",
"462 271 OFFCURVE",
"394 214 OFFCURVE",
"275 214 CURVE SMOOTH",
"222 214 OFFCURVE",
"200 216 OFFCURVE",
"185 218 CURVE",
"185 498 LINE",
"213 501 OFFCURVE",
"245 502 OFFCURVE",
"281 502 CURVE SMOOTH"
);
}
);
width = 582;
}
);
unicode = 00DE;
},
{
color = 6;
glyphname = Q;
lastChange = "2022-01-27 14:26:41 +0000";
layers = (
{
hints = (
{
horizontal = 1;
place = "{-12, 82}";
type = Stem;
},
{
horizontal = 1;
place = "{630, 82}";
type = Stem;
},
{
place = "{50, 97}";
type = Stem;
},
{
place = "{604, 97}";
type = Stem;
}
);
layerId = "49B01604-4BAD-416A-BFCD-4FBC01F4BDB0";
paths = (
{
closed = 1;
nodes = (
"50 151 OFFCURVE",
"171 -12 OFFCURVE",
"375 -12 CURVE SMOOTH",
"460 -12 OFFCURVE",
"526 19 OFFCURVE",
"576 60 CURVE",
"673 -12 LINE",
"716 67 LINE",
"627 116 LINE",
"667 172 OFFCURVE",
"701 247 OFFCURVE",
"701 351 CURVE SMOOTH",
"701 550 OFFCURVE",
"578 712 OFFCURVE",
"375 712 CURVE SMOOTH",
"171 712 OFFCURVE",
"50 557 OFFCURVE",
"50 351 CURVE SMOOTH"
);
},
{
closed = 1;
nodes = (
"505 105 LINE",
"473 85 OFFCURVE",
"428 70 OFFCURVE",
"373 70 CURVE SMOOTH",
"229 70 OFFCURVE",
"147 206 OFFCURVE",
"147 351 CURVE SMOOTH",
"147 510 OFFCURVE",
"231 630 OFFCURVE",
"375 630 CURVE SMOOTH",
"519 630 OFFCURVE",
"604 494 OFFCURVE",
"604 351 CURVE SMOOTH",
"604 273 OFFCURVE",
"591 213 OFFCURVE",
"559 161 CURVE",
"469 226 LINE",
"429 153 LINE"
);
}
);
width = 761;
}
);
unicode = 0051;
},
{
color = 6;
glyphname = R;
lastChange = "2022-01-27 14:26:41 +0000";
layers = (
{
hints = (
{
horizontal = 1;
place = "{309, 80}";
type = Stem;
},
{
horizontal = 1;
place = "{628, 80}";
type = Stem;
},
{
horizontal = 1;
place = "{0, -20}";
target = down;
type = TopGhost;
},
{
horizontal = 1;
place = "{-12, 21}";
target = up;
type = BottomGhost;
},
{
place = "{90, 95}";
type = Stem;
},
{
place = "{457, 95}";
type = Stem;
}
);
layerId = "49B01604-4BAD-416A-BFCD-4FBC01F4BDB0";
paths = (
{
closed = 1;
nodes = (
"587 30 LINE",
"511 194 LINE SMOOTH",
"470 282 OFFCURVE",
"437 314 OFFCURVE",
"383 338 CURVE",
"492 367 OFFCURVE",
"552 425 OFFCURVE",
"552 522 CURVE SMOOTH",
"552 631 OFFCURVE",
"465 708 OFFCURVE",
"295 708 CURVE SMOOTH",
"221 708 OFFCURVE",
"161 705 OFFCURVE",
"90 698 CURVE",
"90 0 LINE",
"185 0 LINE",
"185 309 LINE",
"200 309 LINE SMOOTH",
"304 309 OFFCURVE",
"367 273 OFFCURVE",
"411 178 CURVE SMOOTH",
"498 -12 LINE"
);
},
{
closed = 1;
nodes = (
"399 628 OFFCURVE",
"457 579 OFFCURVE",
"457 513 CURVE SMOOTH",
"457 433 OFFCURVE",
"391 389 OFFCURVE",
"295 389 CURVE SMOOTH",
"185 389 LINE",
"185 624 LINE",
"214 626 OFFCURVE",
"250 628 OFFCURVE",
"295 628 CURVE SMOOTH"
);
}
);
width = 617;
}
);
unicode = 0052;
},
{
color = 6;
glyphname = S;
lastChange = "2022-01-27 14:26:41 +0000";
layers = (
{
associatedMasterId = "49B01604-4BAD-416A-BFCD-4FBC01F4BDB0";
layerId = "ED5A1C3A-03C2-44DF-8033-277772C61E36";
name = img;
width = 568;
},
{
hints = (
{
horizontal = 1;
place = "{-12, 83}";
type = Stem;
},
{
horizontal = 1;
place = "{630, 82}";
type = Stem;
},
{
place = "{65, 94}";
type = Stem;
},
{
place = "{420, 98}";
type = Stem;
}
);
layerId = "49B01604-4BAD-416A-BFCD-4FBC01F4BDB0";
paths = (
{
closed = 1;
nodes = (
"30 59 LINE",
"84 16 OFFCURVE",
"167 -12 OFFCURVE",
"264 -12 CURVE SMOOTH",
"412 -12 OFFCURVE",
"518 63 OFFCURVE",
"518 193 CURVE SMOOTH",
"518 288 OFFCURVE",
"467 351 OFFCURVE",
"311 409 CURVE SMOOTH",
"181 457 OFFCURVE",
"159 485 OFFCURVE",
"159 537 CURVE SMOOTH",
"159 592 OFFCURVE",
"213 630 OFFCURVE",
"301 630 CURVE SMOOTH",
"367 630 OFFCURVE",
"431 609 OFFCURVE",
"476 583 CURVE",
"511 664 LINE",
"448 695 OFFCURVE",
"385 712 OFFCURVE",
"303 712 CURVE SMOOTH",
"150 712 OFFCURVE",
"65 631 OFFCURVE",
"65 532 CURVE SMOOTH",
"65 431 OFFCURVE",
"115 379 OFFCURVE",
"260 324 CURVE SMOOTH",
"394 273 OFFCURVE",
"420 239 OFFCURVE",
"420 182 CURVE SMOOTH",
"420 114 OFFCURVE",
"360 71 OFFCURVE",
"264 71 CURVE SMOOTH",
"184 71 OFFCURVE",
"126 99 OFFCURVE",
"78 139 CURVE"
);
}
);
width = 568;
}
);
unicode = 0053;
},
{
color = 6;
glyphname = T;
lastChange = "2022-01-27 14:26:41 +0000";
layers = (
{
hints = (
{
horizontal = 1;
place = "{616, 84}";
type = Stem;
},
{
horizontal = 1;
place = "{0, 21}";
target = up;
type = BottomGhost;
},
{
place = "{225, 95}";
type = Stem;
}
);
layerId = "49B01604-4BAD-416A-BFCD-4FBC01F4BDB0";
paths = (
{
closed = 1;
nodes = (
"10 616 LINE",
"225 616 LINE",
"225 0 LINE",
"320 0 LINE",
"320 616 LINE",
"535 616 LINE",
"535 700 LINE",
"10 700 LINE"
);
}
);
width = 545;
}
);
unicode = 0054;
},
{
color = 6;
glyphname = U;
lastChange = "2022-01-27 14:26:41 +0000";
layers = (
{
hints = (
{
horizontal = 1;
place = "{-12, 83}";
type = Stem;
},
{
horizontal = 1;
place = "{700, -20}";
target = down;
type = TopGhost;
},
{
place = "{75, 95}";
type = Stem;
},
{
place = "{503, 92}";
type = Stem;
}
);
layerId = "49B01604-4BAD-416A-BFCD-4FBC01F4BDB0";
paths = (
{
closed = 1;
nodes = (
"503 281 LINE SMOOTH",
"503 144 OFFCURVE",
"447 71 OFFCURVE",
"334 71 CURVE SMOOTH",
"224 71 OFFCURVE",
"170 147 OFFCURVE",
"170 281 CURVE SMOOTH",
"170 700 LINE",
"75 700 LINE",
"75 266 LINE SMOOTH",
"75 87 OFFCURVE",
"172 -12 OFFCURVE",
"334 -12 CURVE SMOOTH",
"491 -12 OFFCURVE",
"595 93 OFFCURVE",
"595 270 CURVE SMOOTH",
"595 700 LINE",
"503 700 LINE"
);
}
);
width = 670;
}
);
unicode = 0055;
},
{
color = 6;
glyphname = V;
lastChange = "2022-01-27 14:26:41 +0000";
layers = (
{
hints = (
{
horizontal = 1;
place = "{0, 21}";
target = up;
type = BottomGhost;
},
{
horizontal = 1;
place = "{711, -20}";
target = down;
type = TopGhost;
}
);
layerId = "49B01604-4BAD-416A-BFCD-4FBC01F4BDB0";
paths = (
{
closed = 1;
nodes = (
"267 0 LINE",
"374 0 LINE",
"630 675 LINE",
"544 708 LINE",
"323 104 LINE",
"103 711 LINE",
"10 675 LINE"
);
}
);
width = 640;
}
);
unicode = 0056;
},
{
color = 6;
glyphname = W;
lastChange = "2022-01-27 14:26:41 +0000";
layers = (
{
hints = (
{
horizontal = 1;
place = "{0, 21}";
target = up;
type = BottomGhost;
},
{
horizontal = 1;
place = "{707, -20}";
target = down;
type = TopGhost;
}
);
layerId = "49B01604-4BAD-416A-BFCD-4FBC01F4BDB0";
paths = (
{
closed = 1;
nodes = (
"205 0 LINE",
"323 0 LINE",
"473 526 LINE",
"621 0 LINE",
"739 0 LINE",
"928 677 LINE",
"840 704 LINE",
"683 101 LINE",
"535 627 LINE",
"416 627 LINE",
"267 101 LINE",
"109 707 LINE",
"15 677 LINE"
);
}
);
width = 943;
}
);
unicode = 0057;
},
{
color = 6;
glyphname = X;
lastChange = "2022-01-27 14:26:41 +0000";
layers = (
{
associatedMasterId = "49B01604-4BAD-416A-BFCD-4FBC01F4BDB0";
layerId = "ED5A1C3A-03C2-44DF-8033-277772C61E36";
name = img;
width = 607;
},
{
hints = (
{
horizontal = 1;
place = "{-10, 21}";
target = up;
type = BottomGhost;
},
{
horizontal = 1;
place = "{709, -20}";
target = down;
type = TopGhost;
}
);
layerId = "49B01604-4BAD-416A-BFCD-4FBC01F4BDB0";
paths = (
{
closed = 1;
nodes = (
"10 49 LINE",
"85 -8 LINE",
"299 290 LINE",
"520 -10 LINE",
"597 49 LINE",
"359 361 LINE",
"577 650 LINE",
"503 706 LINE",
"302 425 LINE",
"99 709 LINE",
"20 650 LINE",
"245 356 LINE"
);
}
);
width = 607;
}
);
unicode = 0058;
},
{
color = 6;
glyphname = Y;
lastChange = "2022-01-27 14:26:41 +0000";
layers = (
{
hints = (
{
horizontal = 1;
place = "{709, -20}";
target = down;
type = TopGhost;
},
{
horizontal = 1;
place = "{0, 21}";
target = up;
type = BottomGhost;
},
{
place = "{253, 95}";
type = Stem;
}
);
layerId = "49B01604-4BAD-416A-BFCD-4FBC01F4BDB0";
paths = (
{
closed = 1;
nodes = (
"90 709 LINE",
"10 661 LINE",
"253 266 LINE",
"253 0 LINE",
"348 0 LINE",
"348 266 LINE",
"589 661 LINE",
"514 705 LINE",
"304 354 LINE"
);
}
);
width = 599;
}
);
unicode = 0059;
},
{
color = 6;
glyphname = Z;
lastChange = "2022-01-27 14:26:41 +0000";
layers = (
{
hints = (
{
horizontal = 1;
place = "{0, 84}";
type = Stem;
},
{
horizontal = 1;
place = "{618, 82}";
type = Stem;
}
);
layerId = "49B01604-4BAD-416A-BFCD-4FBC01F4BDB0";
paths = (
{
closed = 1;
nodes = (
"40 0 LINE",
"535 0 LINE",
"535 84 LINE",
"149 84 LINE",
"521 628 LINE",
"521 700 LINE",
"57 700 LINE",
"57 618 LINE",
"412 618 LINE",
"40 74 LINE"
);
}
);
width = 575;
}
);
unicode = 005A;
},
{
color = 6;
glyphname = a;
lastChange = "2022-01-27 14:26:41 +0000";
layers = (
{
associatedMasterId = "49B01604-4BAD-416A-BFCD-4FBC01F4BDB0";
layerId = "ED5A1C3A-03C2-44DF-8033-277772C61E36";
name = img;
width = 617;
},
{
hints = (
{
place = "{45, 92}";
type = Stem;
},
{
place = "{428, 90}";
type = Stem;
},
{
horizontal = 1;
place = "{-12, 80}";
type = Stem;
},
{
horizontal = 1;
place = "{454, 78}";
type = Stem;
},
{
horizontal = 1;
place = "{-5, -20}";
target = down;
type = TopGhost;
},
{
horizontal = 1;
place = "{520, -20}";
target = down;
type = TopGhost;
}
);
layerId = "49B01604-4BAD-416A-BFCD-4FBC01F4BDB0";
paths = (
{
closed = 1;
nodes = (
"45 93 OFFCURVE",
"149 -12 OFFCURVE",
"279 -12 CURVE SMOOTH",
"360 -12 OFFCURVE",
"411 30 OFFCURVE",
"442 73 CURVE",
"455 22 OFFCURVE",
"493 -5 OFFCURVE",
"558 -5 CURVE",
"577 65 LINE",
"548 65 OFFCURVE",
"518 75 OFFCURVE",
"518 126 CURVE SMOOTH",
"518 520 LINE",
"436 520 LINE",
"436 478 LINE",
"400 508 OFFCURVE",
"351 532 OFFCURVE",
"291 532 CURVE SMOOTH",
"146 532 OFFCURVE",
"45 412 OFFCURVE",
"45 257 CURVE SMOOTH"
);
},
{
closed = 1;
nodes = (
"206 68 OFFCURVE",
"137 147 OFFCURVE",
"137 260 CURVE SMOOTH",
"137 376 OFFCURVE",
"204 454 OFFCURVE",
"300 454 CURVE SMOOTH",
"348 454 OFFCURVE",
"392 437 OFFCURVE",
"428 412 CURVE",
"428 133 LINE",
"397 95 OFFCURVE",
"349 68 OFFCURVE",
"299 68 CURVE SMOOTH"
);
}
);
width = 617;
}
);
unicode = 0061;
},
{
color = 6;
glyphname = ae;
lastChange = "2022-01-27 14:26:41 +0000";
layers = (
{
associatedMasterId = "49B01604-4BAD-416A-BFCD-4FBC01F4BDB0";
layerId = "ED5A1C3A-03C2-44DF-8033-277772C61E36";
name = img;
width = 904;
},
{
hints = (
{
place = "{40, 92}";
type = Stem;
},
{
place = "{781, 83}";
type = Stem;
},
{
horizontal = 1;
place = "{-12, 80}";
type = Stem;
},
{
horizontal = 1;
place = "{223, 73}";
type = Stem;
},
{
horizontal = 1;
place = "{248, 73}";
type = Stem;
},
{
horizontal = 1;
place = "{454, 78}";
type = Stem;
}
);
layerId = "49B01604-4BAD-416A-BFCD-4FBC01F4BDB0";
paths = (
{
closed = 1;
nodes = (
"120 425 LINE",
"158 442 OFFCURVE",
"195 454 OFFCURVE",
"243 454 CURVE SMOOTH",
"333 454 OFFCURVE",
"391 398 OFFCURVE",
"404 303 CURVE",
"360 314 OFFCURVE",
"319 321 OFFCURVE",
"262 321 CURVE SMOOTH",
"131 321 OFFCURVE",
"40 255 OFFCURVE",
"40 148 CURVE SMOOTH",
"40 58 OFFCURVE",
"116 -12 OFFCURVE",
"230 -12 CURVE SMOOTH",
"335 -12 OFFCURVE",
"399 39 OFFCURVE",
"443 109 CURVE",
"483 34 OFFCURVE",
"549 -12 OFFCURVE",
"648 -12 CURVE SMOOTH",
"722 -12 OFFCURVE",
"782 3 OFFCURVE",
"830 25 CURVE",
"809 102 LINE",
"765 82 OFFCURVE",
"719 68 OFFCURVE",
"659 68 CURVE SMOOTH",
"567 68 OFFCURVE",
"509 126 OFFCURVE",
"497 223 CURVE",
"861 223 LINE",
"863 245 OFFCURVE",
"864 267 OFFCURVE",
"864 291 CURVE SMOOTH",
"864 423 OFFCURVE",
"789 532 OFFCURVE",
"640 532 CURVE SMOOTH",
"557 532 OFFCURVE",
"493 490 OFFCURVE",
"452 417 CURVE",
"416 495 OFFCURVE",
"348 532 OFFCURVE",
"252 532 CURVE SMOOTH",
"193 532 OFFCURVE",
"147 519 OFFCURVE",
"101 501 CURVE"
);
},
{
closed = 1;
nodes = (
"180 68 OFFCURVE",
"132 103 OFFCURVE",
"132 155 CURVE SMOOTH",
"132 209 OFFCURVE",
"184 248 OFFCURVE",
"265 248 CURVE SMOOTH",
"317 248 OFFCURVE",
"358 243 OFFCURVE",
"405 230 CURVE",
"394 123 OFFCURVE",
"320 68 OFFCURVE",
"241 68 CURVE SMOOTH"
);
},
{
closed = 1;
nodes = (
"727 454 OFFCURVE",
"781 397 OFFCURVE",
"781 296 CURVE",
"496 296 LINE",
"506 399 OFFCURVE",
"560 454 OFFCURVE",
"638 454 CURVE SMOOTH"
);
}
);
width = 904;
}
);
unicode = 00E6;
},
{
color = 6;
glyphname = b;
lastChange = "2022-01-27 14:26:41 +0000";
layers = (
{
associatedMasterId = "49B01604-4BAD-416A-BFCD-4FBC01F4BDB0";
layerId = "ED5A1C3A-03C2-44DF-8033-277772C61E36";
name = img;
width = 594;
},
{
hints = (
{
place = "{80, 90}";
type = Stem;
},
{
place = "{457, 92}";
type = Stem;
},
{
horizontal = 1;
place = "{-12, 80}";
type = Stem;
},
{
horizontal = 1;
place = "{454, 78}";
type = Stem;
},
{
horizontal = 1;
place = "{0, -20}";
target = down;
type = TopGhost;
},
{
horizontal = 1;
place = "{740, -20}";
target = down;
type = TopGhost;
}
);
layerId = "49B01604-4BAD-416A-BFCD-4FBC01F4BDB0";
paths = (
{
closed = 1;
nodes = (
"80 0 LINE",
"164 0 LINE",
"164 43 LINE",
"198 13 OFFCURVE",
"254 -12 OFFCURVE",
"314 -12 CURVE SMOOTH",
"432 -12 OFFCURVE",
"549 99 OFFCURVE",
"549 265 CURVE SMOOTH",
"549 434 OFFCURVE",
"440 532 OFFCURVE",
"320 532 CURVE SMOOTH",
"249 532 OFFCURVE",
"197 496 OFFCURVE",
"170 466 CURVE",
"170 740 LINE",
"80 740 LINE"
);
},
{
closed = 1;
nodes = (
"457 145 OFFCURVE",
"387 68 OFFCURVE",
"290 68 CURVE SMOOTH",
"243 68 OFFCURVE",
"201 84 OFFCURVE",
"170 108 CURVE",
"170 386 LINE",
"194 419 OFFCURVE",
"243 454 OFFCURVE",
"300 454 CURVE SMOOTH",
"386 454 OFFCURVE",
"457 382 OFFCURVE",
"457 262 CURVE SMOOTH"
);
}
);
width = 594;
}
);
unicode = 0062;
},
{
color = 6;
glyphname = c;
lastChange = "2022-01-27 14:26:41 +0000";
layers = (
{
associatedMasterId = "49B01604-4BAD-416A-BFCD-4FBC01F4BDB0";
layerId = "ED5A1C3A-03C2-44DF-8033-277772C61E36";
name = img;
width = 472;
},
{
hints = (
{
horizontal = 1;
place = "{-12, 80}";
type = Stem;
},
{
horizontal = 1;
place = "{452, 80}";
type = Stem;
},
{
place = "{45, 92}";
type = Stem;
}
);
layerId = "49B01604-4BAD-416A-BFCD-4FBC01F4BDB0";
paths = (
{
closed = 1;
nodes = (
"439 501 LINE",
"398 521 OFFCURVE",
"356 532 OFFCURVE",
"297 532 CURVE SMOOTH",
"142 532 OFFCURVE",
"45 410 OFFCURVE",
"45 260 CURVE SMOOTH",
"45 100 OFFCURVE",
"141 -12 OFFCURVE",
"290 -12 CURVE SMOOTH",
"355 -12 OFFCURVE",
"405 2 OFFCURVE",
"447 25 CURVE",
"419 101 LINE",
"378 79 OFFCURVE",
"346 68 OFFCURVE",
"296 68 CURVE SMOOTH",
"201 68 OFFCURVE",
"137 154 OFFCURVE",
"137 262 CURVE SMOOTH",
"137 381 OFFCURVE",
"208 452 OFFCURVE",
"302 452 CURVE SMOOTH",
"343 452 OFFCURVE",
"374 444 OFFCURVE",
"412 425 CURVE"
);
}
);
width = 472;
}
);
unicode = 0063;
},
{
color = 6;
glyphname = d;
lastChange = "2022-01-27 14:26:41 +0000";
layers = (
{
associatedMasterId = "49B01604-4BAD-416A-BFCD-4FBC01F4BDB0";
layerId = "ED5A1C3A-03C2-44DF-8033-277772C61E36";
name = img;
width = 613;
},
{
hints = (
{
place = "{45, 92}";
type = Stem;
},
{
place = "{424, 90}";
type = Stem;
},
{
horizontal = 1;
place = "{-12, 80}";
type = Stem;
},
{
horizontal = 1;
place = "{454, 78}";
type = Stem;
},
{
horizontal = 1;
place = "{-5, -20}";
target = down;
type = TopGhost;
},
{
horizontal = 1;
place = "{740, -20}";
target = down;
type = TopGhost;
}
);
layerId = "49B01604-4BAD-416A-BFCD-4FBC01F4BDB0";
paths = (
{
closed = 1;
nodes = (
"357 -12 OFFCURVE",
"408 29 OFFCURVE",
"438 71 CURVE",
"452 21 OFFCURVE",
"490 -5 OFFCURVE",
"554 -5 CURVE",
"573 65 LINE",
"544 65 OFFCURVE",
"514 75 OFFCURVE",
"514 126 CURVE SMOOTH",
"514 740 LINE",
"424 740 LINE",
"424 468 LINE",
"396 497 OFFCURVE",
"345 532 OFFCURVE",
"276 532 CURVE SMOOTH",
"150 532 OFFCURVE",
"45 415 OFFCURVE",
"45 257 CURVE SMOOTH",
"45 93 OFFCURVE",
"148 -12 OFFCURVE",
"277 -12 CURVE SMOOTH"
);
},
{
closed = 1;
nodes = (
"206 68 OFFCURVE",
"137 149 OFFCURVE",
"137 260 CURVE SMOOTH",
"137 369 OFFCURVE",
"199 454 OFFCURVE",
"296 454 CURVE SMOOTH",
"351 454 OFFCURVE",
"399 421 OFFCURVE",
"424 389 CURVE",
"424 131 LINE",
"393 94 OFFCURVE",
"346 68 OFFCURVE",
"297 68 CURVE SMOOTH"
);
}
);
width = 613;
}
);
unicode = 0064;
},
{
color = 6;
glyphname = eth;
lastChange = "2022-01-27 14:26:41 +0000";
layers = (
{
associatedMasterId = "49B01604-4BAD-416A-BFCD-4FBC01F4BDB0";
layerId = "ED5A1C3A-03C2-44DF-8033-277772C61E36";
name = img;
width = 532;
},
{
hints = (
{
horizontal = 1;
place = "{-12, 80}";
type = Stem;
},
{
horizontal = 1;
place = "{357, 76}";
type = Stem;
},
{
horizontal = 1;
place = "{634, 81}";
type = Stem;
},
{
horizontal = 1;
place = "{758, -20}";
target = down;
type = TopGhost;
},
{
place = "{25, 90}";
type = Stem;
},
{
place = "{400, 92}";
type = Stem;
}
);
layerId = "49B01604-4BAD-416A-BFCD-4FBC01F4BDB0";
paths = (
{
closed = 1;
nodes = (
"240 498 LINE",
"299 577 LINE",
"359 530 OFFCURVE",
"396 456 OFFCURVE",
"400 366 CURVE",
"361 402 OFFCURVE",
"309 433 OFFCURVE",
"237 433 CURVE SMOOTH",
"128 433 OFFCURVE",
"25 347 OFFCURVE",
"25 207 CURVE SMOOTH",
"25 68 OFFCURVE",
"128 -12 OFFCURVE",
"241 -12 CURVE SMOOTH",
"402 -12 OFFCURVE",
"492 131 OFFCURVE",
"492 342 CURVE SMOOTH",
"492 473 OFFCURVE",
"439 578 OFFCURVE",
"354 642 CURVE",
"414 711 LINE",
"357 758 LINE",
"296 678 LINE",
"247 702 OFFCURVE",
"191 715 OFFCURVE",
"132 715 CURVE SMOOTH",
"121 715 OFFCURVE",
"105 714 OFFCURVE",
"95 713 CURVE",
"95 632 LINE",
"105 633 OFFCURVE",
"121 634 OFFCURVE",
"131 634 CURVE SMOOTH",
"170 634 OFFCURVE",
"208 626 OFFCURVE",
"241 612 CURVE",
"182 545 LINE"
);
},
{
closed = 1;
nodes = (
"174 68 OFFCURVE",
"115 121 OFFCURVE",
"115 214 CURVE SMOOTH",
"115 306 OFFCURVE",
"180 357 OFFCURVE",
"253 357 CURVE SMOOTH",
"311 357 OFFCURVE",
"361 328 OFFCURVE",
"400 289 CURVE",
"388 140 OFFCURVE",
"334 68 OFFCURVE",
"248 68 CURVE SMOOTH"
);
}
);
width = 532;
}
);
unicode = 00F0;
},
{
color = 6;
glyphname = e;
lastChange = "2022-01-27 14:26:41 +0000";
layers = (
{
associatedMasterId = "49B01604-4BAD-416A-BFCD-4FBC01F4BDB0";
layerId = "ED5A1C3A-03C2-44DF-8033-277772C61E36";
name = img;
width = 544;
},
{
hints = (
{
horizontal = 1;
place = "{-12, 80}";
type = Stem;
},
{
horizontal = 1;
place = "{223, 73}";
type = Stem;
},
{
horizontal = 1;
place = "{454, 78}";
type = Stem;
},
{
place = "{421, 83}";
type = Stem;
}
);
layerId = "49B01604-4BAD-416A-BFCD-4FBC01F4BDB0";
paths = (
{
closed = 1;
nodes = (
"501 223 LINE",
"503 245 OFFCURVE",
"504 267 OFFCURVE",
"504 291 CURVE SMOOTH",
"504 423 OFFCURVE",
"429 532 OFFCURVE",
"280 532 CURVE SMOOTH",
"140 532 OFFCURVE",
"45 416 OFFCURVE",
"45 260 CURVE SMOOTH",
"45 88 OFFCURVE",
"139 -12 OFFCURVE",
"288 -12 CURVE SMOOTH",
"362 -12 OFFCURVE",
"422 3 OFFCURVE",
"470 25 CURVE",
"449 102 LINE",
"405 82 OFFCURVE",
"359 68 OFFCURVE",
"299 68 CURVE SMOOTH",
"207 68 OFFCURVE",
"149 126 OFFCURVE",
"137 223 CURVE"
);
},
{
closed = 1;
nodes = (
"367 454 OFFCURVE",
"421 397 OFFCURVE",
"421 296 CURVE",
"136 296 LINE",
"146 399 OFFCURVE",
"200 454 OFFCURVE",
"278 454 CURVE SMOOTH"
);
}
);
width = 544;
}
);
unicode = 0065;
},
{
color = 6;
glyphname = f;
lastChange = "2022-01-27 14:26:41 +0000";
layers = (
{
hints = (
{
horizontal = 1;
place = "{423, 78}";
type = Stem;
},
{
horizontal = 1;
place = "{672, 80}";
type = Stem;
},
{
horizontal = 1;
place = "{0, 21}";
target = up;
type = BottomGhost;
},
{
place = "{90, 90}";
type = Stem;
}
);
layerId = "49B01604-4BAD-416A-BFCD-4FBC01F4BDB0";
paths = (
{
closed = 1;
nodes = (
"398 719 LINE",
"361 738 OFFCURVE",
"322 752 OFFCURVE",
"267 752 CURVE SMOOTH",
"162 752 OFFCURVE",
"90 679 OFFCURVE",
"90 562 CURVE SMOOTH",
"90 501 LINE",
"10 501 LINE",
"10 423 LINE",
"90 423 LINE",
"90 0 LINE",
"180 0 LINE",
"180 423 LINE",
"334 423 LINE",
"334 501 LINE",
"180 501 LINE",
"180 568 LINE SMOOTH",
"180 636 OFFCURVE",
"217 672 OFFCURVE",
"273 672 CURVE SMOOTH",
"312 672 OFFCURVE",
"343 658 OFFCURVE",
"371 643 CURVE"
);
}
);
width = 348;
}
);
unicode = 0066;
},
{
color = 6;
glyphname = g;
lastChange = "2022-01-27 14:26:41 +0000";
layers = (
{
associatedMasterId = "49B01604-4BAD-416A-BFCD-4FBC01F4BDB0";
layerId = "ED5A1C3A-03C2-44DF-8033-277772C61E36";
name = img;
width = 585;
},
{
hints = (
{
place = "{45, 92}";
type = Stem;
},
{
place = "{420, 90}";
type = Stem;
},
{
horizontal = 1;
place = "{-232, 78}";
type = Stem;
},
{
horizontal = 1;
place = "{0, 80}";
type = Stem;
},
{
horizontal = 1;
place = "{454, 78}";
type = Stem;
},
{
horizontal = 1;
place = "{520, -20}";
target = down;
type = TopGhost;
}
);
layerId = "49B01604-4BAD-416A-BFCD-4FBC01F4BDB0";
paths = (
{
closed = 1;
nodes = (
"153 532 OFFCURVE",
"45 418 OFFCURVE",
"45 262 CURVE SMOOTH",
"45 95 OFFCURVE",
"158 0 OFFCURVE",
"276 0 CURVE SMOOTH",
"345 0 OFFCURVE",
"396 35 OFFCURVE",
"423 67 CURVE",
"423 3 LINE SMOOTH",
"423 -107 OFFCURVE",
"365 -154 OFFCURVE",
"271 -154 CURVE SMOOTH",
"210 -154 OFFCURVE",
"169 -135 OFFCURVE",
"137 -110 CURVE",
"104 -188 LINE",
"149 -217 OFFCURVE",
"209 -232 OFFCURVE",
"271 -232 CURVE SMOOTH",
"414 -232 OFFCURVE",
"510 -160 OFFCURVE",
"510 12 CURVE SMOOTH",
"510 520 LINE",
"428 520 LINE",
"428 480 LINE",
"393 509 OFFCURVE",
"345 532 OFFCURVE",
"286 532 CURVE SMOOTH"
);
},
{
closed = 1;
nodes = (
"212 80 OFFCURVE",
"137 153 OFFCURVE",
"137 267 CURVE SMOOTH",
"137 386 OFFCURVE",
"213 454 OFFCURVE",
"295 454 CURVE SMOOTH",
"350 454 OFFCURVE",
"390 433 OFFCURVE",
"420 412 CURVE",
"420 140 LINE",
"393 108 OFFCURVE",
"349 80 OFFCURVE",
"296 80 CURVE SMOOTH"
);
}
);
width = 585;
}
);
unicode = 0067;
},
{
color = 6;
glyphname = h;
lastChange = "2022-01-27 14:26:41 +0000";
layers = (
{
hints = (
{
horizontal = 1;
place = "{453, 79}";
type = Stem;
},
{
horizontal = 1;
place = "{740, -20}";
target = down;
type = TopGhost;
},
{
horizontal = 1;
place = "{0, 21}";
target = up;
type = BottomGhost;
},
{
place = "{80, 90}";
type = Stem;
},
{
place = "{427, 90}";
type = Stem;
}
);
layerId = "49B01604-4BAD-416A-BFCD-4FBC01F4BDB0";
paths = (
{
closed = 1;
nodes = (
"170 740 LINE",
"80 740 LINE",
"80 0 LINE",
"170 0 LINE",
"170 344 LINE",
"208 403 OFFCURVE",
"266 453 OFFCURVE",
"328 453 CURVE SMOOTH",
"391 453 OFFCURVE",
"427 404 OFFCURVE",
"427 329 CURVE SMOOTH",
"427 0 LINE",
"517 0 LINE",
"517 339 LINE SMOOTH",
"517 455 OFFCURVE",
"459 532 OFFCURVE",
"342 532 CURVE SMOOTH",
"264 532 OFFCURVE",
"207 491 OFFCURVE",
"170 437 CURVE"
);
}
);
width = 592;
}
);
unicode = 0068;
},
{
color = 6;
glyphname = hbar;
lastChange = "2022-01-27 14:26:41 +0000";
layers = (
{
associatedMasterId = "49B01604-4BAD-416A-BFCD-4FBC01F4BDB0";
layerId = "ED5A1C3A-03C2-44DF-8033-277772C61E36";
name = img;
width = 601;
},
{
hints = (
{
horizontal = 1;
place = "{453, 79}";
type = Stem;
},
{
horizontal = 1;
place = "{585, 66}";
type = Stem;
},
{
horizontal = 1;
place = "{740, -20}";
target = down;
type = TopGhost;
},
{
horizontal = 1;
place = "{0, 21}";
target = up;
type = BottomGhost;
},
{
place = "{89, 90}";
type = Stem;
},
{
place = "{436, 90}";
type = Stem;
}
);
layerId = "49B01604-4BAD-416A-BFCD-4FBC01F4BDB0";
paths = (
{
closed = 1;
nodes = (
"179 740 LINE",
"89 740 LINE",
"89 651 LINE",
"10 651 LINE",
"10 585 LINE",
"89 585 LINE",
"89 0 LINE",
"179 0 LINE",
"179 344 LINE",
"217 403 OFFCURVE",
"275 453 OFFCURVE",
"337 453 CURVE SMOOTH",
"400 453 OFFCURVE",
"436 404 OFFCURVE",
"436 329 CURVE SMOOTH",
"436 0 LINE",
"526 0 LINE",
"526 339 LINE SMOOTH",
"526 455 OFFCURVE",
"468 532 OFFCURVE",
"351 532 CURVE SMOOTH",
"273 532 OFFCURVE",
"216 491 OFFCURVE",
"179 437 CURVE",
"179 585 LINE",
"301 585 LINE",
"301 651 LINE",
"179 651 LINE"
);
}
);
width = 601;
}
);
unicode = 0127;
},
{
color = 6;
glyphname = i;
lastChange = "2022-01-27 14:26:41 +0000";
layers = (
{
hints = (
{
place = "{60, 126}";
type = Stem;
},
{
place = "{78, 90}";
type = Stem;
},
{
horizontal = 1;
place = "{609, 126}";
type = Stem;
},
{
horizontal = 1;
place = "{520, -20}";
target = down;
type = TopGhost;
},
{
horizontal = 1;
place = "{0, 21}";
target = up;
type = BottomGhost;
}
);
layerId = "49B01604-4BAD-416A-BFCD-4FBC01F4BDB0";
paths = (
{
closed = 1;
nodes = (
"168 520 LINE",
"78 520 LINE",
"78 0 LINE",
"168 0 LINE"
);
},
{
closed = 1;
nodes = (
"162 609 OFFCURVE",
"186 634 OFFCURVE",
"186 672 CURVE SMOOTH",
"186 706 OFFCURVE",
"158 735 OFFCURVE",
"123 735 CURVE SMOOTH",
"84 735 OFFCURVE",
"60 710 OFFCURVE",
"60 672 CURVE SMOOTH",
"60 638 OFFCURVE",
"88 609 OFFCURVE",
"123 609 CURVE SMOOTH"
);
}
);
width = 246;
}
);
unicode = 0069;
},
{
color = 6;
glyphname = dotlessi;
lastChange = "2022-01-27 14:26:41 +0000";
layers = (
{
hints = (
{
horizontal = 1;
place = "{520, -20}";
target = down;
type = TopGhost;
},
{
horizontal = 1;
place = "{0, 21}";
target = up;
type = BottomGhost;
},
{
place = "{80, 90}";
type = Stem;
}
);
layerId = "49B01604-4BAD-416A-BFCD-4FBC01F4BDB0";
paths = (
{
closed = 1;
nodes = (
"170 520 LINE",
"80 520 LINE",
"80 0 LINE",
"170 0 LINE"
);
}
);
width = 250;
}
);
unicode = 0131;
},
{
color = 6;
glyphname = j;
lastChange = "2022-01-27 14:26:41 +0000";
layers = (
{
associatedMasterId = "49B01604-4BAD-416A-BFCD-4FBC01F4BDB0";
layerId = "ED5A1C3A-03C2-44DF-8033-277772C61E36";
name = img;
width = 259;
},
{
hints = (
{
place = "{73, 126}";
type = Stem;
},
{
place = "{91, 90}";
type = Stem;
},
{
horizontal = 1;
place = "{-232, 78}";
type = Stem;
},
{
horizontal = 1;
place = "{609, 126}";
type = Stem;
},
{
horizontal = 1;
place = "{520, -20}";
target = down;
type = TopGhost;
}
);
layerId = "49B01604-4BAD-416A-BFCD-4FBC01F4BDB0";
paths = (
{
closed = 1;
nodes = (
"91 -48 LINE SMOOTH",
"91 -117 OFFCURVE",
"62 -154 OFFCURVE",
"6 -154 CURVE SMOOTH",
"-19 -154 OFFCURVE",
"-46 -145 OFFCURVE",
"-63 -134 CURVE",
"-85 -209 LINE",
"-58 -224 OFFCURVE",
"-24 -232 OFFCURVE",
"17 -232 CURVE SMOOTH",
"108 -232 OFFCURVE",
"181 -179 OFFCURVE",
"181 -57 CURVE SMOOTH",
"181 520 LINE",
"91 520 LINE"
);
},
{
closed = 1;
nodes = (
"175 609 OFFCURVE",
"199 634 OFFCURVE",
"199 672 CURVE SMOOTH",
"199 706 OFFCURVE",
"171 735 OFFCURVE",
"136 735 CURVE SMOOTH",
"97 735 OFFCURVE",
"73 710 OFFCURVE",
"73 672 CURVE SMOOTH",
"73 638 OFFCURVE",
"101 609 OFFCURVE",
"136 609 CURVE SMOOTH"
);
}
);
width = 259;
}
);
unicode = 006A;
},
{
color = 6;
glyphname = dotlessj;
lastChange = "2022-01-27 14:26:41 +0000";
layers = (
{
hints = (
{
horizontal = 1;
place = "{-232, 78}";
type = Stem;
},
{
horizontal = 1;
place = "{520, -20}";
target = down;
type = TopGhost;
},
{
place = "{91, 90}";
type = Stem;
}
);
layerId = "49B01604-4BAD-416A-BFCD-4FBC01F4BDB0";
paths = (
{
closed = 1;
nodes = (
"91 -48 LINE SMOOTH",
"91 -117 OFFCURVE",
"62 -154 OFFCURVE",
"6 -154 CURVE SMOOTH",
"-19 -154 OFFCURVE",
"-46 -145 OFFCURVE",
"-63 -134 CURVE",
"-85 -209 LINE",
"-58 -224 OFFCURVE",
"-24 -232 OFFCURVE",
"17 -232 CURVE SMOOTH",
"108 -232 OFFCURVE",
"181 -179 OFFCURVE",
"181 -57 CURVE SMOOTH",
"181 520 LINE",
"91 520 LINE"
);
}
);
width = 261;
}
);
unicode = 0237;
},
{
color = 6;
glyphname = k;
lastChange = "2022-01-27 14:26:41 +0000";
layers = (
{
associatedMasterId = "49B01604-4BAD-416A-BFCD-4FBC01F4BDB0";
layerId = "ED5A1C3A-03C2-44DF-8033-277772C61E36";
name = img;
width = 511;
},
{
hints = (
{
horizontal = 1;
place = "{0, -20}";
target = down;
type = TopGhost;
},
{
horizontal = 1;
place = "{-10, 21}";
target = up;
type = BottomGhost;
},
{
horizontal = 1;
place = "{740, -20}";
target = down;
type = TopGhost;
},
{
place = "{80, 90}";
type = Stem;
}
);
layerId = "49B01604-4BAD-416A-BFCD-4FBC01F4BDB0";
paths = (
{
closed = 1;
nodes = (
"80 0 LINE",
"170 0 LINE",
"170 267 LINE",
"439 -10 LINE",
"501 50 LINE",
"256 295 LINE",
"457 473 LINE",
"405 530 LINE",
"170 317 LINE",
"170 740 LINE",
"80 740 LINE"
);
}
);
width = 511;
}
);
unicode = 006B;
},
{
color = 6;
glyphname = kgreenlandic;
lastChange = "2022-01-27 14:26:41 +0000";
layers = (
{
associatedMasterId = "49B01604-4BAD-416A-BFCD-4FBC01F4BDB0";
layerId = "ED5A1C3A-03C2-44DF-8033-277772C61E36";
name = img;
width = 497;
},
{
hints = (
{
horizontal = 1;
place = "{0, -20}";
target = down;
type = TopGhost;
},
{
horizontal = 1;
place = "{-7, 21}";
target = up;
type = BottomGhost;
},
{
horizontal = 1;
place = "{527, -20}";
target = down;
type = TopGhost;
},
{
horizontal = 1;
place = "{520, -20}";
target = down;
type = TopGhost;
},
{
place = "{80, 90}";
type = Stem;
}
);
layerId = "49B01604-4BAD-416A-BFCD-4FBC01F4BDB0";
paths = (
{
closed = 1;
nodes = (
"80 0 LINE",
"170 0 LINE",
"170 246 LINE",
"426 -7 LINE",
"487 54 LINE",
"252 274 LINE",
"454 471 LINE",
"398 527 LINE",
"170 295 LINE",
"170 520 LINE",
"80 520 LINE"
);
}
);
width = 497;
}
);
unicode = 0138;
},
{
color = 6;
glyphname = l;
lastChange = "2022-01-27 14:26:41 +0000";
layers = (
{
associatedMasterId = "49B01604-4BAD-416A-BFCD-4FBC01F4BDB0";
layerId = "ED5A1C3A-03C2-44DF-8033-277772C61E36";
name = img;
width = 346;
},
{
hints = (
{
horizontal = 1;
place = "{-12, 78}";
type = Stem;
},
{
horizontal = 1;
place = "{740, -20}";
target = down;
type = TopGhost;
},
{
place = "{75, 90}";
type = Stem;
}
);
layerId = "49B01604-4BAD-416A-BFCD-4FBC01F4BDB0";
paths = (
{
closed = 1;
nodes = (
"165 740 LINE",
"75 740 LINE",
"75 163 LINE SMOOTH",
"75 38 OFFCURVE",
"146 -12 OFFCURVE",
"238 -12 CURVE SMOOTH",
"281 -12 OFFCURVE",
"317 -3 OFFCURVE",
"341 8 CURVE",
"319 81 LINE",
"301 73 OFFCURVE",
"275 66 OFFCURVE",
"250 66 CURVE SMOOTH",
"197 66 OFFCURVE",
"165 100 OFFCURVE",
"165 172 CURVE SMOOTH"
);
}
);
width = 346;
}
);
unicode = 006C;
},
{
color = 6;
glyphname = lslash;
lastChange = "2022-01-27 14:26:41 +0000";
layers = (
{
associatedMasterId = "49B01604-4BAD-416A-BFCD-4FBC01F4BDB0";
layerId = "ED5A1C3A-03C2-44DF-8033-277772C61E36";
name = img;
width = 371;
},
{
hints = (
{
horizontal = 1;
place = "{-12, 78}";
type = Stem;
},
{
horizontal = 1;
place = "{740, -20}";
target = down;
type = TopGhost;
},
{
place = "{90, 90}";
type = Stem;
}
);
layerId = "49B01604-4BAD-416A-BFCD-4FBC01F4BDB0";
paths = (
{
closed = 1;
nodes = (
"180 740 LINE",
"90 740 LINE",
"90 398 LINE",
"0 356 LINE",
"31 289 LINE",
"90 316 LINE",
"90 163 LINE SMOOTH",
"90 38 OFFCURVE",
"161 -12 OFFCURVE",
"253 -12 CURVE SMOOTH",
"296 -12 OFFCURVE",
"332 -3 OFFCURVE",
"356 8 CURVE",
"334 81 LINE",
"316 73 OFFCURVE",
"290 66 OFFCURVE",
"265 66 CURVE SMOOTH",
"212 66 OFFCURVE",
"180 100 OFFCURVE",
"180 172 CURVE SMOOTH",
"180 358 LINE",
"336 430 LINE",
"305 497 LINE",
"180 439 LINE"
);
}
);
width = 371;
}
);
unicode = 0142;
},
{
color = 6;
glyphname = m;
lastChange = "2022-01-27 14:26:41 +0000";
layers = (
{
hints = (
{
place = "{80, 90}";
type = Stem;
},
{
place = "{415, 90}";
type = Stem;
},
{
place = "{750, 90}";
type = Stem;
},
{
horizontal = 1;
place = "{453, 79}";
type = Stem;
},
{
horizontal = 1;
place = "{520, -20}";
target = down;
type = TopGhost;
},
{
horizontal = 1;
place = "{0, 21}";
target = up;
type = BottomGhost;
}
);
layerId = "49B01604-4BAD-416A-BFCD-4FBC01F4BDB0";
paths = (
{
closed = 1;
nodes = (
"167 520 LINE",
"80 520 LINE",
"80 0 LINE",
"170 0 LINE",
"170 344 LINE",
"208 403 OFFCURVE",
"262 453 OFFCURVE",
"321 453 CURVE SMOOTH",
"379 453 OFFCURVE",
"415 404 OFFCURVE",
"415 332 CURVE SMOOTH",
"415 0 LINE",
"505 0 LINE",
"505 341 LINE",
"543 401 OFFCURVE",
"596 453 OFFCURVE",
"656 453 CURVE SMOOTH",
"714 453 OFFCURVE",
"750 404 OFFCURVE",
"750 332 CURVE SMOOTH",
"750 0 LINE",
"840 0 LINE",
"840 339 LINE SMOOTH",
"840 453 OFFCURVE",
"785 532 OFFCURVE",
"672 532 CURVE SMOOTH",
"588 532 OFFCURVE",
"534 483 OFFCURVE",
"493 422 CURVE",
"471 489 OFFCURVE",
"418 532 OFFCURVE",
"336 532 CURVE SMOOTH",
"262 532 OFFCURVE",
"204 489 OFFCURVE",
"167 433 CURVE"
);
}
);
width = 915;
}
);
unicode = 006D;
},
{
color = 6;
glyphname = n;
lastChange = "2022-01-27 14:26:41 +0000";
layers = (
{
associatedMasterId = "49B01604-4BAD-416A-BFCD-4FBC01F4BDB0";
layerId = "ED5A1C3A-03C2-44DF-8033-277772C61E36";
name = img;
width = 592;
},
{
hints = (
{
place = "{80, 90}";
type = Stem;
},
{
place = "{427, 90}";
type = Stem;
},
{
horizontal = 1;
place = "{453, 79}";
type = Stem;
},
{
horizontal = 1;
place = "{520, -20}";
target = down;
type = TopGhost;
},
{
horizontal = 1;
place = "{0, 21}";
target = up;
type = BottomGhost;
}
);
layerId = "49B01604-4BAD-416A-BFCD-4FBC01F4BDB0";
paths = (
{
closed = 1;
nodes = (
"167 520 LINE",
"80 520 LINE",
"80 0 LINE",
"170 0 LINE",
"170 344 LINE",
"208 403 OFFCURVE",
"265 453 OFFCURVE",
"327 453 CURVE SMOOTH",
"390 453 OFFCURVE",
"427 404 OFFCURVE",
"427 329 CURVE SMOOTH",
"427 0 LINE",
"517 0 LINE",
"517 339 LINE SMOOTH",
"517 455 OFFCURVE",
"459 532 OFFCURVE",
"342 532 CURVE SMOOTH",
"262 532 OFFCURVE",
"204 489 OFFCURVE",
"167 433 CURVE"
);
}
);
width = 592;
}
);
unicode = 006E;
},
{
color = 6;
glyphname = o;
lastChange = "2022-01-27 14:26:41 +0000";
layers = (
{
associatedMasterId = "49B01604-4BAD-416A-BFCD-4FBC01F4BDB0";
layerId = "ED5A1C3A-03C2-44DF-8033-277772C61E36";
name = img;
width = 598;
},
{
hints = (
{
horizontal = 1;
place = "{-12, 80}";
type = Stem;
},
{
horizontal = 1;
place = "{452, 80}";
type = Stem;
},
{
place = "{40, 92}";
type = Stem;
},
{
place = "{466, 92}";
type = Stem;
}
);
layerId = "49B01604-4BAD-416A-BFCD-4FBC01F4BDB0";
paths = (
{
closed = 1;
nodes = (
"466 146 OFFCURVE",
"404 68 OFFCURVE",
"299 68 CURVE SMOOTH",
"204 68 OFFCURVE",
"132 157 OFFCURVE",
"132 262 CURVE SMOOTH",
"132 376 OFFCURVE",
"194 452 OFFCURVE",
"299 452 CURVE SMOOTH",
"394 452 OFFCURVE",
"466 364 OFFCURVE",
"466 260 CURVE SMOOTH"
);
},
{
closed = 1;
nodes = (
"40 99 OFFCURVE",
"150 -12 OFFCURVE",
"299 -12 CURVE SMOOTH",
"447 -12 OFFCURVE",
"558 96 OFFCURVE",
"558 262 CURVE SMOOTH",
"558 427 OFFCURVE",
"444 532 OFFCURVE",
"299 532 CURVE SMOOTH",
"152 532 OFFCURVE",
"40 428 OFFCURVE",
"40 260 CURVE SMOOTH"
);
}
);
width = 598;
}
);
unicode = 006F;
},
{
color = 6;
glyphname = oslash;
lastChange = "2022-01-27 14:26:41 +0000";
layers = (
{
associatedMasterId = "49B01604-4BAD-416A-BFCD-4FBC01F4BDB0";
layerId = "ED5A1C3A-03C2-44DF-8033-277772C61E36";
name = img;
width = 598;
},
{
hints = (
{
horizontal = 1;
place = "{-12, 80}";
type = Stem;
},
{
horizontal = 1;
place = "{452, 80}";
type = Stem;
},
{
horizontal = 1;
place = "{-119, 21}";
target = up;
type = BottomGhost;
},
{
horizontal = 1;
place = "{637, -20}";
target = down;
type = TopGhost;
},
{
place = "{40, 92}";
type = Stem;
},
{
place = "{466, 92}";
type = Stem;
}
);
layerId = "49B01604-4BAD-416A-BFCD-4FBC01F4BDB0";
paths = (
{
closed = 1;
nodes = (
"40 161 OFFCURVE",
"81 81 OFFCURVE",
"148 34 CURVE",
"83 -82 LINE",
"154 -119 LINE",
"210 2 LINE",
"236 -7 OFFCURVE",
"267 -12 OFFCURVE",
"299 -12 CURVE SMOOTH",
"447 -12 OFFCURVE",
"558 96 OFFCURVE",
"558 262 CURVE SMOOTH",
"558 365 OFFCURVE",
"513 445 OFFCURVE",
"444 490 CURVE",
"505 600 LINE",
"434 637 LINE",
"379 520 LINE",
"354 528 OFFCURVE",
"327 532 OFFCURVE",
"299 532 CURVE SMOOTH",
"152 532 OFFCURVE",
"40 428 OFFCURVE",
"40 260 CURVE SMOOTH"
);
},
{
closed = 1;
nodes = (
"466 146 OFFCURVE",
"404 68 OFFCURVE",
"299 68 CURVE SMOOTH",
"280 68 OFFCURVE",
"260 71 OFFCURVE",
"246 77 CURVE",
"403 411 LINE",
"442 375 OFFCURVE",
"466 320 OFFCURVE",
"466 260 CURVE SMOOTH"
);
},
{
closed = 1;
nodes = (
"132 376 OFFCURVE",
"194 452 OFFCURVE",
"299 452 CURVE SMOOTH",
"315 452 OFFCURVE",
"332 449 OFFCURVE",
"344 445 CURVE",
"189 115 LINE",
"153 151 OFFCURVE",
"132 204 OFFCURVE",
"132 262 CURVE SMOOTH"
);
}
);
width = 598;
}
);
unicode = 00F8;
},
{
color = 6;
glyphname = oe;
lastChange = "2022-01-27 14:26:41 +0000";
layers = (
{
associatedMasterId = "49B01604-4BAD-416A-BFCD-4FBC01F4BDB0";
layerId = "ED5A1C3A-03C2-44DF-8033-277772C61E36";
name = img;
width = 963;
},
{
hints = (
{
horizontal = 1;
place = "{-12, 80}";
type = Stem;
},
{
horizontal = 1;
place = "{223, 73}";
type = Stem;
},
{
horizontal = 1;
place = "{454, 78}";
type = Stem;
},
{
place = "{40, 92}";
type = Stem;
},
{
place = "{840, 83}";
type = Stem;
}
);
layerId = "49B01604-4BAD-416A-BFCD-4FBC01F4BDB0";
paths = (
{
closed = 1;
nodes = (
"40 99 OFFCURVE",
"150 -12 OFFCURVE",
"297 -12 CURVE SMOOTH",
"392 -12 OFFCURVE",
"461 37 OFFCURVE",
"503 109 CURVE",
"541 35 OFFCURVE",
"608 -12 OFFCURVE",
"707 -12 CURVE SMOOTH",
"781 -12 OFFCURVE",
"841 3 OFFCURVE",
"889 25 CURVE",
"868 102 LINE",
"824 82 OFFCURVE",
"778 68 OFFCURVE",
"718 68 CURVE SMOOTH",
"626 68 OFFCURVE",
"568 126 OFFCURVE",
"556 223 CURVE",
"920 223 LINE",
"922 245 OFFCURVE",
"923 267 OFFCURVE",
"923 291 CURVE SMOOTH",
"923 423 OFFCURVE",
"848 532 OFFCURVE",
"699 532 CURVE SMOOTH",
"615 532 OFFCURVE",
"551 492 OFFCURVE",
"509 417 CURVE",
"463 489 OFFCURVE",
"393 532 OFFCURVE",
"299 532 CURVE SMOOTH",
"153 532 OFFCURVE",
"40 428 OFFCURVE",
"40 260 CURVE SMOOTH"
);
},
{
closed = 1;
nodes = (
"786 454 OFFCURVE",
"840 397 OFFCURVE",
"840 296 CURVE",
"555 296 LINE",
"565 399 OFFCURVE",
"619 454 OFFCURVE",
"697 454 CURVE SMOOTH"
);
},
{
closed = 1;
nodes = (
"466 146 OFFCURVE",
"404 68 OFFCURVE",
"299 68 CURVE SMOOTH",
"204 68 OFFCURVE",
"132 157 OFFCURVE",
"132 262 CURVE SMOOTH",
"132 376 OFFCURVE",
"194 452 OFFCURVE",
"299 452 CURVE SMOOTH",
"394 452 OFFCURVE",
"466 364 OFFCURVE",
"466 260 CURVE SMOOTH"
);
}
);
width = 963;
}
);
unicode = 0153;
},
{
color = 6;
glyphname = p;
lastChange = "2022-01-27 14:26:41 +0000";
layers = (
{
associatedMasterId = "49B01604-4BAD-416A-BFCD-4FBC01F4BDB0";
layerId = "ED5A1C3A-03C2-44DF-8033-277772C61E36";
name = img;
width = 613;
},
{
hints = (
{
place = "{99, 90}";
type = Stem;
},
{
place = "{476, 92}";
type = Stem;
},
{
horizontal = 1;
place = "{-12, 80}";
type = Stem;
},
{
horizontal = 1;
place = "{454, 66}";
type = Stem;
},
{
horizontal = 1;
place = "{454, 78}";
type = Stem;
},
{
horizontal = 1;
place = "{-220, 21}";
target = up;
type = BottomGhost;
}
);
layerId = "49B01604-4BAD-416A-BFCD-4FBC01F4BDB0";
paths = (
{
closed = 1;
nodes = (
"40 450 LINE",
"75 450 OFFCURVE",
"99 432 OFFCURVE",
"99 387 CURVE SMOOTH",
"99 -220 LINE",
"189 -220 LINE",
"189 49 LINE",
"224 17 OFFCURVE",
"279 -12 OFFCURVE",
"341 -12 CURVE SMOOTH",
"460 -12 OFFCURVE",
"568 99 OFFCURVE",
"568 265 CURVE SMOOTH",
"568 434 OFFCURVE",
"459 532 OFFCURVE",
"339 532 CURVE SMOOTH",
"252 532 OFFCURVE",
"194 477 OFFCURVE",
"174 447 CURVE",
"159 495 OFFCURVE",
"121 520 OFFCURVE",
"59 520 CURVE"
);
},
{
closed = 1;
nodes = (
"476 146 OFFCURVE",
"414 68 OFFCURVE",
"323 68 CURVE SMOOTH",
"269 68 OFFCURVE",
"223 94 OFFCURVE",
"189 130 CURVE",
"189 386 LINE",
"213 419 OFFCURVE",
"262 454 OFFCURVE",
"319 454 CURVE SMOOTH",
"405 454 OFFCURVE",
"476 382 OFFCURVE",
"476 262 CURVE SMOOTH"
);
}
);
width = 613;
}
);
unicode = 0070;
},
{
color = 6;
glyphname = thorn;
lastChange = "2022-01-27 14:26:41 +0000";
layers = (
{
associatedMasterId = "49B01604-4BAD-416A-BFCD-4FBC01F4BDB0";
layerId = "ED5A1C3A-03C2-44DF-8033-277772C61E36";
name = img;
width = 594;
},
{
hints = (
{
horizontal = 1;
place = "{-12, 80}";
type = Stem;
},
{
horizontal = 1;
place = "{454, 78}";
type = Stem;
},
{
horizontal = 1;
place = "{-220, 21}";
target = up;
type = BottomGhost;
},
{
horizontal = 1;
place = "{700, -20}";
target = down;
type = TopGhost;
},
{
place = "{80, 90}";
type = Stem;
},
{
place = "{457, 92}";
type = Stem;
}
);
layerId = "49B01604-4BAD-416A-BFCD-4FBC01F4BDB0";
paths = (
{
closed = 1;
nodes = (
"170 -220 LINE",
"170 49 LINE",
"205 17 OFFCURVE",
"260 -12 OFFCURVE",
"322 -12 CURVE SMOOTH",
"441 -12 OFFCURVE",
"549 99 OFFCURVE",
"549 265 CURVE SMOOTH",
"549 434 OFFCURVE",
"440 532 OFFCURVE",
"320 532 CURVE SMOOTH",
"249 532 OFFCURVE",
"197 496 OFFCURVE",
"170 466 CURVE",
"170 700 LINE",
"80 700 LINE",
"80 -220 LINE"
);
},
{
closed = 1;
nodes = (
"457 146 OFFCURVE",
"395 68 OFFCURVE",
"304 68 CURVE SMOOTH",
"250 68 OFFCURVE",
"204 94 OFFCURVE",
"170 130 CURVE",
"170 386 LINE",
"194 419 OFFCURVE",
"243 454 OFFCURVE",
"300 454 CURVE SMOOTH",
"386 454 OFFCURVE",
"457 382 OFFCURVE",
"457 262 CURVE SMOOTH"
);
}
);
width = 594;
}
);
unicode = 00FE;
},
{
color = 6;
glyphname = q;
lastChange = "2022-01-27 14:26:41 +0000";
layers = (
{
associatedMasterId = "49B01604-4BAD-416A-BFCD-4FBC01F4BDB0";
layerId = "ED5A1C3A-03C2-44DF-8033-277772C61E36";
name = img;
width = 594;
},
{
hints = (
{
place = "{45, 92}";
type = Stem;
},
{
place = "{424, 90}";
type = Stem;
},
{
horizontal = 1;
place = "{-12, 80}";
type = Stem;
},
{
horizontal = 1;
place = "{454, 78}";
type = Stem;
},
{
horizontal = 1;
place = "{-220, 21}";
target = up;
type = BottomGhost;
},
{
horizontal = 1;
place = "{520, -20}";
target = down;
type = TopGhost;
}
);
layerId = "49B01604-4BAD-416A-BFCD-4FBC01F4BDB0";
paths = (
{
closed = 1;
nodes = (
"432 520 LINE",
"432 478 LINE",
"396 508 OFFCURVE",
"347 532 OFFCURVE",
"287 532 CURVE SMOOTH",
"155 532 OFFCURVE",
"45 422 OFFCURVE",
"45 258 CURVE SMOOTH",
"45 83 OFFCURVE",
"157 -12 OFFCURVE",
"278 -12 CURVE SMOOTH",
"345 -12 OFFCURVE",
"396 23 OFFCURVE",
"424 53 CURVE",
"424 -220 LINE",
"514 -220 LINE",
"514 520 LINE"
);
},
{
closed = 1;
nodes = (
"344 454 OFFCURVE",
"388 437 OFFCURVE",
"424 412 CURVE",
"424 131 LINE",
"397 98 OFFCURVE",
"351 68 OFFCURVE",
"298 68 CURVE SMOOTH",
"213 68 OFFCURVE",
"137 140 OFFCURVE",
"137 261 CURVE SMOOTH",
"137 383 OFFCURVE",
"210 454 OFFCURVE",
"296 454 CURVE SMOOTH"
);
}
);
width = 594;
}
);
unicode = 0071;
},
{
color = 6;
glyphname = r;
lastChange = "2022-01-27 14:26:41 +0000";
layers = (
{
hints = (
{
place = "{80, 90}";
type = Stem;
},
{
horizontal = 1;
place = "{441, 79}";
type = Stem;
},
{
horizontal = 1;
place = "{441, 91}";
type = Stem;
},
{
horizontal = 1;
place = "{0, 21}";
target = up;
type = BottomGhost;
}
);
layerId = "49B01604-4BAD-416A-BFCD-4FBC01F4BDB0";
paths = (
{
closed = 1;
nodes = (
"389 526 LINE",
"375 530 OFFCURVE",
"354 532 OFFCURVE",
"334 532 CURVE SMOOTH",
"245 532 OFFCURVE",
"192 472 OFFCURVE",
"167 407 CURVE",
"167 520 LINE",
"80 520 LINE",
"80 0 LINE",
"170 0 LINE",
"170 243 LINE SMOOTH",
"170 379 OFFCURVE",
"243 441 OFFCURVE",
"317 441 CURVE SMOOTH",
"334 441 OFFCURVE",
"350 438 OFFCURVE",
"362 433 CURVE"
);
}
);
width = 399;
}
);
unicode = 0072;
},
{
color = 6;
glyphname = s;
lastChange = "2022-01-27 14:26:41 +0000";
layers = (
{
associatedMasterId = "49B01604-4BAD-416A-BFCD-4FBC01F4BDB0";
layerId = "ED5A1C3A-03C2-44DF-8033-277772C61E36";
name = img;
width = 468;
},
{
hints = (
{
horizontal = 1;
place = "{-12, 78}";
type = Stem;
},
{
horizontal = 1;
place = "{457, 75}";
type = Stem;
},
{
place = "{60, 88}";
type = Stem;
},
{
place = "{336, 92}";
type = Stem;
}
);
layerId = "49B01604-4BAD-416A-BFCD-4FBC01F4BDB0";
paths = (
{
closed = 1;
nodes = (
"35 42 LINE",
"76 10 OFFCURVE",
"141 -12 OFFCURVE",
"220 -12 CURVE SMOOTH",
"346 -12 OFFCURVE",
"428 46 OFFCURVE",
"428 139 CURVE SMOOTH",
"428 219 OFFCURVE",
"383 268 OFFCURVE",
"251 312 CURVE SMOOTH",
"170 339 OFFCURVE",
"148 358 OFFCURVE",
"148 390 CURVE SMOOTH",
"148 423 OFFCURVE",
"185 457 OFFCURVE",
"254 457 CURVE SMOOTH",
"310 457 OFFCURVE",
"356 442 OFFCURVE",
"392 421 CURVE",
"417 495 LINE",
"376 516 OFFCURVE",
"325 532 OFFCURVE",
"258 532 CURVE SMOOTH",
"134 532 OFFCURVE",
"60 469 OFFCURVE",
"60 389 CURVE SMOOTH",
"60 308 OFFCURVE",
"108 267 OFFCURVE",
"206 234 CURVE SMOOTH",
"312 198 OFFCURVE",
"336 173 OFFCURVE",
"336 132 CURVE SMOOTH",
"336 93 OFFCURVE",
"297 66 OFFCURVE",
"223 66 CURVE SMOOTH",
"163 66 OFFCURVE",
"107 87 OFFCURVE",
"73 117 CURVE"
);
}
);
width = 468;
}
);
unicode = 0073;
},
{
color = 6;
glyphname = germandbls;
lastChange = "2022-01-27 14:26:41 +0000";
layers = (
{
hints = (
{
place = "{120, 90}";
type = Stem;
},
{
place = "{138, 72}";
type = Stem;
},
{
place = "{319, 248}";
type = Stem;
},
{
place = "{479, 88}";
type = Stem;
},
{
place = "{498, 69}";
type = Stem;
},
{
place = "{498, 92}";
type = Stem;
},
{
horizontal = 1;
place = "{-12, 80}";
type = Stem;
},
{
horizontal = 1;
place = "{352, 73}";
type = Stem;
},
{
horizontal = 1;
place = "{672, 80}";
type = Stem;
},
{
horizontal = 1;
place = "{520, -20}";
target = down;
type = TopGhost;
},
{
horizontal = 1;
place = "{-220, 21}";
target = up;
type = BottomGhost;
}
);
layerId = "49B01604-4BAD-416A-BFCD-4FBC01F4BDB0";
paths = (
{
closed = 1;
nodes = (
"505 -12 OFFCURVE",
"590 81 OFFCURVE",
"590 204 CURVE SMOOTH",
"590 297 OFFCURVE",
"540 364 OFFCURVE",
"443 397 CURVE",
"527 433 OFFCURVE",
"567 488 OFFCURVE",
"567 574 CURVE SMOOTH",
"567 671 OFFCURVE",
"484 752 OFFCURVE",
"368 752 CURVE SMOOTH",
"231 752 OFFCURVE",
"138 666 OFFCURVE",
"138 477 CURVE",
"122 505 OFFCURVE",
"97 520 OFFCURVE",
"53 520 CURVE",
"30 439 LINE",
"85 439 OFFCURVE",
"120 415 OFFCURVE",
"120 349 CURVE SMOOTH",
"120 -220 LINE",
"210 -220 LINE",
"210 415 LINE SMOOTH",
"210 614 OFFCURVE",
"274 672 OFFCURVE",
"360 672 CURVE SMOOTH",
"428 672 OFFCURVE",
"479 627 OFFCURVE",
"479 560 CURVE SMOOTH",
"479 495 OFFCURVE",
"432 425 OFFCURVE",
"319 425 CURVE",
"319 352 LINE",
"433 352 OFFCURVE",
"498 284 OFFCURVE",
"498 202 CURVE SMOOTH",
"498 118 OFFCURVE",
"443 68 OFFCURVE",
"367 68 CURVE SMOOTH",
"336 68 OFFCURVE",
"311 74 OFFCURVE",
"289 85 CURVE",
"269 7 LINE",
"295 -5 OFFCURVE",
"329 -12 OFFCURVE",
"370 -12 CURVE SMOOTH"
);
}
);
width = 630;
}
);
unicode = 00DF;
},
{
color = 6;
glyphname = t;
lastChange = "2022-01-27 14:26:41 +0000";
layers = (
{
associatedMasterId = "49B01604-4BAD-416A-BFCD-4FBC01F4BDB0";
layerId = "ED5A1C3A-03C2-44DF-8033-277772C61E36";
name = img;
width = 397;
},
{
hints = (
{
horizontal = 1;
place = "{-12, 80}";
type = Stem;
},
{
horizontal = 1;
place = "{423, 78}";
type = Stem;
},
{
horizontal = 1;
place = "{665, -20}";
target = down;
type = TopGhost;
},
{
place = "{100, 90}";
type = Stem;
}
);
layerId = "49B01604-4BAD-416A-BFCD-4FBC01F4BDB0";
paths = (
{
closed = 1;
nodes = (
"102 501 LINE",
"10 501 LINE",
"10 423 LINE",
"100 423 LINE",
"100 179 LINE SMOOTH",
"100 56 OFFCURVE",
"162 -12 OFFCURVE",
"262 -12 CURVE SMOOTH",
"311 -12 OFFCURVE",
"360 7 OFFCURVE",
"387 23 CURVE",
"362 95 LINE",
"336 80 OFFCURVE",
"306 68 OFFCURVE",
"273 68 CURVE SMOOTH",
"227 68 OFFCURVE",
"190 94 OFFCURVE",
"190 172 CURVE SMOOTH",
"190 423 LINE",
"334 423 LINE",
"334 501 LINE",
"190 501 LINE",
"190 665 LINE",
"121 665 LINE"
);
}
);
width = 397;
}
);
unicode = 0074;
},
{
color = 6;
glyphname = u;
lastChange = "2022-01-27 14:26:41 +0000";
layers = (
{
associatedMasterId = "49B01604-4BAD-416A-BFCD-4FBC01F4BDB0";
layerId = "ED5A1C3A-03C2-44DF-8033-277772C61E36";
name = img;
width = 604;
},
{
hints = (
{
place = "{75, 90}";
type = Stem;
},
{
place = "{415, 90}";
type = Stem;
},
{
horizontal = 1;
place = "{-12, 80}";
type = Stem;
},
{
horizontal = 1;
place = "{520, -20}";
target = down;
type = TopGhost;
},
{
horizontal = 1;
place = "{-5, -20}";
target = down;
type = TopGhost;
}
);
layerId = "49B01604-4BAD-416A-BFCD-4FBC01F4BDB0";
paths = (
{
closed = 1;
nodes = (
"564 65 LINE",
"534 65 OFFCURVE",
"505 77 OFFCURVE",
"505 135 CURVE SMOOTH",
"505 520 LINE",
"415 520 LINE",
"415 129 LINE",
"375 92 OFFCURVE",
"322 68 OFFCURVE",
"267 68 CURVE SMOOTH",
"200 68 OFFCURVE",
"165 113 OFFCURVE",
"165 194 CURVE SMOOTH",
"165 520 LINE",
"75 520 LINE",
"75 182 LINE SMOOTH",
"75 40 OFFCURVE",
"160 -12 OFFCURVE",
"250 -12 CURVE SMOOTH",
"321 -12 OFFCURVE",
"383 21 OFFCURVE",
"430 69 CURVE",
"444 21 OFFCURVE",
"481 -5 OFFCURVE",
"545 -5 CURVE"
);
}
);
width = 604;
}
);
unicode = 0075;
},
{
color = 6;
glyphname = v;
lastChange = "2022-01-27 14:26:41 +0000";
layers = (
{
associatedMasterId = "49B01604-4BAD-416A-BFCD-4FBC01F4BDB0";
layerId = "ED5A1C3A-03C2-44DF-8033-277772C61E36";
name = img;
width = 533;
},
{
hints = (
{
horizontal = 1;
place = "{0, 21}";
target = up;
type = BottomGhost;
},
{
horizontal = 1;
place = "{530, -20}";
target = down;
type = TopGhost;
}
);
layerId = "49B01604-4BAD-416A-BFCD-4FBC01F4BDB0";
paths = (
{
closed = 1;
nodes = (
"219 0 LINE",
"313 0 LINE",
"523 496 LINE",
"446 530 LINE",
"269 102 LINE",
"92 530 LINE",
"10 496 LINE"
);
}
);
width = 533;
}
);
unicode = 0076;
},
{
color = 6;
glyphname = w;
lastChange = "2022-01-27 14:26:41 +0000";
layers = (
{
hints = (
{
horizontal = 1;
place = "{525, -20}";
target = down;
type = TopGhost;
},
{
horizontal = 1;
place = "{0, 21}";
target = up;
type = BottomGhost;
}
);
layerId = "49B01604-4BAD-416A-BFCD-4FBC01F4BDB0";
paths = (
{
closed = 1;
nodes = (
"580 102 LINE",
"461 483 LINE",
"364 483 LINE",
"242 102 LINE",
"108 525 LINE",
"25 496 LINE",
"189 0 LINE",
"288 0 LINE",
"409 387 LINE",
"529 0 LINE",
"628 0 LINE",
"793 496 LINE",
"713 525 LINE"
);
}
);
width = 818;
}
);
unicode = 0077;
},
{
color = 6;
glyphname = x;
lastChange = "2022-01-27 14:26:41 +0000";
layers = (
{
hints = (
{
horizontal = 1;
place = "{-9, 21}";
target = up;
type = BottomGhost;
},
{
horizontal = 1;
place = "{531, -20}";
target = down;
type = TopGhost;
}
);
layerId = "49B01604-4BAD-416A-BFCD-4FBC01F4BDB0";
paths = (
{
closed = 1;
nodes = (
"10 49 LINE",
"74 -7 LINE",
"247 208 LINE",
"422 -9 LINE",
"490 49 LINE",
"300 268 LINE",
"473 470 LINE",
"406 527 LINE",
"248 323 LINE",
"87 531 LINE",
"17 470 LINE",
"195 264 LINE"
);
}
);
width = 500;
}
);
unicode = 0078;
},
{
color = 6;
glyphname = y;
lastChange = "2022-01-27 14:26:41 +0000";
layers = (
{
associatedMasterId = "49B01604-4BAD-416A-BFCD-4FBC01F4BDB0";
layerId = "ED5A1C3A-03C2-44DF-8033-277772C61E36";
name = img;
width = 523;
},
{
hints = (
{
horizontal = 1;
place = "{-232, 78}";
type = Stem;
},
{
horizontal = 1;
place = "{532, -20}";
target = down;
type = TopGhost;
}
);
layerId = "49B01604-4BAD-416A-BFCD-4FBC01F4BDB0";
paths = (
{
closed = 1;
nodes = (
"193 -232 OFFCURVE",
"263 -186 OFFCURVE",
"322 -26 CURVE SMOOTH",
"513 496 LINE",
"430 528 LINE",
"279 99 LINE",
"85 532 LINE",
"5 496 LINE",
"208 39 LINE",
"256 39 LINE",
"233 -21 LINE SMOOTH",
"193 -126 OFFCURVE",
"151 -154 OFFCURVE",
"95 -154 CURVE SMOOTH",
"65 -154 OFFCURVE",
"41 -146 OFFCURVE",
"25 -137 CURVE",
"5 -212 LINE",
"22 -223 OFFCURVE",
"53 -232 OFFCURVE",
"93 -232 CURVE SMOOTH"
);
}
);
width = 523;
}
);
unicode = 0079;
},
{
color = 6;
glyphname = z;
lastChange = "2022-01-27 14:26:41 +0000";
layers = (
{
associatedMasterId = "49B01604-4BAD-416A-BFCD-4FBC01F4BDB0";
layerId = "ED5A1C3A-03C2-44DF-8033-277772C61E36";
name = img;
width = 472;
},
{
hints = (
{
horizontal = 1;
place = "{0, 80}";
type = Stem;
},
{
horizontal = 1;
place = "{442, 78}";
type = Stem;
}
);
layerId = "49B01604-4BAD-416A-BFCD-4FBC01F4BDB0";
paths = (
{
closed = 1;
nodes = (
"41 442 LINE",
"322 442 LINE",
"35 71 LINE",
"35 0 LINE",
"437 0 LINE",
"437 80 LINE",
"146 80 LINE",
"432 451 LINE",
"432 520 LINE",
"41 520 LINE"
);
}
);
width = 472;
}
);
unicode = 007A;
},
{
color = 6;
glyphname = ordfeminine;
lastChange = "2022-01-27 14:26:41 +0000";
layers = (
{
associatedMasterId = "49B01604-4BAD-416A-BFCD-4FBC01F4BDB0";
layerId = "ED5A1C3A-03C2-44DF-8033-277772C61E36";
name = img;
width = 600;
},
{
hints = (
{
place = "{102, 79}";
type = Stem;
},
{
place = "{374, 79}";
type = Stem;
},
{
horizontal = 1;
place = "{132, 82}";
type = Stem;
},
{
horizontal = 1;
place = "{323, 70}";
type = Stem;
},
{
horizontal = 1;
place = "{638, 69}";
type = Stem;
},
{
horizontal = 1;
place = "{700, -20}";
target = down;
type = TopGhost;
}
);
layerId = "49B01604-4BAD-416A-BFCD-4FBC01F4BDB0";
paths = (
{
closed = 1;
nodes = (
"102 390 OFFCURVE",
"187 323 OFFCURVE",
"275 323 CURVE SMOOTH",
"329 323 OFFCURVE",
"368 352 OFFCURVE",
"389 375 CURVE",
"404 344 OFFCURVE",
"434 327 OFFCURVE",
"480 327 CURVE",
"498 390 LINE",
"475 390 OFFCURVE",
"453 398 OFFCURVE",
"453 434 CURVE SMOOTH",
"453 700 LINE",
"379 700 LINE",
"379 678 LINE",
"353 694 OFFCURVE",
"321 707 OFFCURVE",
"283 707 CURVE SMOOTH",
"184 707 OFFCURVE",
"102 630 OFFCURVE",
"102 513 CURVE SMOOTH"
);
},
{
closed = 1;
nodes = (
"233 393 OFFCURVE",
"181 439 OFFCURVE",
"181 515 CURVE SMOOTH",
"181 594 OFFCURVE",
"230 638 OFFCURVE",
"291 638 CURVE SMOOTH",
"324 638 OFFCURVE",
"352 627 OFFCURVE",
"374 613 CURVE",
"374 437 LINE",
"352 411 OFFCURVE",
"322 393 OFFCURVE",
"288 393 CURVE SMOOTH"
);
},
{
closed = 1;
nodes = (
"470 132 LINE",
"470 214 LINE",
"130 214 LINE",
"130 132 LINE"
);
}
);
width = 600;
}
);
unicode = 00AA;
},
{
color = 6;
glyphname = ordmasculine;
lastChange = "2022-01-27 14:26:41 +0000";
layers = (
{
associatedMasterId = "49B01604-4BAD-416A-BFCD-4FBC01F4BDB0";
layerId = "ED5A1C3A-03C2-44DF-8033-277772C61E36";
name = img;
width = 600;
},
{
hints = (
{
horizontal = 1;
place = "{132, 82}";
type = Stem;
},
{
horizontal = 1;
place = "{323, 70}";
type = Stem;
},
{
horizontal = 1;
place = "{637, 70}";
type = Stem;
},
{
place = "{109, 80}";
type = Stem;
},
{
place = "{411, 80}";
type = Stem;
}
);
layerId = "49B01604-4BAD-416A-BFCD-4FBC01F4BDB0";
paths = (
{
closed = 1;
nodes = (
"411 442 OFFCURVE",
"370 393 OFFCURVE",
"301 393 CURVE SMOOTH",
"237 393 OFFCURVE",
"189 449 OFFCURVE",
"189 516 CURVE SMOOTH",
"189 589 OFFCURVE",
"230 637 OFFCURVE",
"301 637 CURVE SMOOTH",
"364 637 OFFCURVE",
"411 582 OFFCURVE",
"411 515 CURVE SMOOTH"
);
},
{
closed = 1;
nodes = (
"109 401 OFFCURVE",
"190 323 OFFCURVE",
"301 323 CURVE SMOOTH",
"410 323 OFFCURVE",
"491 399 OFFCURVE",
"491 516 CURVE SMOOTH",
"491 633 OFFCURVE",
"407 707 OFFCURVE",
"301 707 CURVE SMOOTH",
"192 707 OFFCURVE",
"109 634 OFFCURVE",
"109 515 CURVE SMOOTH"
);
},
{
closed = 1;
nodes = (
"470 132 LINE",
"470 214 LINE",
"130 214 LINE",
"130 132 LINE"
);
}
);
width = 600;
}
);
unicode = 00BA;
},
{
color = 6;
glyphname = zero;
lastChange = "2022-01-27 14:26:41 +0000";
layers = (
{
hints = (
{
horizontal = 1;
place = "{-12, 82}";
type = Stem;
},
{
horizontal = 1;
place = "{630, 82}";
type = Stem;
},
{
place = "{60, 95}";
type = Stem;
},
{
place = "{445, 95}";
type = Stem;
}
);
layerId = "49B01604-4BAD-416A-BFCD-4FBC01F4BDB0";
paths = (
{
closed = 1;
nodes = (
"146 712 OFFCURVE",
"60 582 OFFCURVE",
"60 351 CURVE SMOOTH",
"60 121 OFFCURVE",
"143 -12 OFFCURVE",
"299 -12 CURVE SMOOTH",
"454 -12 OFFCURVE",
"540 118 OFFCURVE",
"540 349 CURVE SMOOTH",
"540 579 OFFCURVE",
"457 712 OFFCURVE",
"301 712 CURVE SMOOTH"
);
},
{
closed = 1;
nodes = (
"391 630 OFFCURVE",
"445 532 OFFCURVE",
"445 348 CURVE SMOOTH",
"445 141 OFFCURVE",
"389 70 OFFCURVE",
"300 70 CURVE SMOOTH",
"209 70 OFFCURVE",
"155 168 OFFCURVE",
"155 352 CURVE SMOOTH",
"155 559 OFFCURVE",
"211 630 OFFCURVE",
"300 630 CURVE SMOOTH"
);
}
);
width = 600;
}
);
unicode = 0030;
},
{
color = 6;
glyphname = one;
lastChange = "2022-01-27 14:26:41 +0000";
layers = (
{
hints = (
{
horizontal = 1;
place = "{0, 80}";
type = Stem;
},
{
horizontal = 1;
place = "{700, -20}";
target = down;
type = TopGhost;
},
{
place = "{287, 90}";
type = Stem;
}
);
layerId = "49B01604-4BAD-416A-BFCD-4FBC01F4BDB0";
paths = (
{
closed = 1;
nodes = (
"311 700 LINE",
"104 551 LINE",
"153 484 LINE",
"287 585 LINE",
"287 80 LINE",
"144 80 LINE",
"144 0 LINE",
"496 0 LINE",
"496 80 LINE",
"377 80 LINE",
"377 700 LINE"
);
}
);
width = 600;
}
);
unicode = 0031;
},
{
color = 6;
glyphname = two;
lastChange = "2022-01-27 14:26:41 +0000";
layers = (
{
hints = (
{
horizontal = 1;
place = "{0, 82}";
type = Stem;
},
{
horizontal = 1;
place = "{632, 80}";
type = Stem;
},
{
place = "{400, 95}";
type = Stem;
}
);
layerId = "49B01604-4BAD-416A-BFCD-4FBC01F4BDB0";
paths = (
{
closed = 1;
nodes = (
"494 0 LINE",
"494 82 LINE",
"186 82 LINE",
"208 259 OFFCURVE",
"495 348 OFFCURVE",
"495 541 CURVE SMOOTH",
"495 637 OFFCURVE",
"417 712 OFFCURVE",
"299 712 CURVE SMOOTH",
"214 712 OFFCURVE",
"151 680 OFFCURVE",
"98 632 CURVE",
"148 571 LINE",
"188 608 OFFCURVE",
"233 632 OFFCURVE",
"289 632 CURVE SMOOTH",
"354 632 OFFCURVE",
"400 591 OFFCURVE",
"400 535 CURVE SMOOTH",
"400 385 OFFCURVE",
"85 295 OFFCURVE",
"85 37 CURVE SMOOTH",
"85 24 OFFCURVE",
"86 12 OFFCURVE",
"88 0 CURVE"
);
}
);
width = 600;
}
);
unicode = 0032;
},
{
color = 6;
glyphname = three;
lastChange = "2022-01-27 14:26:41 +0000";
layers = (
{
associatedMasterId = "49B01604-4BAD-416A-BFCD-4FBC01F4BDB0";
layerId = "ED5A1C3A-03C2-44DF-8033-277772C61E36";
name = img;
width = 600;
},
{
hints = (
{
place = "{384, 91}";
type = Stem;
},
{
place = "{403, 93}";
type = Stem;
},
{
horizontal = 1;
place = "{-12, 82}";
type = Stem;
},
{
horizontal = 1;
place = "{328, 73}";
type = Stem;
},
{
horizontal = 1;
place = "{632, 80}";
type = Stem;
}
);
layerId = "49B01604-4BAD-416A-BFCD-4FBC01F4BDB0";
paths = (
{
closed = 1;
nodes = (
"420 -12 OFFCURVE",
"496 90 OFFCURVE",
"496 195 CURVE SMOOTH",
"496 278 OFFCURVE",
"446 342 OFFCURVE",
"362 374 CURVE",
"434 409 OFFCURVE",
"475 460 OFFCURVE",
"475 539 CURVE SMOOTH",
"475 631 OFFCURVE",
"399 712 OFFCURVE",
"268 712 CURVE SMOOTH",
"184 712 OFFCURVE",
"121 680 OFFCURVE",
"81 653 CURVE",
"118 582 LINE",
"149 607 OFFCURVE",
"198 632 OFFCURVE",
"261 632 CURVE SMOOTH",
"330 632 OFFCURVE",
"384 589 OFFCURVE",
"384 527 CURVE SMOOTH",
"384 463 OFFCURVE",
"328 401 OFFCURVE",
"210 401 CURVE SMOOTH",
"158 401 LINE",
"158 328 LINE",
"214 328 LINE SMOOTH",
"345 328 OFFCURVE",
"403 265 OFFCURVE",
"403 192 CURVE SMOOTH",
"403 122 OFFCURVE",
"348 70 OFFCURVE",
"260 70 CURVE SMOOTH",
"189 70 OFFCURVE",
"142 95 OFFCURVE",
"105 123 CURVE",
"64 48 LINE",
"109 15 OFFCURVE",
"172 -12 OFFCURVE",
"259 -12 CURVE SMOOTH"
);
}
);
width = 600;
}
);
unicode = 0033;
},
{
color = 6;
glyphname = four;
lastChange = "2022-01-27 14:26:41 +0000";
layers = (
{
associatedMasterId = "49B01604-4BAD-416A-BFCD-4FBC01F4BDB0";
layerId = "ED5A1C3A-03C2-44DF-8033-277772C61E36";
name = img;
width = 600;
},
{
hints = (
{
horizontal = 1;
place = "{149, 82}";
type = Stem;
},
{
horizontal = 1;
place = "{707, -20}";
target = down;
type = TopGhost;
},
{
horizontal = 1;
place = "{0, 21}";
target = up;
type = BottomGhost;
},
{
place = "{363, 90}";
type = Stem;
}
);
layerId = "49B01604-4BAD-416A-BFCD-4FBC01F4BDB0";
paths = (
{
closed = 1;
nodes = (
"536 149 LINE",
"536 231 LINE",
"453 231 LINE",
"453 430 LINE",
"363 430 LINE",
"363 231 LINE",
"162 231 LINE",
"351 674 LINE",
"273 707 LINE",
"64 221 LINE",
"64 149 LINE",
"363 149 LINE",
"363 0 LINE",
"453 0 LINE",
"453 149 LINE"
);
}
);
width = 600;
}
);
unicode = 0034;
},
{
color = 6;
glyphname = five;
lastChange = "2022-01-27 14:26:41 +0000";
layers = (
{
associatedMasterId = "49B01604-4BAD-416A-BFCD-4FBC01F4BDB0";
layerId = "ED5A1C3A-03C2-44DF-8033-277772C61E36";
name = img;
width = 600;
},
{
hints = (
{
horizontal = 1;
place = "{-12, 82}";
type = Stem;
},
{
horizontal = 1;
place = "{348, 81}";
type = Stem;
},
{
horizontal = 1;
place = "{619, 81}";
type = Stem;
},
{
place = "{132, 85}";
type = Stem;
},
{
place = "{420, 95}";
type = Stem;
}
);
layerId = "49B01604-4BAD-416A-BFCD-4FBC01F4BDB0";
paths = (
{
closed = 1;
nodes = (
"515 341 OFFCURVE",
"422 429 OFFCURVE",
"267 429 CURVE SMOOTH",
"217 429 LINE",
"217 619 LINE",
"478 619 LINE",
"478 700 LINE",
"132 700 LINE",
"132 348 LINE",
"256 348 LINE SMOOTH",
"361 348 OFFCURVE",
"420 290 OFFCURVE",
"420 207 CURVE SMOOTH",
"420 127 OFFCURVE",
"360 70 OFFCURVE",
"271 70 CURVE SMOOTH",
"214 70 OFFCURVE",
"169 90 OFFCURVE",
"132 117 CURVE",
"85 40 LINE",
"133 7 OFFCURVE",
"188 -12 OFFCURVE",
"270 -12 CURVE SMOOTH",
"417 -12 OFFCURVE",
"515 83 OFFCURVE",
"515 217 CURVE SMOOTH"
);
}
);
width = 600;
}
);
unicode = 0035;
},
{
color = 6;
glyphname = six;
lastChange = "2022-01-27 14:26:41 +0000";
layers = (
{
associatedMasterId = "49B01604-4BAD-416A-BFCD-4FBC01F4BDB0";
layerId = "ED5A1C3A-03C2-44DF-8033-277772C61E36";
name = img;
width = 600;
},
{
hints = (
{
horizontal = 1;
place = "{-12, 82}";
type = Stem;
},
{
horizontal = 1;
place = "{368, 75}";
type = Stem;
},
{
horizontal = 1;
place = "{620, 82}";
type = Stem;
},
{
place = "{70, 92}";
type = Stem;
},
{
place = "{441, 90}";
type = Stem;
}
);
layerId = "49B01604-4BAD-416A-BFCD-4FBC01F4BDB0";
paths = (
{
closed = 1;
nodes = (
"442 620 OFFCURVE",
"456 619 OFFCURVE",
"467 618 CURVE",
"467 700 LINE",
"456 701 OFFCURVE",
"441 702 OFFCURVE",
"429 702 CURVE SMOOTH",
"192 702 OFFCURVE",
"70 511 OFFCURVE",
"70 284 CURVE SMOOTH",
"70 81 OFFCURVE",
"177 -12 OFFCURVE",
"304 -12 CURVE SMOOTH",
"436 -12 OFFCURVE",
"531 87 OFFCURVE",
"531 234 CURVE SMOOTH",
"531 361 OFFCURVE",
"447 443 OFFCURVE",
"336 443 CURVE SMOOTH",
"261 443 OFFCURVE",
"201 407 OFFCURVE",
"164 371 CURVE",
"185 525 OFFCURVE",
"284 620 OFFCURVE",
"430 620 CURVE SMOOTH"
);
},
{
closed = 1;
nodes = (
"390 368 OFFCURVE",
"441 309 OFFCURVE",
"441 223 CURVE SMOOTH",
"441 136 OFFCURVE",
"388 70 OFFCURVE",
"308 70 CURVE SMOOTH",
"227 70 OFFCURVE",
"164 144 OFFCURVE",
"162 269 CURVE",
"162 291 LINE",
"202 338 OFFCURVE",
"255 368 OFFCURVE",
"313 368 CURVE SMOOTH"
);
}
);
width = 600;
}
);
unicode = 0036;
},
{
color = 6;
glyphname = seven;
lastChange = "2022-01-27 14:26:41 +0000";
layers = (
{
associatedMasterId = "49B01604-4BAD-416A-BFCD-4FBC01F4BDB0";
layerId = "ED5A1C3A-03C2-44DF-8033-277772C61E36";
name = img;
width = 600;
},
{
hints = (
{
horizontal = 1;
place = "{618, 82}";
type = Stem;
},
{
horizontal = 1;
place = "{0, 21}";
target = up;
type = BottomGhost;
},
{
place = "{195, 101}";
type = Stem;
}
);
layerId = "49B01604-4BAD-416A-BFCD-4FBC01F4BDB0";
paths = (
{
closed = 1;
nodes = (
"296 0 LINE",
"296 310 OFFCURVE",
"354 450 OFFCURVE",
"537 628 CURVE",
"537 700 LINE",
"93 700 LINE",
"93 618 LINE",
"430 618 LINE",
"278 464 OFFCURVE",
"195 306 OFFCURVE",
"195 0 CURVE"
);
}
);
width = 600;
}
);
unicode = 0037;
},
{
color = 6;
glyphname = eight;
lastChange = "2022-01-27 14:26:41 +0000";
layers = (
{
associatedMasterId = "49B01604-4BAD-416A-BFCD-4FBC01F4BDB0";
layerId = "ED5A1C3A-03C2-44DF-8033-277772C61E36";
name = img;
width = 600;
},
{
hints = (
{
place = "{56, 92}";
type = Stem;
},
{
place = "{93, 87}";
type = Stem;
},
{
place = "{419, 87}";
type = Stem;
},
{
place = "{452, 92}";
type = Stem;
},
{
horizontal = 1;
place = "{-12, 80}";
type = Stem;
},
{
horizontal = 1;
place = "{638, 74}";
type = Stem;
}
);
layerId = "49B01604-4BAD-416A-BFCD-4FBC01F4BDB0";
paths = (
{
closed = 1;
nodes = (
"101 333 OFFCURVE",
"56 270 OFFCURVE",
"56 183 CURVE SMOOTH",
"56 74 OFFCURVE",
"152 -12 OFFCURVE",
"305 -12 CURVE SMOOTH",
"442 -12 OFFCURVE",
"544 68 OFFCURVE",
"544 189 CURVE SMOOTH",
"544 276 OFFCURVE",
"490 336 OFFCURVE",
"392 378 CURVE",
"461 413 OFFCURVE",
"506 460 OFFCURVE",
"506 541 CURVE SMOOTH",
"506 637 OFFCURVE",
"420 712 OFFCURVE",
"297 712 CURVE SMOOTH",
"182 712 OFFCURVE",
"93 641 OFFCURVE",
"93 540 CURVE SMOOTH",
"93 464 OFFCURVE",
"132 416 OFFCURVE",
"203 377 CURVE"
);
},
{
closed = 1;
nodes = (
"452 117 OFFCURVE",
"391 68 OFFCURVE",
"306 68 CURVE SMOOTH",
"215 68 OFFCURVE",
"148 124 OFFCURVE",
"148 199 CURVE SMOOTH",
"148 270 OFFCURVE",
"216 320 OFFCURVE",
"292 338 CURVE",
"392 302 OFFCURVE",
"452 251 OFFCURVE",
"452 187 CURVE SMOOTH"
);
},
{
closed = 1;
nodes = (
"180 599 OFFCURVE",
"229 638 OFFCURVE",
"297 638 CURVE SMOOTH",
"366 638 OFFCURVE",
"419 593 OFFCURVE",
"419 532 CURVE SMOOTH",
"419 473 OFFCURVE",
"368 431 OFFCURVE",
"310 411 CURVE",
"231 435 OFFCURVE",
"180 484 OFFCURVE",
"180 542 CURVE SMOOTH"
);
}
);
width = 600;
}
);
unicode = 0038;
},
{
color = 6;
glyphname = nine;
lastChange = "2022-01-27 14:26:41 +0000";
layers = (
{
associatedMasterId = "49B01604-4BAD-416A-BFCD-4FBC01F4BDB0";
layerId = "ED5A1C3A-03C2-44DF-8033-277772C61E36";
name = img;
width = 600;
},
{
hints = (
{
horizontal = 1;
place = "{-12, 82}";
type = Stem;
},
{
horizontal = 1;
place = "{270, 74}";
type = Stem;
},
{
horizontal = 1;
place = "{632, 80}";
type = Stem;
},
{
place = "{65, 87}";
type = Stem;
},
{
place = "{423, 92}";
type = Stem;
}
);
layerId = "49B01604-4BAD-416A-BFCD-4FBC01F4BDB0";
paths = (
{
closed = 1;
nodes = (
"76 66 LINE",
"126 17 OFFCURVE",
"187 -12 OFFCURVE",
"264 -12 CURVE SMOOTH",
"407 -12 OFFCURVE",
"515 100 OFFCURVE",
"515 366 CURVE SMOOTH",
"515 540 OFFCURVE",
"490 604 OFFCURVE",
"442 654 CURVE SMOOTH",
"409 688 OFFCURVE",
"360 712 OFFCURVE",
"291 712 CURVE SMOOTH",
"156 712 OFFCURVE",
"65 610 OFFCURVE",
"65 484 CURVE SMOOTH",
"65 344 OFFCURVE",
"166 270 OFFCURVE",
"272 270 CURVE SMOOTH",
"331 270 OFFCURVE",
"382 298 OFFCURVE",
"423 336 CURVE",
"423 149 OFFCURVE",
"351 70 OFFCURVE",
"269 70 CURVE SMOOTH",
"218 70 OFFCURVE",
"175 91 OFFCURVE",
"135 133 CURVE"
);
},
{
closed = 1;
nodes = (
"215 344 OFFCURVE",
"152 398 OFFCURVE",
"152 488 CURVE SMOOTH",
"152 575 OFFCURVE",
"212 632 OFFCURVE",
"288 632 CURVE SMOOTH",
"370 632 OFFCURVE",
"423 565 OFFCURVE",
"423 439 CURVE SMOOTH",
"423 409 LINE",
"387 373 OFFCURVE",
"337 344 OFFCURVE",
"287 344 CURVE SMOOTH"
);
}
);
width = 600;
}
);
unicode = 0039;
},
{
color = 6;
glyphname = onesuperior;
lastChange = "2022-01-27 14:26:41 +0000";
layers = (
{
associatedMasterId = "49B01604-4BAD-416A-BFCD-4FBC01F4BDB0";
layerId = "ED5A1C3A-03C2-44DF-8033-277772C61E36";
name = img;
width = 450;
},
{
hints = (
{
horizontal = 1;
place = "{276, 65}";
type = Stem;
},
{
horizontal = 1;
place = "{700, -20}";
target = down;
type = TopGhost;
},
{
place = "{209, 80}";
type = Stem;
}
);
layerId = "49B01604-4BAD-416A-BFCD-4FBC01F4BDB0";
paths = (
{
closed = 1;
nodes = (
"232 700 LINE",
"81 607 LINE",
"127 552 LINE",
"209 605 LINE",
"209 341 LINE",
"113 341 LINE",
"113 276 LINE",
"369 276 LINE",
"369 341 LINE",
"289 341 LINE",
"289 700 LINE"
);
}
);
width = 450;
}
);
unicode = 00B9;
},
{
color = 6;
glyphname = twosuperior;
lastChange = "2022-01-27 14:26:41 +0000";
layers = (
{
associatedMasterId = "49B01604-4BAD-416A-BFCD-4FBC01F4BDB0";
layerId = "ED5A1C3A-03C2-44DF-8033-277772C61E36";
name = img;
width = 450;
},
{
hints = (
{
horizontal = 1;
place = "{276, 67}";
type = Stem;
},
{
horizontal = 1;
place = "{642, 65}";
type = Stem;
},
{
place = "{289, 82}";
type = Stem;
}
);
layerId = "49B01604-4BAD-416A-BFCD-4FBC01F4BDB0";
paths = (
{
closed = 1;
nodes = (
"372 276 LINE",
"372 343 LINE",
"168 343 LINE",
"186 438 OFFCURVE",
"371 484 OFFCURVE",
"371 597 CURVE SMOOTH",
"371 659 OFFCURVE",
"317 707 OFFCURVE",
"234 707 CURVE SMOOTH",
"174 707 OFFCURVE",
"126 687 OFFCURVE",
"83 652 CURVE",
"130 602 LINE",
"161 627 OFFCURVE",
"190 642 OFFCURVE",
"226 642 CURVE SMOOTH",
"262 642 OFFCURVE",
"289 620 OFFCURVE",
"289 592 CURVE SMOOTH",
"289 514 OFFCURVE",
"78 461 OFFCURVE",
"78 312 CURVE SMOOTH",
"78 297 OFFCURVE",
"79 286 OFFCURVE",
"80 276 CURVE"
);
}
);
width = 450;
}
);
unicode = 00B2;
},
{
color = 6;
glyphname = threesuperior;
lastChange = "2022-01-27 14:26:41 +0000";
layers = (
{
associatedMasterId = "49B01604-4BAD-416A-BFCD-4FBC01F4BDB0";
layerId = "ED5A1C3A-03C2-44DF-8033-277772C61E36";
name = img;
width = 450;
},
{
hints = (
{
place = "{135, 231}";
type = Stem;
},
{
place = "{285, 81}";
type = Stem;
},
{
place = "{298, 81}";
type = Stem;
},
{
horizontal = 1;
place = "{270, 66}";
type = Stem;
},
{
horizontal = 1;
place = "{467, 61}";
type = Stem;
},
{
horizontal = 1;
place = "{643, 64}";
type = Stem;
}
);
layerId = "49B01604-4BAD-416A-BFCD-4FBC01F4BDB0";
paths = (
{
closed = 1;
nodes = (
"326 270 OFFCURVE",
"379 335 OFFCURVE",
"379 400 CURVE SMOOTH",
"379 445 OFFCURVE",
"353 482 OFFCURVE",
"306 503 CURVE",
"348 524 OFFCURVE",
"366 553 OFFCURVE",
"366 597 CURVE SMOOTH",
"366 653 OFFCURVE",
"310 707 OFFCURVE",
"211 707 CURVE SMOOTH",
"161 707 OFFCURVE",
"115 688 OFFCURVE",
"83 670 CURVE",
"119 611 LINE",
"143 628 OFFCURVE",
"174 643 OFFCURVE",
"208 643 CURVE SMOOTH",
"251 643 OFFCURVE",
"285 620 OFFCURVE",
"285 591 CURVE SMOOTH",
"285 562 OFFCURVE",
"255 528 OFFCURVE",
"178 528 CURVE SMOOTH",
"135 528 LINE",
"135 467 LINE",
"181 467 LINE SMOOTH",
"262 467 OFFCURVE",
"298 435 OFFCURVE",
"298 398 CURVE SMOOTH",
"298 363 OFFCURVE",
"265 336 OFFCURVE",
"205 336 CURVE SMOOTH",
"170 336 OFFCURVE",
"137 351 OFFCURVE",
"109 368 CURVE",
"71 309 LINE",
"107 286 OFFCURVE",
"154 270 OFFCURVE",
"205 270 CURVE SMOOTH"
);
}
);
width = 450;
}
);
unicode = 00B3;
},
{
color = 6;
glyphname = foursuperior;
lastChange = "2022-01-27 14:26:41 +0000";
layers = (
{
layerId = "49B01604-4BAD-416A-BFCD-4FBC01F4BDB0";
paths = (
{
closed = 1;
nodes = (
"280 276 LINE",
"357 276 LINE",
"357 363 LINE",
"414 363 LINE",
"414 429 LINE",
"357 429 LINE",
"357 543 LINE",
"280 543 LINE",
"280 429 LINE",
"172 429 LINE",
"295 680 LINE",
"224 706 LINE",
"80 415 LINE",
"80 363 LINE",
"280 363 LINE"
);
}
);
width = 494;
}
);
unicode = 2074;
},
{
color = 6;
glyphname = fraction;
lastChange = "2022-01-27 14:26:41 +0000";
layers = (
{
layerId = "49B01604-4BAD-416A-BFCD-4FBC01F4BDB0";
paths = (
{
closed = 1;
nodes = (
"289 -40 LINE",
"726 702 LINE",
"666 740 LINE",
"229 -2 LINE"
);
}
);
width = 840;
}
);
unicode = 2044;
},
{
color = 6;
glyphname = onehalf;
lastChange = "2022-01-27 14:26:41 +0000";
layers = (
{
associatedMasterId = "49B01604-4BAD-416A-BFCD-4FBC01F4BDB0";
layerId = "ED5A1C3A-03C2-44DF-8033-277772C61E36";
name = img;
width = 900;
},
{
hints = (
{
horizontal = 1;
place = "{0, 67}";
type = Stem;
},
{
horizontal = 1;
place = "{276, 65}";
type = Stem;
},
{
horizontal = 1;
place = "{366, 65}";
type = Stem;
},
{
horizontal = 1;
place = "{-40, 21}";
target = up;
type = BottomGhost;
},
{
horizontal = 1;
place = "{740, -20}";
target = down;
type = TopGhost;
},
{
horizontal = 1;
place = "{700, -20}";
target = down;
type = TopGhost;
},
{
place = "{160, 80}";
type = Stem;
},
{
place = "{785, 82}";
type = Stem;
}
);
layerId = "49B01604-4BAD-416A-BFCD-4FBC01F4BDB0";
paths = (
{
closed = 1;
nodes = (
"274 -40 LINE",
"711 702 LINE",
"651 740 LINE",
"214 -2 LINE"
);
},
{
closed = 1;
nodes = (
"183 700 LINE",
"32 607 LINE",
"78 552 LINE",
"160 605 LINE",
"160 341 LINE",
"64 341 LINE",
"64 276 LINE",
"320 276 LINE",
"320 341 LINE",
"240 341 LINE",
"240 700 LINE"
);
},
{
closed = 1;
nodes = (
"868 0 LINE",
"868 67 LINE",
"664 67 LINE",
"682 162 OFFCURVE",
"867 208 OFFCURVE",
"867 321 CURVE SMOOTH",
"867 383 OFFCURVE",
"813 431 OFFCURVE",
"730 431 CURVE SMOOTH",
"670 431 OFFCURVE",
"622 411 OFFCURVE",
"579 376 CURVE",
"626 326 LINE",
"657 351 OFFCURVE",
"686 366 OFFCURVE",
"722 366 CURVE SMOOTH",
"758 366 OFFCURVE",
"785 344 OFFCURVE",
"785 316 CURVE SMOOTH",
"785 238 OFFCURVE",
"574 185 OFFCURVE",
"574 36 CURVE SMOOTH",
"574 21 OFFCURVE",
"575 10 OFFCURVE",
"576 0 CURVE"
);
}
);
width = 900;
}
);
unicode = 00BD;
},
{
color = 6;
glyphname = onequarter;
lastChange = "2022-01-27 14:26:41 +0000";
layers = (
{
associatedMasterId = "49B01604-4BAD-416A-BFCD-4FBC01F4BDB0";
layerId = "ED5A1C3A-03C2-44DF-8033-277772C61E36";
name = img;
width = 900;
},
{
hints = (
{
horizontal = 1;
place = "{87, 66}";
type = Stem;
},
{
horizontal = 1;
place = "{276, 65}";
type = Stem;
},
{
horizontal = 1;
place = "{-40, 21}";
target = up;
type = BottomGhost;
},
{
horizontal = 1;
place = "{740, -20}";
target = down;
type = TopGhost;
},
{
horizontal = 1;
place = "{0, -20}";
target = down;
type = TopGhost;
},
{
horizontal = 1;
place = "{700, -20}";
target = down;
type = TopGhost;
},
{
place = "{165, 80}";
type = Stem;
},
{
place = "{729, 77}";
type = Stem;
}
);
layerId = "49B01604-4BAD-416A-BFCD-4FBC01F4BDB0";
paths = (
{
closed = 1;
nodes = (
"289 -40 LINE",
"726 702 LINE",
"666 740 LINE",
"229 -2 LINE"
);
},
{
closed = 1;
nodes = (
"729 0 LINE",
"806 0 LINE",
"806 87 LINE",
"863 87 LINE",
"863 153 LINE",
"806 153 LINE",
"806 267 LINE",
"729 267 LINE",
"729 153 LINE",
"621 153 LINE",
"744 404 LINE",
"673 430 LINE",
"529 139 LINE",
"529 87 LINE",
"729 87 LINE"
);
},
{
closed = 1;
nodes = (
"188 700 LINE",
"37 607 LINE",
"83 552 LINE",
"165 605 LINE",
"165 341 LINE",
"69 341 LINE",
"69 276 LINE",
"325 276 LINE",
"325 341 LINE",
"245 341 LINE",
"245 700 LINE"
);
}
);
width = 900;
}
);
unicode = 00BC;
},
{
color = 6;
glyphname = threequarters;
lastChange = "2022-01-27 14:26:41 +0000";
layers = (
{
associatedMasterId = "49B01604-4BAD-416A-BFCD-4FBC01F4BDB0";
layerId = "ED5A1C3A-03C2-44DF-8033-277772C61E36";
name = img;
width = 900;
},
{
hints = (
{
place = "{112, 231}";
type = Stem;
},
{
place = "{262, 81}";
type = Stem;
},
{
place = "{275, 81}";
type = Stem;
},
{
place = "{718, 77}";
type = Stem;
},
{
horizontal = 1;
place = "{87, 66}";
type = Stem;
},
{
horizontal = 1;
place = "{270, 66}";
type = Stem;
},
{
horizontal = 1;
place = "{467, 61}";
type = Stem;
},
{
horizontal = 1;
place = "{643, 64}";
type = Stem;
},
{
horizontal = 1;
place = "{0, -20}";
target = down;
type = TopGhost;
},
{
horizontal = 1;
place = "{-40, 21}";
target = up;
type = BottomGhost;
},
{
horizontal = 1;
place = "{740, -20}";
target = down;
type = TopGhost;
}
);
layerId = "49B01604-4BAD-416A-BFCD-4FBC01F4BDB0";
paths = (
{
closed = 1;
nodes = (
"718 0 LINE",
"795 0 LINE",
"795 87 LINE",
"852 87 LINE",
"852 153 LINE",
"795 153 LINE",
"795 267 LINE",
"718 267 LINE",
"718 153 LINE",
"610 153 LINE",
"733 404 LINE",
"662 430 LINE",
"518 139 LINE",
"518 87 LINE",
"718 87 LINE"
);
},
{
closed = 1;
nodes = (
"279 -40 LINE",
"716 702 LINE",
"656 740 LINE",
"219 -2 LINE"
);
},
{
closed = 1;
nodes = (
"303 270 OFFCURVE",
"356 335 OFFCURVE",
"356 400 CURVE SMOOTH",
"356 445 OFFCURVE",
"330 482 OFFCURVE",
"283 503 CURVE",
"325 524 OFFCURVE",
"343 553 OFFCURVE",
"343 597 CURVE SMOOTH",
"343 653 OFFCURVE",
"287 707 OFFCURVE",
"188 707 CURVE SMOOTH",
"138 707 OFFCURVE",
"92 688 OFFCURVE",
"60 670 CURVE",
"96 611 LINE",
"120 628 OFFCURVE",
"151 643 OFFCURVE",
"185 643 CURVE SMOOTH",
"228 643 OFFCURVE",
"262 620 OFFCURVE",
"262 591 CURVE SMOOTH",
"262 562 OFFCURVE",
"232 528 OFFCURVE",
"155 528 CURVE SMOOTH",
"112 528 LINE",
"112 467 LINE",
"158 467 LINE SMOOTH",
"239 467 OFFCURVE",
"275 435 OFFCURVE",
"275 398 CURVE SMOOTH",
"275 363 OFFCURVE",
"242 336 OFFCURVE",
"182 336 CURVE SMOOTH",
"147 336 OFFCURVE",
"114 351 OFFCURVE",
"86 368 CURVE",
"48 309 LINE",
"84 286 OFFCURVE",
"131 270 OFFCURVE",
"182 270 CURVE SMOOTH"
);
}
);
width = 900;
}
);
unicode = 00BE;
},
{
color = 6;
glyphname = .notdef;
lastChange = "2022-01-27 14:26:41 +0000";
layers = (
{
layerId = "49B01604-4BAD-416A-BFCD-4FBC01F4BDB0";
paths = (
{
closed = 1;
nodes = (
"106 0 LINE",
"494 0 LINE",
"494 700 LINE",
"106 700 LINE"
);
},
{
closed = 1;
nodes = (
"174 68 LINE",
"174 632 LINE",
"426 632 LINE",
"426 68 LINE"
);
}
);
width = 600;
}
);
},
{
color = 6;
glyphname = period;
lastChange = "2022-01-27 14:26:41 +0000";
layers = (
{
hints = (
{
horizontal = 1;
place = "{-12, 134}";
type = Stem;
},
{
place = "{83, 134}";
type = Stem;
}
);
layerId = "49B01604-4BAD-416A-BFCD-4FBC01F4BDB0";
paths = (
{
closed = 1;
nodes = (
"83 19 OFFCURVE",
"114 -12 OFFCURVE",
"150 -12 CURVE SMOOTH",
"189 -12 OFFCURVE",
"217 15 OFFCURVE",
"217 55 CURVE SMOOTH",
"217 91 OFFCURVE",
"185 122 OFFCURVE",
"150 122 CURVE SMOOTH",
"108 122 OFFCURVE",
"83 96 OFFCURVE",
"83 55 CURVE SMOOTH"
);
}
);
width = 300;
}
);
unicode = 002E;
},
{
color = 6;
glyphname = comma;
lastChange = "2022-01-27 14:26:41 +0000";
layers = (
{
hints = (
{
horizontal = 1;
place = "{90, -20}";
target = down;
type = TopGhost;
},
{
horizontal = 1;
place = "{-160, 21}";
target = up;
type = BottomGhost;
}
);
layerId = "49B01604-4BAD-416A-BFCD-4FBC01F4BDB0";
paths = (
{
closed = 1;
nodes = (
"132 90 LINE",
"114 1 OFFCURVE",
"83 -64 OFFCURVE",
"30 -132 CURVE",
"79 -160 LINE",
"154 -113 OFFCURVE",
"206 -37 OFFCURVE",
"220 65 CURVE"
);
}
);
width = 300;
}
);
unicode = 002C;
},
{
color = 6;
glyphname = exclam;
lastChange = "2022-01-27 14:26:41 +0000";
layers = (
{
hints = (
{
place = "{90, 134}";
type = Stem;
},
{
place = "{112, 87}";
type = Stem;
},
{
horizontal = 1;
place = "{-12, 134}";
type = Stem;
},
{
horizontal = 1;
place = "{729, -20}";
target = down;
type = TopGhost;
}
);
layerId = "49B01604-4BAD-416A-BFCD-4FBC01F4BDB0";
paths = (
{
closed = 1;
nodes = (
"106 480 LINE",
"119 207 LINE",
"193 207 LINE",
"206 480 LINE",
"206 729 LINE",
"106 729 LINE"
);
},
{
closed = 1;
nodes = (
"90 19 OFFCURVE",
"121 -12 OFFCURVE",
"157 -12 CURVE SMOOTH",
"196 -12 OFFCURVE",
"224 15 OFFCURVE",
"224 55 CURVE SMOOTH",
"224 91 OFFCURVE",
"192 122 OFFCURVE",
"157 122 CURVE SMOOTH",
"115 122 OFFCURVE",
"90 96 OFFCURVE",
"90 55 CURVE SMOOTH"
);
}
);
width = 314;
}
);
unicode = 0021;
},
{
color = 6;
glyphname = exclamdown;
lastChange = "2022-01-27 14:26:41 +0000";
layers = (
{
associatedMasterId = "49B01604-4BAD-416A-BFCD-4FBC01F4BDB0";
layerId = "ED5A1C3A-03C2-44DF-8033-277772C61E36";
name = img;
width = 314;
},
{
hints = (
{
place = "{90, 134}";
type = Stem;
},
{
place = "{111, 87}";
type = Stem;
},
{
horizontal = 1;
place = "{398, 134}";
type = Stem;
},
{
horizontal = 1;
place = "{-220, 21}";
target = up;
type = BottomGhost;
}
);
layerId = "49B01604-4BAD-416A-BFCD-4FBC01F4BDB0";
paths = (
{
closed = 1;
nodes = (
"105 -220 LINE",
"205 -220 LINE",
"205 41 LINE",
"192 314 LINE",
"118 314 LINE",
"105 41 LINE"
);
},
{
closed = 1;
nodes = (
"90 429 OFFCURVE",
"121 398 OFFCURVE",
"157 398 CURVE SMOOTH",
"196 398 OFFCURVE",
"224 425 OFFCURVE",
"224 465 CURVE SMOOTH",
"224 501 OFFCURVE",
"192 532 OFFCURVE",
"157 532 CURVE SMOOTH",
"115 532 OFFCURVE",
"90 506 OFFCURVE",
"90 465 CURVE SMOOTH"
);
}
);
width = 314;
}
);
unicode = 00A1;
},
{
color = 6;
glyphname = question;
lastChange = "2022-01-27 14:26:41 +0000";
layers = (
{
hints = (
{
place = "{143, 134}";
type = Stem;
},
{
place = "{156, 88}";
type = Stem;
},
{
place = "{344, 97}";
type = Stem;
},
{
horizontal = 1;
place = "{-12, 134}";
type = Stem;
},
{
horizontal = 1;
place = "{670, 82}";
type = Stem;
}
);
layerId = "49B01604-4BAD-416A-BFCD-4FBC01F4BDB0";
paths = (
{
closed = 1;
nodes = (
"110 595 LINE",
"146 642 OFFCURVE",
"189 670 OFFCURVE",
"244 670 CURVE SMOOTH",
"305 670 OFFCURVE",
"344 629 OFFCURVE",
"344 582 CURVE SMOOTH",
"344 465 OFFCURVE",
"156 451 OFFCURVE",
"156 281 CURVE SMOOTH",
"156 258 OFFCURVE",
"159 229 OFFCURVE",
"166 207 CURVE",
"244 207 LINE",
"244 263 LINE SMOOTH",
"244 415 OFFCURVE",
"441 419 OFFCURVE",
"441 589 CURVE SMOOTH",
"441 679 OFFCURVE",
"363 752 OFFCURVE",
"252 752 CURVE SMOOTH",
"160 752 OFFCURVE",
"98 712 OFFCURVE",
"45 647 CURVE"
);
},
{
closed = 1;
nodes = (
"143 19 OFFCURVE",
"174 -12 OFFCURVE",
"210 -12 CURVE SMOOTH",
"249 -12 OFFCURVE",
"277 15 OFFCURVE",
"277 55 CURVE SMOOTH",
"277 91 OFFCURVE",
"245 122 OFFCURVE",
"210 122 CURVE SMOOTH",
"168 122 OFFCURVE",
"143 96 OFFCURVE",
"143 55 CURVE SMOOTH"
);
}
);
width = 491;
}
);
unicode = 003F;
},
{
color = 6;
glyphname = questiondown;
lastChange = "2022-01-27 14:26:41 +0000";
layers = (
{
associatedMasterId = "49B01604-4BAD-416A-BFCD-4FBC01F4BDB0";
layerId = "ED5A1C3A-03C2-44DF-8033-277772C61E36";
name = img;
width = 491;
},
{
hints = (
{
place = "{50, 97}";
type = Stem;
},
{
place = "{214, 134}";
type = Stem;
},
{
place = "{247, 88}";
type = Stem;
},
{
horizontal = 1;
place = "{-232, 82}";
type = Stem;
},
{
horizontal = 1;
place = "{398, 134}";
type = Stem;
}
);
layerId = "49B01604-4BAD-416A-BFCD-4FBC01F4BDB0";
paths = (
{
closed = 1;
nodes = (
"381 -75 LINE",
"345 -122 OFFCURVE",
"302 -150 OFFCURVE",
"247 -150 CURVE SMOOTH",
"186 -150 OFFCURVE",
"147 -109 OFFCURVE",
"147 -62 CURVE SMOOTH",
"147 55 OFFCURVE",
"335 69 OFFCURVE",
"335 239 CURVE SMOOTH",
"335 262 OFFCURVE",
"332 291 OFFCURVE",
"325 313 CURVE",
"247 313 LINE",
"247 257 LINE SMOOTH",
"247 105 OFFCURVE",
"50 101 OFFCURVE",
"50 -69 CURVE SMOOTH",
"50 -159 OFFCURVE",
"128 -232 OFFCURVE",
"239 -232 CURVE SMOOTH",
"331 -232 OFFCURVE",
"393 -192 OFFCURVE",
"446 -127 CURVE"
);
},
{
closed = 1;
nodes = (
"214 429 OFFCURVE",
"245 398 OFFCURVE",
"281 398 CURVE SMOOTH",
"320 398 OFFCURVE",
"348 425 OFFCURVE",
"348 465 CURVE SMOOTH",
"348 501 OFFCURVE",
"316 532 OFFCURVE",
"281 532 CURVE SMOOTH",
"239 532 OFFCURVE",
"214 506 OFFCURVE",
"214 465 CURVE SMOOTH"
);
}
);
width = 491;
}
);
unicode = 00BF;
},
{
color = 6;
glyphname = bullet;
lastChange = "2022-01-27 14:26:41 +0000";
layers = (
{
hints = (
{
horizontal = 1;
place = "{221, 21}";
target = up;
type = BottomGhost;
},
{
horizontal = 1;
place = "{489, -20}";
target = down;
type = TopGhost;
}
);
layerId = "49B01604-4BAD-416A-BFCD-4FBC01F4BDB0";
paths = (
{
closed = 1;
nodes = (
"309 221 OFFCURVE",
"359 273 OFFCURVE",
"359 355 CURVE SMOOTH",
"359 429 OFFCURVE",
"299 489 OFFCURVE",
"225 489 CURVE SMOOTH",
"141 489 OFFCURVE",
"91 437 OFFCURVE",
"91 355 CURVE SMOOTH",
"91 281 OFFCURVE",
"151 221 OFFCURVE",
"225 221 CURVE SMOOTH"
);
}
);
width = 450;
}
);
unicode = 2022;
},
{
color = 6;
glyphname = asterisk;
lastChange = "2022-01-27 14:26:41 +0000";
layers = (
{
hints = (
{
horizontal = 1;
place = "{418, 21}";
target = up;
type = BottomGhost;
},
{
horizontal = 1;
place = "{740, -20}";
target = down;
type = TopGhost;
},
{
place = "{190, 71}";
type = Stem;
}
);
layerId = "49B01604-4BAD-416A-BFCD-4FBC01F4BDB0";
paths = (
{
closed = 1;
nodes = (
"81 663 LINE",
"57 587 LINE",
"174 557 LINE",
"98 465 LINE",
"161 418 LINE",
"227 522 LINE",
"291 419 LINE",
"355 465 LINE",
"278 559 LINE",
"394 588 LINE",
"371 663 LINE",
"257 619 LINE",
"266 740 LINE",
"186 740 LINE",
"195 617 LINE"
);
}
);
width = 450;
}
);
unicode = 002A;
},
{
color = 6;
glyphname = numbersign;
lastChange = "2022-01-27 14:26:41 +0000";
layers = (
{
associatedMasterId = "49B01604-4BAD-416A-BFCD-4FBC01F4BDB0";
layerId = "ED5A1C3A-03C2-44DF-8033-277772C61E36";
name = img;
width = 750;
},
{
hints = (
{
horizontal = 1;
place = "{0, 197}";
type = Stem;
},
{
horizontal = 1;
place = "{124, 73}";
type = Stem;
},
{
horizontal = 1;
place = "{447, 73}";
type = Stem;
},
{
horizontal = 1;
place = "{447, 197}";
type = Stem;
}
);
layerId = "49B01604-4BAD-416A-BFCD-4FBC01F4BDB0";
paths = (
{
closed = 1;
nodes = (
"220 0 LINE",
"242 124 LINE",
"438 124 LINE",
"416 0 LINE",
"496 0 LINE",
"518 124 LINE",
"610 124 LINE",
"622 197 LINE",
"531 197 LINE",
"574 447 LINE",
"667 447 LINE",
"679 520 LINE",
"587 520 LINE",
"609 644 LINE",
"529 644 LINE",
"507 520 LINE",
"311 520 LINE",
"333 644 LINE",
"253 644 LINE",
"231 520 LINE",
"139 520 LINE",
"127 447 LINE",
"218 447 LINE",
"175 197 LINE",
"83 197 LINE",
"71 124 LINE",
"162 124 LINE",
"140 0 LINE"
);
},
{
closed = 1;
nodes = (
"298 447 LINE",
"494 447 LINE",
"451 197 LINE",
"255 197 LINE"
);
}
);
width = 750;
}
);
unicode = 0023;
},
{
color = 6;
glyphname = slash;
lastChange = "2022-01-27 14:26:41 +0000";
layers = (
{
hints = (
{
horizontal = 1;
place = "{-71, 21}";
target = up;
type = BottomGhost;
},
{
horizontal = 1;
place = "{773, -20}";
target = down;
type = TopGhost;
}
);
layerId = "49B01604-4BAD-416A-BFCD-4FBC01F4BDB0";
paths = (
{
closed = 1;
nodes = (
"121 -71 LINE",
"403 748 LINE",
"329 773 LINE",
"47 -46 LINE"
);
}
);
width = 450;
}
);
unicode = 002F;
},
{
color = 6;
glyphname = backslash;
lastChange = "2022-01-27 14:26:41 +0000";
layers = (
{
hints = (
{
horizontal = 1;
place = "{773, -20}";
target = down;
type = TopGhost;
},
{
horizontal = 1;
place = "{-71, 21}";
target = up;
type = BottomGhost;
}
);
layerId = "49B01604-4BAD-416A-BFCD-4FBC01F4BDB0";
paths = (
{
closed = 1;
nodes = (
"403 -46 LINE",
"121 773 LINE",
"47 748 LINE",
"329 -71 LINE"
);
}
);
width = 450;
}
);
unicode = 005C;
},
{
color = 6;
glyphname = hyphen;
lastChange = "2022-01-27 14:26:41 +0000";
layers = (
{
hints = (
{
horizontal = 1;
place = "{302, 82}";
type = Stem;
}
);
layerId = "49B01604-4BAD-416A-BFCD-4FBC01F4BDB0";
paths = (
{
closed = 1;
nodes = (
"470 302 LINE",
"470 384 LINE",
"130 384 LINE",
"130 302 LINE"
);
}
);
width = 600;
}
);
unicode = 002D;
},
{
color = 6;
glyphname = uni00AD;
lastChange = "2022-01-27 14:26:41 +0000";
layers = (
{
hints = (
{
horizontal = 1;
place = "{302, 82}";
type = Stem;
}
);
layerId = "49B01604-4BAD-416A-BFCD-4FBC01F4BDB0";
paths = (
{
closed = 1;
nodes = (
"470 302 LINE",
"470 384 LINE",
"130 384 LINE",
"130 302 LINE"
);
}
);
width = 600;
}
);
unicode = 00AD;
},
{
color = 6;
glyphname = endash;
lastChange = "2022-01-27 14:26:41 +0000";
layers = (
{
associatedMasterId = "49B01604-4BAD-416A-BFCD-4FBC01F4BDB0";
layerId = "ED5A1C3A-03C2-44DF-8033-277772C61E36";
name = img;
width = 600;
},
{
hints = (
{
horizontal = 1;
place = "{302, 82}";
type = Stem;
}
);
layerId = "49B01604-4BAD-416A-BFCD-4FBC01F4BDB0";
paths = (
{
closed = 1;
nodes = (
"530 302 LINE",
"530 384 LINE",
"70 384 LINE",
"70 302 LINE"
);
}
);
width = 600;
}
);
unicode = 2013;
},
{
color = 6;
glyphname = emdash;
lastChange = "2022-01-27 14:26:41 +0000";
layers = (
{
associatedMasterId = "49B01604-4BAD-416A-BFCD-4FBC01F4BDB0";
layerId = "ED5A1C3A-03C2-44DF-8033-277772C61E36";
name = img;
width = 750;
},
{
hints = (
{
horizontal = 1;
place = "{302, 82}";
type = Stem;
}
);
layerId = "49B01604-4BAD-416A-BFCD-4FBC01F4BDB0";
paths = (
{
closed = 1;
nodes = (
"675 302 LINE",
"675 384 LINE",
"75 384 LINE",
"75 302 LINE"
);
}
);
width = 750;
}
);
unicode = 2014;
},
{
color = 6;
glyphname = underscore;
lastChange = "2022-01-27 14:26:41 +0000";
layers = (
{
associatedMasterId = "49B01604-4BAD-416A-BFCD-4FBC01F4BDB0";
layerId = "ED5A1C3A-03C2-44DF-8033-277772C61E36";
name = img;
width = 600;
},
{
hints = (
{
horizontal = 1;
place = "{-115, 60}";
type = Stem;
}
);
layerId = "49B01604-4BAD-416A-BFCD-4FBC01F4BDB0";
paths = (
{
closed = 1;
nodes = (
"0 -115 LINE",
"600 -115 LINE",
"600 -55 LINE",
"0 -55 LINE"
);
}
);
width = 600;
}
);
unicode = 005F;
},
{
color = 6;
glyphname = parenleft;
lastChange = "2022-01-27 14:26:41 +0000";
layers = (
{
hints = (
{
horizontal = 1;
place = "{763, -20}";
target = down;
type = TopGhost;
},
{
horizontal = 1;
place = "{-123, 21}";
target = up;
type = BottomGhost;
},
{
place = "{57, 95}";
type = Stem;
}
);
layerId = "49B01604-4BAD-416A-BFCD-4FBC01F4BDB0";
paths = (
{
closed = 1;
nodes = (
"152 482 OFFCURVE",
"192 621 OFFCURVE",
"242 733 CURVE",
"189 763 LINE",
"107 623 OFFCURVE",
"57 486 OFFCURVE",
"57 320 CURVE SMOOTH",
"57 165 OFFCURVE",
"106 24 OFFCURVE",
"189 -123 CURVE",
"242 -93 LINE",
"192 22 OFFCURVE",
"152 158 OFFCURVE",
"152 320 CURVE SMOOTH"
);
}
);
width = 300;
}
);
unicode = 0028;
},
{
color = 6;
glyphname = parenright;
lastChange = "2022-01-27 14:26:41 +0000";
layers = (
{
hints = (
{
horizontal = 1;
place = "{-123, 21}";
target = up;
type = BottomGhost;
},
{
horizontal = 1;
place = "{763, -20}";
target = down;
type = TopGhost;
},
{
place = "{148, 95}";
type = Stem;
}
);
layerId = "49B01604-4BAD-416A-BFCD-4FBC01F4BDB0";
paths = (
{
closed = 1;
nodes = (
"148 158 OFFCURVE",
"108 22 OFFCURVE",
"58 -93 CURVE",
"111 -123 LINE",
"194 24 OFFCURVE",
"243 165 OFFCURVE",
"243 320 CURVE SMOOTH",
"243 486 OFFCURVE",
"193 623 OFFCURVE",
"111 763 CURVE",
"58 733 LINE",
"108 621 OFFCURVE",
"148 482 OFFCURVE",
"148 320 CURVE SMOOTH"
);
}
);
width = 300;
}
);
unicode = 0029;
},
{
color = 6;
glyphname = braceleft;
lastChange = "2022-01-27 14:26:41 +0000";
layers = (
{
hints = (
{
place = "{7, 183}";
type = Stem;
},
{
place = "{103, 87}";
type = Stem;
},
{
place = "{103, 190}";
type = Stem;
},
{
horizontal = 1;
place = "{-118, 21}";
target = up;
type = BottomGhost;
},
{
horizontal = 1;
place = "{758, -20}";
target = down;
type = TopGhost;
}
);
layerId = "49B01604-4BAD-416A-BFCD-4FBC01F4BDB0";
paths = (
{
closed = 1;
nodes = (
"7 288 LINE",
"83 278 OFFCURVE",
"103 241 OFFCURVE",
"103 118 CURVE SMOOTH",
"103 -47 OFFCURVE",
"164 -106 OFFCURVE",
"293 -118 CURVE",
"293 -61 LINE",
"218 -43 OFFCURVE",
"190 -8 OFFCURVE",
"190 114 CURVE SMOOTH",
"190 263 OFFCURVE",
"160 300 OFFCURVE",
"76 320 CURVE",
"160 340 OFFCURVE",
"190 377 OFFCURVE",
"190 526 CURVE SMOOTH",
"190 648 OFFCURVE",
"218 683 OFFCURVE",
"293 701 CURVE",
"293 758 LINE",
"164 746 OFFCURVE",
"103 687 OFFCURVE",
"103 522 CURVE SMOOTH",
"103 399 OFFCURVE",
"83 362 OFFCURVE",
"7 352 CURVE"
);
}
);
width = 300;
}
);
unicode = 007B;
},
{
color = 6;
glyphname = braceright;
lastChange = "2022-01-27 14:26:41 +0000";
layers = (
{
hints = (
{
place = "{7, 190}";
type = Stem;
},
{
place = "{110, 87}";
type = Stem;
},
{
place = "{110, 183}";
type = Stem;
},
{
horizontal = 1;
place = "{-118, 21}";
target = up;
type = BottomGhost;
},
{
horizontal = 1;
place = "{758, -20}";
target = down;
type = TopGhost;
}
);
layerId = "49B01604-4BAD-416A-BFCD-4FBC01F4BDB0";
paths = (
{
closed = 1;
nodes = (
"140 300 OFFCURVE",
"110 263 OFFCURVE",
"110 114 CURVE SMOOTH",
"110 -8 OFFCURVE",
"82 -43 OFFCURVE",
"7 -61 CURVE",
"7 -118 LINE",
"136 -106 OFFCURVE",
"197 -47 OFFCURVE",
"197 118 CURVE SMOOTH",
"197 241 OFFCURVE",
"217 278 OFFCURVE",
"293 288 CURVE",
"293 352 LINE",
"217 362 OFFCURVE",
"197 399 OFFCURVE",
"197 522 CURVE SMOOTH",
"197 687 OFFCURVE",
"136 746 OFFCURVE",
"7 758 CURVE",
"7 701 LINE",
"82 683 OFFCURVE",
"110 648 OFFCURVE",
"110 526 CURVE SMOOTH",
"110 377 OFFCURVE",
"140 340 OFFCURVE",
"224 320 CURVE"
);
}
);
width = 300;
}
);
unicode = 007D;
},
{
color = 6;
glyphname = bracketleft;
lastChange = "2022-01-27 14:26:41 +0000";
layers = (
{
hints = (
{
place = "{80, 80}";
type = Stem;
},
{
place = "{80, 175}";
type = Stem;
},
{
horizontal = 1;
place = "{-100, 75}";
type = Stem;
},
{
horizontal = 1;
place = "{665, 75}";
type = Stem;
}
);
layerId = "49B01604-4BAD-416A-BFCD-4FBC01F4BDB0";
paths = (
{
closed = 1;
nodes = (
"80 -100 LINE",
"255 -100 LINE",
"255 -25 LINE",
"160 -25 LINE",
"160 665 LINE",
"255 665 LINE",
"255 740 LINE",
"80 740 LINE"
);
}
);
width = 300;
}
);
unicode = 005B;
},
{
color = 6;
glyphname = bracketright;
lastChange = "2022-01-27 14:26:41 +0000";
layers = (
{
hints = (
{
place = "{45, 175}";
type = Stem;
},
{
place = "{140, 80}";
type = Stem;
},
{
horizontal = 1;
place = "{-100, 75}";
type = Stem;
},
{
horizontal = 1;
place = "{665, 75}";
type = Stem;
}
);
layerId = "49B01604-4BAD-416A-BFCD-4FBC01F4BDB0";
paths = (
{
closed = 1;
nodes = (
"220 -100 LINE",
"220 740 LINE",
"45 740 LINE",
"45 665 LINE",
"140 665 LINE",
"140 -25 LINE",
"45 -25 LINE",
"45 -100 LINE"
);
}
);
width = 300;
}
);
unicode = 005D;
},
{
color = 6;
glyphname = quotedblleft;
lastChange = "2022-01-27 14:26:41 +0000";
layers = (
{
hints = (
{
horizontal = 1;
place = "{532, 128}";
type = Stem;
},
{
horizontal = 1;
place = "{782, -20}";
target = down;
type = TopGhost;
},
{
place = "{40, 147}";
type = Stem;
},
{
place = "{224, 147}";
type = Stem;
}
);
layerId = "49B01604-4BAD-416A-BFCD-4FBC01F4BDB0";
paths = (
{
closed = 1;
nodes = (
"187 633 OFFCURVE",
"160 660 OFFCURVE",
"123 660 CURVE SMOOTH",
"116 660 OFFCURVE",
"109 659 OFFCURVE",
"102 656 CURVE",
"109 695 OFFCURVE",
"129 723 OFFCURVE",
"164 747 CURVE",
"141 782 LINE",
"77 748 OFFCURVE",
"40 682 OFFCURVE",
"40 621 CURVE SMOOTH",
"40 564 OFFCURVE",
"73 532 OFFCURVE",
"120 532 CURVE SMOOTH",
"159 532 OFFCURVE",
"187 558 OFFCURVE",
"187 596 CURVE SMOOTH"
);
},
{
closed = 1;
nodes = (
"371 633 OFFCURVE",
"344 660 OFFCURVE",
"307 660 CURVE SMOOTH",
"300 660 OFFCURVE",
"293 659 OFFCURVE",
"286 656 CURVE",
"293 695 OFFCURVE",
"313 723 OFFCURVE",
"348 747 CURVE",
"325 782 LINE",
"261 748 OFFCURVE",
"224 682 OFFCURVE",
"224 621 CURVE SMOOTH",
"224 564 OFFCURVE",
"257 532 OFFCURVE",
"304 532 CURVE SMOOTH",
"343 532 OFFCURVE",
"371 558 OFFCURVE",
"371 596 CURVE SMOOTH"
);
}
);
width = 411;
}
);
unicode = 201C;
},
{
color = 6;
glyphname = quotedblright;
lastChange = "2022-01-27 14:26:41 +0000";
layers = (
{
hints = (
{
horizontal = 1;
place = "{624, 128}";
type = Stem;
},
{
horizontal = 1;
place = "{502, 21}";
target = up;
type = BottomGhost;
},
{
place = "{40, 147}";
type = Stem;
},
{
place = "{224, 147}";
type = Stem;
}
);
layerId = "49B01604-4BAD-416A-BFCD-4FBC01F4BDB0";
paths = (
{
closed = 1;
nodes = (
"224 651 OFFCURVE",
"251 624 OFFCURVE",
"288 624 CURVE SMOOTH",
"295 624 OFFCURVE",
"302 625 OFFCURVE",
"309 628 CURVE",
"302 589 OFFCURVE",
"282 561 OFFCURVE",
"247 537 CURVE",
"270 502 LINE",
"334 536 OFFCURVE",
"371 602 OFFCURVE",
"371 663 CURVE SMOOTH",
"371 720 OFFCURVE",
"338 752 OFFCURVE",
"291 752 CURVE SMOOTH",
"252 752 OFFCURVE",
"224 726 OFFCURVE",
"224 688 CURVE SMOOTH"
);
},
{
closed = 1;
nodes = (
"40 651 OFFCURVE",
"67 624 OFFCURVE",
"104 624 CURVE SMOOTH",
"111 624 OFFCURVE",
"118 625 OFFCURVE",
"125 628 CURVE",
"118 589 OFFCURVE",
"98 561 OFFCURVE",
"63 537 CURVE",
"86 502 LINE",
"150 536 OFFCURVE",
"187 602 OFFCURVE",
"187 663 CURVE SMOOTH",
"187 720 OFFCURVE",
"154 752 OFFCURVE",
"107 752 CURVE SMOOTH",
"68 752 OFFCURVE",
"40 726 OFFCURVE",
"40 688 CURVE SMOOTH"
);
}
);
width = 411;
}
);
unicode = 201D;
},
{
color = 6;
glyphname = quoteleft;
lastChange = "2022-01-27 14:26:41 +0000";
layers = (
{
hints = (
{
horizontal = 1;
place = "{532, 128}";
type = Stem;
},
{
horizontal = 1;
place = "{782, -20}";
target = down;
type = TopGhost;
},
{
place = "{40, 147}";
type = Stem;
}
);
layerId = "49B01604-4BAD-416A-BFCD-4FBC01F4BDB0";
paths = (
{
closed = 1;
nodes = (
"187 633 OFFCURVE",
"160 660 OFFCURVE",
"123 660 CURVE SMOOTH",
"116 660 OFFCURVE",
"109 659 OFFCURVE",
"102 656 CURVE",
"109 695 OFFCURVE",
"129 723 OFFCURVE",
"164 747 CURVE",
"141 782 LINE",
"77 748 OFFCURVE",
"40 682 OFFCURVE",
"40 621 CURVE SMOOTH",
"40 564 OFFCURVE",
"73 532 OFFCURVE",
"120 532 CURVE SMOOTH",
"159 532 OFFCURVE",
"187 558 OFFCURVE",
"187 596 CURVE SMOOTH"
);
}
);
width = 227;
}
);
unicode = 2018;
},
{
color = 6;
glyphname = quoteright;
lastChange = "2022-01-27 14:26:41 +0000";
layers = (
{
hints = (
{
horizontal = 1;
place = "{624, 128}";
type = Stem;
},
{
horizontal = 1;
place = "{502, 21}";
target = up;
type = BottomGhost;
},
{
place = "{40, 147}";
type = Stem;
}
);
layerId = "49B01604-4BAD-416A-BFCD-4FBC01F4BDB0";
paths = (
{
closed = 1;
nodes = (
"40 651 OFFCURVE",
"67 624 OFFCURVE",
"104 624 CURVE SMOOTH",
"111 624 OFFCURVE",
"118 625 OFFCURVE",
"125 628 CURVE",
"118 589 OFFCURVE",
"98 561 OFFCURVE",
"63 537 CURVE",
"86 502 LINE",
"150 536 OFFCURVE",
"187 602 OFFCURVE",
"187 663 CURVE SMOOTH",
"187 720 OFFCURVE",
"154 752 OFFCURVE",
"107 752 CURVE SMOOTH",
"68 752 OFFCURVE",
"40 726 OFFCURVE",
"40 688 CURVE SMOOTH"
);
}
);
width = 227;
}
);
unicode = 2019;
},
{
color = 6;
glyphname = guilsinglleft;
lastChange = "2022-01-27 14:26:41 +0000";
layers = (
{
associatedMasterId = "49B01604-4BAD-416A-BFCD-4FBC01F4BDB0";
layerId = "ED5A1C3A-03C2-44DF-8033-277772C61E36";
name = img;
width = 366;
},
{
hints = (
{
horizontal = 1;
place = "{559, -20}";
target = down;
type = TopGhost;
},
{
horizontal = 1;
place = "{129, 21}";
target = up;
type = BottomGhost;
}
);
layerId = "49B01604-4BAD-416A-BFCD-4FBC01F4BDB0";
paths = (
{
closed = 1;
nodes = (
"276 178 LINE",
"134 344 LINE",
"276 510 LINE",
"218 559 LINE",
"60 365 LINE",
"60 323 LINE",
"218 129 LINE"
);
}
);
width = 366;
}
);
unicode = 2039;
},
{
color = 6;
glyphname = guilsinglright;
lastChange = "2022-01-27 14:26:41 +0000";
layers = (
{
associatedMasterId = "49B01604-4BAD-416A-BFCD-4FBC01F4BDB0";
layerId = "ED5A1C3A-03C2-44DF-8033-277772C61E36";
name = img;
width = 366;
},
{
hints = (
{
horizontal = 1;
place = "{129, 21}";
target = up;
type = BottomGhost;
},
{
horizontal = 1;
place = "{559, -20}";
target = down;
type = TopGhost;
}
);
layerId = "49B01604-4BAD-416A-BFCD-4FBC01F4BDB0";
paths = (
{
closed = 1;
nodes = (
"148 129 LINE",
"306 323 LINE",
"306 365 LINE",
"148 559 LINE",
"90 510 LINE",
"232 344 LINE",
"90 178 LINE"
);
}
);
width = 366;
}
);
unicode = 203A;
},
{
color = 6;
glyphname = quotedbl;
lastChange = "2022-01-27 14:26:41 +0000";
layers = (
{
associatedMasterId = "49B01604-4BAD-416A-BFCD-4FBC01F4BDB0";
layerId = "ED5A1C3A-03C2-44DF-8033-277772C61E36";
name = img;
width = 300;
},
{
hints = (
{
horizontal = 1;
place = "{477, 223}";
type = Stem;
},
{
place = "{30, 79}";
type = Stem;
},
{
place = "{191, 79}";
type = Stem;
}
);
layerId = "49B01604-4BAD-416A-BFCD-4FBC01F4BDB0";
paths = (
{
closed = 1;
nodes = (
"26 700 LINE",
"34 477 LINE",
"105 477 LINE",
"113 700 LINE"
);
},
{
closed = 1;
nodes = (
"187 700 LINE",
"195 477 LINE",
"266 477 LINE",
"274 700 LINE"
);
}
);
width = 300;
}
);
unicode = 0022;
},
{
color = 6;
glyphname = quotesingle;
lastChange = "2022-01-27 14:26:41 +0000";
layers = (
{
associatedMasterId = "49B01604-4BAD-416A-BFCD-4FBC01F4BDB0";
layerId = "ED5A1C3A-03C2-44DF-8033-277772C61E36";
name = img;
width = 150;
},
{
hints = (
{
horizontal = 1;
place = "{478, 222}";
type = Stem;
},
{
place = "{36, 79}";
type = Stem;
}
);
layerId = "49B01604-4BAD-416A-BFCD-4FBC01F4BDB0";
paths = (
{
closed = 1;
nodes = (
"32 700 LINE",
"40 478 LINE",
"111 478 LINE",
"119 700 LINE"
);
}
);
width = 150;
}
);
unicode = 0027;
},
{
color = 6;
glyphname = at;
lastChange = "2022-01-27 14:26:41 +0000";
layers = (
{
associatedMasterId = "49B01604-4BAD-416A-BFCD-4FBC01F4BDB0";
layerId = "ED5A1C3A-03C2-44DF-8033-277772C61E36";
name = img;
width = 1050;
},
{
hints = (
{
place = "{72, 92}";
type = Stem;
},
{
place = "{282, 86}";
type = Stem;
},
{
place = "{885, 92}";
type = Stem;
},
{
horizontal = 1;
place = "{-232, 80}";
type = Stem;
},
{
horizontal = 1;
place = "{-12, 64}";
type = Stem;
},
{
horizontal = 1;
place = "{0, 74}";
type = Stem;
},
{
horizontal = 1;
place = "{412, 70}";
type = Stem;
},
{
horizontal = 1;
place = "{632, 80}";
type = Stem;
}
);
layerId = "49B01604-4BAD-416A-BFCD-4FBC01F4BDB0";
paths = (
{
closed = 1;
nodes = (
"880 -12 OFFCURVE",
"977 124 OFFCURVE",
"977 316 CURVE SMOOTH",
"977 540 OFFCURVE",
"809 712 OFFCURVE",
"558 712 CURVE SMOOTH",
"263 712 OFFCURVE",
"72 478 OFFCURVE",
"72 212 CURVE SMOOTH",
"72 -75 OFFCURVE",
"258 -232 OFFCURVE",
"514 -232 CURVE SMOOTH",
"626 -232 OFFCURVE",
"729 -203 OFFCURVE",
"798 -166 CURVE",
"769 -90 LINE",
"698 -125 OFFCURVE",
"621 -152 OFFCURVE",
"520 -152 CURVE SMOOTH",
"317 -152 OFFCURVE",
"164 -17 OFFCURVE",
"164 215 CURVE SMOOTH",
"164 420 OFFCURVE",
"303 632 OFFCURVE",
"552 632 CURVE SMOOTH",
"747 632 OFFCURVE",
"885 496 OFFCURVE",
"885 311 CURVE SMOOTH",
"885 159 OFFCURVE",
"824 52 OFFCURVE",
"754 52 CURVE SMOOTH",
"717 52 OFFCURVE",
"702 75 OFFCURVE",
"702 113 CURVE SMOOTH",
"702 122 OFFCURVE",
"703 133 OFFCURVE",
"705 148 CURVE SMOOTH",
"746 475 LINE",
"667 475 LINE",
"658 408 LINE",
"630 451 OFFCURVE",
"581 482 OFFCURVE",
"512 482 CURVE SMOOTH",
"384 482 OFFCURVE",
"282 366 OFFCURVE",
"282 214 CURVE SMOOTH",
"282 79 OFFCURVE",
"370 0 OFFCURVE",
"471 0 CURVE SMOOTH",
"538 0 OFFCURVE",
"591 38 OFFCURVE",
"628 83 CURVE",
"636 25 OFFCURVE",
"679 -12 OFFCURVE",
"746 -12 CURVE SMOOTH"
);
},
{
closed = 1;
nodes = (
"426 74 OFFCURVE",
"368 126 OFFCURVE",
"368 227 CURVE SMOOTH",
"368 336 OFFCURVE",
"441 412 OFFCURVE",
"522 412 CURVE SMOOTH",
"576 412 OFFCURVE",
"621 382 OFFCURVE",
"647 340 CURVE",
"623 142 LINE",
"597 109 OFFCURVE",
"550 74 OFFCURVE",
"498 74 CURVE SMOOTH"
);
}
);
width = 1050;
}
);
unicode = 0040;
},
{
color = 6;
glyphname = ampersand;
lastChange = "2022-01-27 14:26:41 +0000";
layers = (
{
associatedMasterId = "49B01604-4BAD-416A-BFCD-4FBC01F4BDB0";
layerId = "ED5A1C3A-03C2-44DF-8033-277772C61E36";
name = img;
width = 737;
},
{
hints = (
{
place = "{90, 95}";
type = Stem;
},
{
place = "{154, 83}";
type = Stem;
},
{
place = "{417, 83}";
type = Stem;
},
{
horizontal = 1;
place = "{-12, 82}";
type = Stem;
},
{
horizontal = 1;
place = "{339, 71}";
type = Stem;
},
{
horizontal = 1;
place = "{640, 72}";
type = Stem;
}
);
layerId = "49B01604-4BAD-416A-BFCD-4FBC01F4BDB0";
paths = (
{
closed = 1;
nodes = (
"470 147 LINE",
"432 99 OFFCURVE",
"381 70 OFFCURVE",
"324 70 CURVE SMOOTH",
"243 70 OFFCURVE",
"185 122 OFFCURVE",
"185 191 CURVE SMOOTH",
"185 253 OFFCURVE",
"214 295 OFFCURVE",
"273 336 CURVE"
);
},
{
closed = 1;
nodes = (
"237 599 OFFCURVE",
"276 640 OFFCURVE",
"329 640 CURVE SMOOTH",
"382 640 OFFCURVE",
"417 601 OFFCURVE",
"417 553 CURVE SMOOTH",
"417 498 OFFCURVE",
"385 459 OFFCURVE",
"302 416 CURVE",
"257 460 OFFCURVE",
"237 500 OFFCURVE",
"237 545 CURVE SMOOTH"
);
},
{
closed = 1;
nodes = (
"129 329 OFFCURVE",
"90 262 OFFCURVE",
"90 178 CURVE SMOOTH",
"90 63 OFFCURVE",
"191 -12 OFFCURVE",
"310 -12 CURVE SMOOTH",
"409 -12 OFFCURVE",
"471 30 OFFCURVE",
"525 92 CURVE",
"631 -8 LINE",
"687 52 LINE",
"569 160 LINE",
"615 229 OFFCURVE",
"590 339 OFFCURVE",
"673 339 CURVE",
"651 410 LINE",
"523 410 OFFCURVE",
"553 288 OFFCURVE",
"511 212 CURVE",
"346 369 LINE",
"452 421 OFFCURVE",
"500 477 OFFCURVE",
"500 562 CURVE SMOOTH",
"500 644 OFFCURVE",
"438 712 OFFCURVE",
"331 712 CURVE SMOOTH",
"222 712 OFFCURVE",
"154 639 OFFCURVE",
"154 544 CURVE SMOOTH",
"154 481 OFFCURVE",
"178 438 OFFCURVE",
"228 384 CURVE"
);
}
);
width = 737;
}
);
unicode = 0026;
},
{
color = 6;
glyphname = paragraph;
lastChange = "2022-01-27 14:26:41 +0000";
layers = (
{
associatedMasterId = "49B01604-4BAD-416A-BFCD-4FBC01F4BDB0";
layerId = "ED5A1C3A-03C2-44DF-8033-277772C61E36";
name = img;
width = 750;
},
{
hints = (
{
horizontal = 1;
place = "{397, 77}";
type = Stem;
},
{
horizontal = 1;
place = "{702, 77}";
type = Stem;
},
{
horizontal = 1;
place = "{-64, 21}";
target = up;
type = BottomGhost;
},
{
place = "{106, 90}";
type = Stem;
},
{
place = "{425, 78}";
type = Stem;
},
{
place = "{565, 78}";
type = Stem;
}
);
layerId = "49B01604-4BAD-416A-BFCD-4FBC01F4BDB0";
paths = (
{
closed = 1;
nodes = (
"503 -64 LINE",
"503 770 LINE",
"456 775 OFFCURVE",
"408 779 OFFCURVE",
"347 779 CURVE SMOOTH",
"193 779 OFFCURVE",
"106 694 OFFCURVE",
"106 581 CURVE SMOOTH",
"106 467 OFFCURVE",
"199 397 OFFCURVE",
"351 397 CURVE SMOOTH",
"380 397 OFFCURVE",
"405 399 OFFCURVE",
"425 402 CURVE",
"425 -64 LINE"
);
},
{
closed = 1;
nodes = (
"643 -64 LINE",
"643 770 LINE",
"565 770 LINE",
"565 -64 LINE"
);
},
{
closed = 1;
nodes = (
"255 474 OFFCURVE",
"196 520 OFFCURVE",
"196 586 CURVE SMOOTH",
"196 650 OFFCURVE",
"241 702 OFFCURVE",
"342 702 CURVE SMOOTH",
"372 702 OFFCURVE",
"399 700 OFFCURVE",
"425 698 CURVE",
"425 479 LINE",
"405 476 OFFCURVE",
"381 474 OFFCURVE",
"346 474 CURVE SMOOTH"
);
}
);
width = 750;
}
);
unicode = 00B6;
},
{
color = 6;
glyphname = section;
lastChange = "2022-01-27 14:26:41 +0000";
layers = (
{
associatedMasterId = "49B01604-4BAD-416A-BFCD-4FBC01F4BDB0";
layerId = "ED5A1C3A-03C2-44DF-8033-277772C61E36";
name = img;
width = 600;
},
{
hints = (
{
place = "{114, 83}";
type = Stem;
},
{
place = "{132, 82}";
type = Stem;
},
{
place = "{390, 85}";
type = Stem;
},
{
place = "{408, 83}";
type = Stem;
},
{
horizontal = 1;
place = "{-72, 72}";
type = Stem;
},
{
horizontal = 1;
place = "{666, 67}";
type = Stem;
}
);
layerId = "49B01604-4BAD-416A-BFCD-4FBC01F4BDB0";
paths = (
{
closed = 1;
nodes = (
"230 254 OFFCURVE",
"197 288 OFFCURVE",
"197 332 CURVE SMOOTH",
"197 385 OFFCURVE",
"243 421 OFFCURVE",
"307 440 CURVE",
"380 413 OFFCURVE",
"408 379 OFFCURVE",
"408 335 CURVE SMOOTH",
"408 282 OFFCURVE",
"364 246 OFFCURVE",
"303 227 CURVE"
);
},
{
closed = 1;
nodes = (
"443 227 OFFCURVE",
"491 274 OFFCURVE",
"491 344 CURVE SMOOTH",
"491 410 OFFCURVE",
"450 455 OFFCURVE",
"350 498 CURVE SMOOTH",
"235 547 OFFCURVE",
"214 568 OFFCURVE",
"214 604 CURVE SMOOTH",
"214 633 OFFCURVE",
"248 666 OFFCURVE",
"319 666 CURVE SMOOTH",
"366 666 OFFCURVE",
"413 646 OFFCURVE",
"442 627 CURVE",
"480 689 LINE",
"438 714 OFFCURVE",
"378 733 OFFCURVE",
"321 733 CURVE SMOOTH",
"206 733 OFFCURVE",
"132 675 OFFCURVE",
"132 597 CURVE SMOOTH",
"132 539 OFFCURVE",
"168 503 OFFCURVE",
"241 470 CURVE",
"164 442 OFFCURVE",
"114 390 OFFCURVE",
"114 323 CURVE SMOOTH",
"114 251 OFFCURVE",
"157 211 OFFCURVE",
"269 163 CURVE SMOOTH",
"366 121 OFFCURVE",
"390 92 OFFCURVE",
"390 59 CURVE SMOOTH",
"390 22 OFFCURVE",
"349 0 OFFCURVE",
"282 0 CURVE SMOOTH",
"229 0 OFFCURVE",
"183 15 OFFCURVE",
"144 43 CURVE",
"108 -25 LINE",
"156 -57 OFFCURVE",
"212 -72 OFFCURVE",
"280 -72 CURVE SMOOTH",
"396 -72 OFFCURVE",
"475 -18 OFFCURVE",
"475 66 CURVE SMOOTH",
"475 121 OFFCURVE",
"441 162 OFFCURVE",
"365 195 CURVE"
);
}
);
width = 600;
}
);
unicode = 00A7;
},
{
color = 6;
glyphname = copyright;
lastChange = "2022-01-27 14:26:41 +0000";
layers = (
{
associatedMasterId = "49B01604-4BAD-416A-BFCD-4FBC01F4BDB0";
layerId = "ED5A1C3A-03C2-44DF-8033-277772C61E36";
name = img;
width = 900;
},
{
hints = (
{
horizontal = 1;
place = "{-12, 63}";
type = Stem;
},
{
horizontal = 1;
place = "{126, 77}";
type = Stem;
},
{
horizontal = 1;
place = "{501, 77}";
type = Stem;
},
{
horizontal = 1;
place = "{649, 63}";
type = Stem;
},
{
place = "{101, 73}";
type = Stem;
},
{
place = "{268, 85}";
type = Stem;
},
{
place = "{726, 73}";
type = Stem;
}
);
layerId = "49B01604-4BAD-416A-BFCD-4FBC01F4BDB0";
paths = (
{
closed = 1;
nodes = (
"353 447 OFFCURVE",
"402 501 OFFCURVE",
"470 501 CURVE SMOOTH",
"503 501 OFFCURVE",
"531 491 OFFCURVE",
"559 477 CURVE",
"587 551 LINE",
"551 568 OFFCURVE",
"513 578 OFFCURVE",
"471 578 CURVE SMOOTH",
"348 578 OFFCURVE",
"268 484 OFFCURVE",
"268 350 CURVE SMOOTH",
"268 212 OFFCURVE",
"348 126 OFFCURVE",
"463 126 CURVE SMOOTH",
"515 126 OFFCURVE",
"558 140 OFFCURVE",
"594 161 CURVE",
"568 234 LINE",
"535 215 OFFCURVE",
"506 203 OFFCURVE",
"470 203 CURVE SMOOTH",
"402 203 OFFCURVE",
"353 262 OFFCURVE",
"353 353 CURVE SMOOTH"
);
},
{
closed = 1;
nodes = (
"272 51 OFFCURVE",
"174 175 OFFCURVE",
"174 350 CURVE SMOOTH",
"174 524 OFFCURVE",
"271 649 OFFCURVE",
"450 649 CURVE SMOOTH",
"628 649 OFFCURVE",
"726 525 OFFCURVE",
"726 350 CURVE SMOOTH",
"726 176 OFFCURVE",
"629 51 OFFCURVE",
"450 51 CURVE SMOOTH"
);
},
{
closed = 1;
nodes = (
"671 -12 OFFCURVE",
"799 149 OFFCURVE",
"799 350 CURVE SMOOTH",
"799 558 OFFCURVE",
"675 712 OFFCURVE",
"450 712 CURVE SMOOTH",
"228 712 OFFCURVE",
"101 551 OFFCURVE",
"101 350 CURVE SMOOTH",
"101 142 OFFCURVE",
"224 -12 OFFCURVE",
"449 -12 CURVE SMOOTH"
);
}
);
width = 900;
}
);
unicode = 00A9;
},
{
color = 6;
glyphname = registered;
lastChange = "2022-01-27 14:26:41 +0000";
layers = (
{
associatedMasterId = "49B01604-4BAD-416A-BFCD-4FBC01F4BDB0";
layerId = "ED5A1C3A-03C2-44DF-8033-277772C61E36";
name = img;
width = 900;
},
{
hints = (
{
horizontal = 1;
place = "{-12, 63}";
type = Stem;
},
{
horizontal = 1;
place = "{320, 71}";
type = Stem;
},
{
horizontal = 1;
place = "{502, 71}";
type = Stem;
},
{
horizontal = 1;
place = "{649, 63}";
type = Stem;
},
{
place = "{101, 73}";
type = Stem;
},
{
place = "{317, 79}";
type = Stem;
},
{
place = "{527, 78}";
type = Stem;
},
{
place = "{726, 73}";
type = Stem;
}
);
layerId = "49B01604-4BAD-416A-BFCD-4FBC01F4BDB0";
paths = (
{
closed = 1;
nodes = (
"671 -12 OFFCURVE",
"799 149 OFFCURVE",
"799 350 CURVE SMOOTH",
"799 558 OFFCURVE",
"675 712 OFFCURVE",
"450 712 CURVE SMOOTH",
"228 712 OFFCURVE",
"101 551 OFFCURVE",
"101 350 CURVE SMOOTH",
"101 142 OFFCURVE",
"224 -12 OFFCURVE",
"449 -12 CURVE SMOOTH"
);
},
{
closed = 1;
nodes = (
"272 51 OFFCURVE",
"174 175 OFFCURVE",
"174 350 CURVE SMOOTH",
"174 524 OFFCURVE",
"271 649 OFFCURVE",
"450 649 CURVE SMOOTH",
"628 649 OFFCURVE",
"726 525 OFFCURVE",
"726 350 CURVE SMOOTH",
"726 176 OFFCURVE",
"629 51 OFFCURVE",
"450 51 CURVE SMOOTH"
);
},
{
closed = 1;
nodes = (
"630 167 LINE",
"582 272 LINE SMOOTH",
"564 311 OFFCURVE",
"545 334 OFFCURVE",
"514 348 CURVE",
"574 367 OFFCURVE",
"605 399 OFFCURVE",
"605 454 CURVE SMOOTH",
"605 533 OFFCURVE",
"542 573 OFFCURVE",
"437 573 CURVE SMOOTH",
"386 573 OFFCURVE",
"353 570 OFFCURVE",
"317 566 CURVE",
"317 143 LINE",
"396 143 LINE",
"396 320 LINE",
"447 319 OFFCURVE",
"481 298 OFFCURVE",
"502 253 CURVE SMOOTH",
"556 133 LINE"
);
},
{
closed = 1;
nodes = (
"498 502 OFFCURVE",
"527 480 OFFCURVE",
"527 449 CURVE SMOOTH",
"527 411 OFFCURVE",
"494 391 OFFCURVE",
"446 391 CURVE SMOOTH",
"396 391 LINE",
"396 500 LINE",
"411 501 OFFCURVE",
"428 502 OFFCURVE",
"446 502 CURVE SMOOTH"
);
}
);
width = 900;
}
);
unicode = 00AE;
},
{
color = 6;
glyphname = degree;
lastChange = "2022-01-27 14:26:41 +0000";
layers = (
{
associatedMasterId = "49B01604-4BAD-416A-BFCD-4FBC01F4BDB0";
layerId = "ED5A1C3A-03C2-44DF-8033-277772C61E36";
name = img;
width = 450;
},
{
hints = (
{
horizontal = 1;
place = "{458, 71}";
type = Stem;
},
{
horizontal = 1;
place = "{669, 71}";
type = Stem;
},
{
place = "{50, 79}";
type = Stem;
},
{
place = "{261, 79}";
type = Stem;
}
);
layerId = "49B01604-4BAD-416A-BFCD-4FBC01F4BDB0";
paths = (
{
closed = 1;
nodes = (
"129 647 OFFCURVE",
"155 669 OFFCURVE",
"195 669 CURVE SMOOTH",
"235 669 OFFCURVE",
"261 639 OFFCURVE",
"261 599 CURVE SMOOTH",
"261 554 OFFCURVE",
"235 529 OFFCURVE",
"195 529 CURVE SMOOTH",
"155 529 OFFCURVE",
"129 559 OFFCURVE",
"129 599 CURVE SMOOTH"
);
},
{
closed = 1;
nodes = (
"50 518 OFFCURVE",
"116 458 OFFCURVE",
"195 458 CURVE SMOOTH",
"274 458 OFFCURVE",
"340 518 OFFCURVE",
"340 599 CURVE SMOOTH",
"340 680 OFFCURVE",
"274 740 OFFCURVE",
"195 740 CURVE SMOOTH",
"116 740 OFFCURVE",
"50 680 OFFCURVE",
"50 599 CURVE SMOOTH"
);
}
);
width = 450;
}
);
unicode = 00B0;
},
{
color = 6;
glyphname = bar;
lastChange = "2022-01-27 14:26:41 +0000";
layers = (
{
hints = (
{
horizontal = 1;
place = "{-100, 21}";
target = up;
type = BottomGhost;
},
{
horizontal = 1;
place = "{770, -20}";
target = down;
type = TopGhost;
},
{
place = "{111, 78}";
type = Stem;
}
);
layerId = "49B01604-4BAD-416A-BFCD-4FBC01F4BDB0";
paths = (
{
closed = 1;
nodes = (
"189 -100 LINE",
"189 770 LINE",
"111 770 LINE",
"111 -100 LINE"
);
}
);
width = 300;
}
);
unicode = 007C;
},
{
color = 6;
glyphname = brokenbar;
lastChange = "2022-01-27 14:26:41 +0000";
layers = (
{
associatedMasterId = "49B01604-4BAD-416A-BFCD-4FBC01F4BDB0";
layerId = "ED5A1C3A-03C2-44DF-8033-277772C61E36";
name = img;
width = 300;
},
{
hints = (
{
horizontal = 1;
place = "{-100, 21}";
target = up;
type = BottomGhost;
},
{
horizontal = 1;
place = "{770, -20}";
target = down;
type = TopGhost;
},
{
place = "{111, 78}";
type = Stem;
}
);
layerId = "49B01604-4BAD-416A-BFCD-4FBC01F4BDB0";
paths = (
{
closed = 1;
nodes = (
"111 -100 LINE",
"189 -100 LINE",
"189 257 LINE",
"111 257 LINE"
);
},
{
closed = 1;
nodes = (
"111 422 LINE",
"189 422 LINE",
"189 770 LINE",
"111 770 LINE"
);
}
);
width = 300;
}
);
unicode = 00A6;
},
{
color = 6;
glyphname = Euro;
lastChange = "2022-01-27 14:26:41 +0000";
layers = (
{
associatedMasterId = "49B01604-4BAD-416A-BFCD-4FBC01F4BDB0";
layerId = "ED5A1C3A-03C2-44DF-8033-277772C61E36";
name = img;
width = 600;
},
{
hints = (
{
horizontal = 1;
place = "{-12, 78}";
type = Stem;
},
{
horizontal = 1;
place = "{235, 73}";
type = Stem;
},
{
horizontal = 1;
place = "{375, 73}";
type = Stem;
},
{
horizontal = 1;
place = "{634, 78}";
type = Stem;
},
{
place = "{110, 92}";
type = Stem;
}
);
layerId = "49B01604-4BAD-416A-BFCD-4FBC01F4BDB0";
paths = (
{
closed = 1;
nodes = (
"441 235 LINE",
"441 308 LINE",
"202 308 LINE",
"202 375 LINE",
"461 375 LINE",
"461 448 LINE",
"206 448 LINE",
"230 566 OFFCURVE",
"302 634 OFFCURVE",
"409 634 CURVE SMOOTH",
"459 634 OFFCURVE",
"503 620 OFFCURVE",
"544 597 CURVE",
"569 673 LINE",
"526 695 OFFCURVE",
"474 712 OFFCURVE",
"406 712 CURVE SMOOTH",
"246 712 OFFCURVE",
"145 607 OFFCURVE",
"116 448 CURVE",
"23 448 LINE",
"23 375 LINE",
"110 375 LINE",
"110 308 LINE",
"23 308 LINE",
"23 235 LINE",
"117 235 LINE",
"148 81 OFFCURVE",
"246 -12 OFFCURVE",
"390 -12 CURVE SMOOTH",
"474 -12 OFFCURVE",
"541 15 OFFCURVE",
"576 37 CURVE",
"545 110 LINE",
"505 87 OFFCURVE",
"464 66 OFFCURVE",
"399 66 CURVE SMOOTH",
"308 66 OFFCURVE",
"240 131 OFFCURVE",
"212 235 CURVE"
);
}
);
width = 600;
}
);
unicode = 20AC;
},
{
color = 6;
glyphname = cent;
lastChange = "2022-01-27 14:26:41 +0000";
layers = (
{
associatedMasterId = "49B01604-4BAD-416A-BFCD-4FBC01F4BDB0";
layerId = "ED5A1C3A-03C2-44DF-8033-277772C61E36";
name = img;
width = 450;
},
{
hints = (
{
horizontal = 1;
place = "{-95, 191}";
type = Stem;
},
{
horizontal = 1;
place = "{480, 186}";
type = Stem;
},
{
place = "{34, 92}";
type = Stem;
},
{
place = "{243, 80}";
type = Stem;
}
);
layerId = "49B01604-4BAD-416A-BFCD-4FBC01F4BDB0";
paths = (
{
closed = 1;
nodes = (
"428 529 LINE",
"395 545 OFFCURVE",
"361 555 OFFCURVE",
"319 559 CURVE",
"327 666 LINE",
"239 666 LINE",
"247 557 LINE",
"115 539 OFFCURVE",
"34 425 OFFCURVE",
"34 288 CURVE SMOOTH",
"34 139 OFFCURVE",
"116 33 OFFCURVE",
"247 18 CURVE",
"239 -95 LINE",
"327 -95 LINE",
"318 17 LINE",
"365 22 OFFCURVE",
"403 35 OFFCURVE",
"436 53 CURVE",
"408 129 LINE",
"367 107 OFFCURVE",
"335 96 OFFCURVE",
"285 96 CURVE SMOOTH",
"190 96 OFFCURVE",
"126 182 OFFCURVE",
"126 290 CURVE SMOOTH",
"126 409 OFFCURVE",
"197 480 OFFCURVE",
"291 480 CURVE SMOOTH",
"332 480 OFFCURVE",
"363 472 OFFCURVE",
"401 453 CURVE"
);
}
);
width = 450;
}
);
unicode = 00A2;
},
{
color = 6;
glyphname = currency;
lastChange = "2022-01-27 14:26:41 +0000";
layers = (
{
associatedMasterId = "49B01604-4BAD-416A-BFCD-4FBC01F4BDB0";
layerId = "ED5A1C3A-03C2-44DF-8033-277772C61E36";
name = img;
width = 600;
},
{
hints = (
{
horizontal = 1;
place = "{144, 72}";
type = Stem;
},
{
horizontal = 1;
place = "{460, 72}";
type = Stem;
},
{
horizontal = 1;
place = "{586, -20}";
target = down;
type = TopGhost;
},
{
horizontal = 1;
place = "{90, 21}";
target = up;
type = BottomGhost;
},
{
place = "{105, 83}";
type = Stem;
},
{
place = "{412, 83}";
type = Stem;
}
);
layerId = "49B01604-4BAD-416A-BFCD-4FBC01F4BDB0";
paths = (
{
closed = 1;
nodes = (
"267 532 OFFCURVE",
"237 525 OFFCURVE",
"210 512 CURVE",
"155 586 LINE",
"92 533 LINE",
"150 467 LINE",
"122 434 OFFCURVE",
"105 390 OFFCURVE",
"105 338 CURVE SMOOTH",
"105 287 OFFCURVE",
"122 243 OFFCURVE",
"150 209 CURVE",
"92 143 LINE",
"155 90 LINE",
"210 163 LINE",
"237 151 OFFCURVE",
"267 144 OFFCURVE",
"300 144 CURVE SMOOTH",
"333 144 OFFCURVE",
"363 151 OFFCURVE",
"390 164 CURVE",
"445 90 LINE",
"508 143 LINE",
"450 209 LINE",
"478 242 OFFCURVE",
"495 286 OFFCURVE",
"495 338 CURVE SMOOTH",
"495 389 OFFCURVE",
"478 433 OFFCURVE",
"450 467 CURVE",
"508 533 LINE",
"445 586 LINE",
"390 513 LINE",
"363 525 OFFCURVE",
"333 532 OFFCURVE",
"300 532 CURVE SMOOTH"
);
},
{
closed = 1;
nodes = (
"236 216 OFFCURVE",
"188 272 OFFCURVE",
"188 339 CURVE SMOOTH",
"188 412 OFFCURVE",
"229 460 OFFCURVE",
"300 460 CURVE SMOOTH",
"364 460 OFFCURVE",
"412 404 OFFCURVE",
"412 337 CURVE SMOOTH",
"412 264 OFFCURVE",
"371 216 OFFCURVE",
"300 216 CURVE SMOOTH"
);
}
);
width = 600;
}
);
unicode = 00A4;
},
{
color = 6;
glyphname = dollar;
lastChange = "2022-01-27 14:26:41 +0000";
layers = (
{
associatedMasterId = "49B01604-4BAD-416A-BFCD-4FBC01F4BDB0";
layerId = "ED5A1C3A-03C2-44DF-8033-277772C61E36";
name = img;
width = 600;
},
{
hints = (
{
place = "{98, 86}";
type = Stem;
},
{
place = "{255, 79}";
type = Stem;
},
{
place = "{277, 79}";
type = Stem;
},
{
place = "{424, 90}";
type = Stem;
},
{
horizontal = 1;
place = "{-95, 188}";
type = Stem;
},
{
horizontal = 1;
place = "{17, 76}";
type = Stem;
},
{
horizontal = 1;
place = "{608, 73}";
type = Stem;
},
{
horizontal = 1;
place = "{608, 187}";
type = Stem;
}
);
layerId = "49B01604-4BAD-416A-BFCD-4FBC01F4BDB0";
paths = (
{
closed = 1;
nodes = (
"66 82 LINE",
"110 46 OFFCURVE",
"180 22 OFFCURVE",
"259 17 CURVE",
"251 -95 LINE",
"339 -95 LINE",
"330 20 LINE",
"437 34 OFFCURVE",
"514 99 OFFCURVE",
"514 206 CURVE SMOOTH",
"514 293 OFFCURVE",
"468 351 OFFCURVE",
"324 404 CURVE SMOOTH",
"204 448 OFFCURVE",
"184 474 OFFCURVE",
"184 522 CURVE SMOOTH",
"184 573 OFFCURVE",
"234 608 OFFCURVE",
"315 608 CURVE SMOOTH",
"376 608 OFFCURVE",
"434 588 OFFCURVE",
"476 564 CURVE",
"508 639 LINE",
"460 662 OFFCURVE",
"411 677 OFFCURVE",
"352 681 CURVE",
"361 795 LINE",
"273 795 LINE",
"281 681 LINE",
"164 670 OFFCURVE",
"98 601 OFFCURVE",
"98 517 CURVE SMOOTH",
"98 425 OFFCURVE",
"144 377 OFFCURVE",
"277 326 CURVE SMOOTH",
"400 279 OFFCURVE",
"424 248 OFFCURVE",
"424 195 CURVE SMOOTH",
"424 133 OFFCURVE",
"369 93 OFFCURVE",
"281 93 CURVE SMOOTH",
"207 93 OFFCURVE",
"154 119 OFFCURVE",
"110 156 CURVE"
);
}
);
width = 600;
}
);
unicode = 0024;
},
{
color = 6;
glyphname = sterling;
lastChange = "2022-01-27 14:26:41 +0000";
layers = (
{
associatedMasterId = "49B01604-4BAD-416A-BFCD-4FBC01F4BDB0";
layerId = "ED5A1C3A-03C2-44DF-8033-277772C61E36";
name = img;
width = 600;
},
{
hints = (
{
horizontal = 1;
place = "{0, 83}";
type = Stem;
},
{
horizontal = 1;
place = "{321, 76}";
type = Stem;
},
{
horizontal = 1;
place = "{636, 76}";
type = Stem;
},
{
place = "{162, 85}";
type = Stem;
}
);
layerId = "49B01604-4BAD-416A-BFCD-4FBC01F4BDB0";
paths = (
{
closed = 1;
nodes = (
"514 83 LINE",
"182 83 LINE",
"222 139 OFFCURVE",
"244 201 OFFCURVE",
"247 321 CURVE",
"416 321 LINE",
"416 397 LINE",
"248 397 LINE",
"248 508 LINE SMOOTH",
"248 602 OFFCURVE",
"294 636 OFFCURVE",
"353 636 CURVE SMOOTH",
"397 636 OFFCURVE",
"437 618 OFFCURVE",
"469 598 CURVE",
"499 669 LINE",
"463 690 OFFCURVE",
"416 712 OFFCURVE",
"344 712 CURVE SMOOTH",
"233 712 OFFCURVE",
"162 640 OFFCURVE",
"162 519 CURVE SMOOTH",
"162 397 LINE",
"86 397 LINE",
"86 321 LINE",
"161 321 LINE",
"159 200 OFFCURVE",
"141 149 OFFCURVE",
"87 73 CURVE",
"87 0 LINE",
"514 0 LINE"
);
}
);
width = 600;
}
);
unicode = 00A3;
},
{
color = 6;
glyphname = yen;
lastChange = "2022-01-27 14:26:41 +0000";
layers = (
{
associatedMasterId = "49B01604-4BAD-416A-BFCD-4FBC01F4BDB0";
layerId = "ED5A1C3A-03C2-44DF-8033-277772C61E36";
name = img;
width = 600;
},
{
hints = (
{
horizontal = 1;
place = "{266, 73}";
type = Stem;
},
{
horizontal = 1;
place = "{126, 73}";
type = Stem;
},
{
horizontal = 1;
place = "{709, -20}";
target = down;
type = TopGhost;
},
{
horizontal = 1;
place = "{0, 21}";
target = up;
type = BottomGhost;
},
{
place = "{254, 95}";
type = Stem;
}
);
layerId = "49B01604-4BAD-416A-BFCD-4FBC01F4BDB0";
paths = (
{
closed = 1;
nodes = (
"96 709 LINE",
"16 661 LINE",
"213 339 LINE",
"96 339 LINE",
"96 266 LINE",
"254 266 LINE",
"254 199 LINE",
"96 199 LINE",
"96 126 LINE",
"254 126 LINE",
"254 0 LINE",
"349 0 LINE",
"349 126 LINE",
"506 126 LINE",
"506 199 LINE",
"349 199 LINE",
"349 266 LINE",
"506 266 LINE",
"506 339 LINE",
"389 339 LINE",
"585 661 LINE",
"510 705 LINE",
"305 351 LINE"
);
}
);
width = 600;
}
);
unicode = 00A5;
},
{
color = 6;
glyphname = plus;
lastChange = "2022-01-27 14:26:41 +0000";
layers = (
{
hints = (
{
horizontal = 1;
place = "{304, 78}";
type = Stem;
},
{
horizontal = 1;
place = "{545, -20}";
target = down;
type = TopGhost;
},
{
horizontal = 1;
place = "{141, 21}";
target = up;
type = BottomGhost;
},
{
place = "{258, 85}";
type = Stem;
}
);
layerId = "49B01604-4BAD-416A-BFCD-4FBC01F4BDB0";
paths = (
{
closed = 1;
nodes = (
"495 304 LINE",
"495 382 LINE",
"343 382 LINE",
"343 545 LINE",
"258 545 LINE",
"258 382 LINE",
"105 382 LINE",
"105 304 LINE",
"258 304 LINE",
"258 141 LINE",
"343 141 LINE",
"343 304 LINE"
);
}
);
width = 600;
}
);
unicode = 002B;
},
{
color = 6;
glyphname = minus;
lastChange = "2022-01-27 14:26:41 +0000";
layers = (
{
layerId = "49B01604-4BAD-416A-BFCD-4FBC01F4BDB0";
paths = (
{
closed = 1;
nodes = (
"470 302 LINE",
"470 384 LINE",
"130 384 LINE",
"130 302 LINE"
);
}
);
width = 600;
}
);
unicode = 2212;
},
{
color = 6;
glyphname = multiply;
lastChange = "2022-01-27 14:26:41 +0000";
layers = (
{
associatedMasterId = "49B01604-4BAD-416A-BFCD-4FBC01F4BDB0";
layerId = "ED5A1C3A-03C2-44DF-8033-277772C61E36";
name = img;
width = 600;
},
{
hints = (
{
horizontal = 1;
place = "{156, 21}";
target = up;
type = BottomGhost;
},
{
horizontal = 1;
place = "{534, -20}";
target = down;
type = TopGhost;
}
);
layerId = "49B01604-4BAD-416A-BFCD-4FBC01F4BDB0";
paths = (
{
closed = 1;
nodes = (
"246 344 LINE",
"111 210 LINE",
"166 156 LINE",
"300 290 LINE",
"434 156 LINE",
"489 210 LINE",
"354 344 LINE",
"489 479 LINE",
"434 534 LINE",
"300 398 LINE",
"166 534 LINE",
"111 479 LINE"
);
}
);
width = 600;
}
);
unicode = 00D7;
},
{
color = 6;
glyphname = divide;
lastChange = "2022-01-27 14:26:41 +0000";
layers = (
{
associatedMasterId = "49B01604-4BAD-416A-BFCD-4FBC01F4BDB0";
layerId = "ED5A1C3A-03C2-44DF-8033-277772C61E36";
name = img;
width = 600;
},
{
hints = (
{
horizontal = 1;
place = "{71, 134}";
type = Stem;
},
{
horizontal = 1;
place = "{302, 82}";
type = Stem;
},
{
horizontal = 1;
place = "{481, 134}";
type = Stem;
},
{
place = "{234, 134}";
type = Stem;
}
);
layerId = "49B01604-4BAD-416A-BFCD-4FBC01F4BDB0";
paths = (
{
closed = 1;
nodes = (
"470 302 LINE",
"470 384 LINE",
"130 384 LINE",
"130 302 LINE"
);
},
{
closed = 1;
nodes = (
"234 512 OFFCURVE",
"265 481 OFFCURVE",
"301 481 CURVE SMOOTH",
"340 481 OFFCURVE",
"368 508 OFFCURVE",
"368 548 CURVE SMOOTH",
"368 584 OFFCURVE",
"336 615 OFFCURVE",
"301 615 CURVE SMOOTH",
"259 615 OFFCURVE",
"234 589 OFFCURVE",
"234 548 CURVE SMOOTH"
);
},
{
closed = 1;
nodes = (
"234 102 OFFCURVE",
"265 71 OFFCURVE",
"301 71 CURVE SMOOTH",
"340 71 OFFCURVE",
"368 98 OFFCURVE",
"368 138 CURVE SMOOTH",
"368 174 OFFCURVE",
"336 205 OFFCURVE",
"301 205 CURVE SMOOTH",
"259 205 OFFCURVE",
"234 179 OFFCURVE",
"234 138 CURVE SMOOTH"
);
}
);
width = 600;
}
);
unicode = 00F7;
},
{
color = 6;
glyphname = equal;
lastChange = "2022-01-27 14:26:41 +0000";
layers = (
{
hints = (
{
horizontal = 1;
place = "{213, 79}";
type = Stem;
},
{
horizontal = 1;
place = "{395, 79}";
type = Stem;
}
);
layerId = "49B01604-4BAD-416A-BFCD-4FBC01F4BDB0";
paths = (
{
closed = 1;
nodes = (
"497 395 LINE",
"497 474 LINE",
"103 474 LINE",
"103 395 LINE"
);
},
{
closed = 1;
nodes = (
"497 213 LINE",
"497 292 LINE",
"103 292 LINE",
"103 213 LINE"
);
}
);
width = 600;
}
);
unicode = 003D;
},
{
color = 6;
glyphname = greater;
lastChange = "2022-01-27 14:26:41 +0000";
layers = (
{
hints = (
{
horizontal = 1;
place = "{114, 21}";
target = up;
type = BottomGhost;
},
{
horizontal = 1;
place = "{572, -20}";
target = down;
type = TopGhost;
}
);
layerId = "49B01604-4BAD-416A-BFCD-4FBC01F4BDB0";
paths = (
{
closed = 1;
nodes = (
"123 502 LINE",
"382 343 LINE",
"123 185 LINE",
"168 114 LINE",
"487 314 LINE",
"487 371 LINE",
"167 572 LINE"
);
}
);
width = 600;
}
);
unicode = 003E;
},
{
color = 6;
glyphname = less;
lastChange = "2022-01-27 14:26:41 +0000";
layers = (
{
hints = (
{
horizontal = 1;
place = "{572, -20}";
target = down;
type = TopGhost;
},
{
horizontal = 1;
place = "{114, 21}";
target = up;
type = BottomGhost;
}
);
layerId = "49B01604-4BAD-416A-BFCD-4FBC01F4BDB0";
paths = (
{
closed = 1;
nodes = (
"218 343 LINE",
"477 502 LINE",
"433 572 LINE",
"113 371 LINE",
"113 314 LINE",
"432 114 LINE",
"477 185 LINE"
);
}
);
width = 600;
}
);
unicode = 003C;
},
{
color = 6;
glyphname = plusminus;
lastChange = "2022-01-27 14:26:41 +0000";
layers = (
{
associatedMasterId = "49B01604-4BAD-416A-BFCD-4FBC01F4BDB0";
layerId = "ED5A1C3A-03C2-44DF-8033-277772C61E36";
name = img;
width = 600;
},
{
hints = (
{
horizontal = 1;
place = "{72, 82}";
type = Stem;
},
{
horizontal = 1;
place = "{394, 78}";
type = Stem;
},
{
horizontal = 1;
place = "{608, -20}";
target = down;
type = TopGhost;
},
{
place = "{258, 85}";
type = Stem;
}
);
layerId = "49B01604-4BAD-416A-BFCD-4FBC01F4BDB0";
paths = (
{
closed = 1;
nodes = (
"470 394 LINE",
"470 472 LINE",
"343 472 LINE",
"343 608 LINE",
"258 608 LINE",
"258 472 LINE",
"130 472 LINE",
"130 394 LINE",
"258 394 LINE",
"258 259 LINE",
"343 259 LINE",
"343 394 LINE"
);
},
{
closed = 1;
nodes = (
"470 72 LINE",
"470 154 LINE",
"130 154 LINE",
"130 72 LINE"
);
}
);
width = 600;
}
);
unicode = 00B1;
},
{
color = 6;
glyphname = asciitilde;
lastChange = "2022-01-27 14:26:41 +0000";
layers = (
{
hints = (
{
horizontal = 1;
place = "{253, 80}";
type = Stem;
},
{
horizontal = 1;
place = "{311, 22}";
type = Stem;
},
{
horizontal = 1;
place = "{311, 80}";
type = Stem;
}
);
layerId = "49B01604-4BAD-416A-BFCD-4FBC01F4BDB0";
paths = (
{
closed = 1;
nodes = (
"488 388 LINE",
"461 361 OFFCURVE",
"428 333 OFFCURVE",
"381 333 CURVE SMOOTH",
"324 333 OFFCURVE",
"279 391 OFFCURVE",
"206 391 CURVE SMOOTH",
"154 391 OFFCURVE",
"104 355 OFFCURVE",
"76 327 CURVE",
"111 264 LINE",
"133 284 OFFCURVE",
"168 311 OFFCURVE",
"208 311 CURVE SMOOTH",
"267 311 OFFCURVE",
"316 253 OFFCURVE",
"385 253 CURVE SMOOTH",
"438 253 OFFCURVE",
"485 285 OFFCURVE",
"524 322 CURVE"
);
}
);
width = 600;
}
);
unicode = 007E;
},
{
color = 6;
glyphname = logicalnot;
lastChange = "2022-01-27 14:26:41 +0000";
layers = (
{
associatedMasterId = "49B01604-4BAD-416A-BFCD-4FBC01F4BDB0";
layerId = "ED5A1C3A-03C2-44DF-8033-277772C61E36";
name = img;
width = 600;
},
{
hints = (
{
horizontal = 1;
place = "{301, 82}";
type = Stem;
},
{
horizontal = 1;
place = "{120, 21}";
target = up;
type = BottomGhost;
},
{
place = "{445, 90}";
type = Stem;
}
);
layerId = "49B01604-4BAD-416A-BFCD-4FBC01F4BDB0";
paths = (
{
closed = 1;
nodes = (
"535 383 LINE",
"65 383 LINE",
"65 301 LINE",
"445 301 LINE",
"445 120 LINE",
"535 120 LINE"
);
}
);
width = 600;
}
);
unicode = 00AC;
},
{
color = 6;
glyphname = asciicircum;
lastChange = "2022-01-27 14:26:41 +0000";
layers = (
{
associatedMasterId = "49B01604-4BAD-416A-BFCD-4FBC01F4BDB0";
layerId = "ED5A1C3A-03C2-44DF-8033-277772C61E36";
name = img;
width = 600;
},
{
hints = (
{
horizontal = 1;
place = "{510, 21}";
target = up;
type = BottomGhost;
},
{
horizontal = 1;
place = "{740, -20}";
target = down;
type = TopGhost;
}
);
layerId = "49B01604-4BAD-416A-BFCD-4FBC01F4BDB0";
paths = (
{
closed = 1;
nodes = (
"301 657 LINE",
"449 510 LINE",
"506 572 LINE",
"322 740 LINE",
"280 740 LINE",
"94 572 LINE",
"150 510 LINE"
);
}
);
width = 600;
}
);
unicode = 005E;
},
{
color = 6;
glyphname = mu;
lastChange = "2022-01-27 14:26:41 +0000";
layers = (
{
associatedMasterId = "49B01604-4BAD-416A-BFCD-4FBC01F4BDB0";
layerId = "ED5A1C3A-03C2-44DF-8033-277772C61E36";
name = img;
width = 600;
},
{
hints = (
{
place = "{90, 81}";
type = Stem;
},
{
place = "{424, 86}";
type = Stem;
},
{
horizontal = 1;
place = "{-12, 80}";
type = Stem;
},
{
horizontal = 1;
place = "{-220, 21}";
target = up;
type = BottomGhost;
},
{
horizontal = 1;
place = "{0, -20}";
target = down;
type = TopGhost;
},
{
horizontal = 1;
place = "{520, -20}";
target = down;
type = TopGhost;
}
);
layerId = "49B01604-4BAD-416A-BFCD-4FBC01F4BDB0";
paths = (
{
closed = 1;
nodes = (
"90 -220 LINE",
"171 -220 LINE",
"171 29 LINE",
"191 4 OFFCURVE",
"221 -12 OFFCURVE",
"271 -12 CURVE SMOOTH",
"325 -12 OFFCURVE",
"381 14 OFFCURVE",
"427 59 CURVE",
"427 0 LINE",
"510 0 LINE",
"510 520 LINE",
"424 520 LINE",
"424 127 LINE",
"380 87 OFFCURVE",
"330 68 OFFCURVE",
"285 68 CURVE SMOOTH",
"228 68 OFFCURVE",
"176 104 OFFCURVE",
"176 189 CURVE SMOOTH",
"176 520 LINE",
"90 520 LINE"
);
}
);
width = 600;
}
);
unicode = 00B5;
},
{
color = 6;
glyphname = percent;
lastChange = "2022-01-27 14:26:41 +0000";
layers = (
{
hints = (
{
horizontal = 1;
place = "{-6, 67}";
type = Stem;
},
{
horizontal = 1;
place = "{270, 67}";
type = Stem;
},
{
horizontal = 1;
place = "{365, 66}";
type = Stem;
},
{
horizontal = 1;
place = "{641, 66}";
type = Stem;
},
{
horizontal = 1;
place = "{-40, 21}";
target = up;
type = BottomGhost;
},
{
horizontal = 1;
place = "{740, -20}";
target = down;
type = TopGhost;
},
{
place = "{38, 83}";
type = Stem;
},
{
place = "{297, 83}";
type = Stem;
},
{
place = "{520, 83}";
type = Stem;
},
{
place = "{779, 83}";
type = Stem;
}
);
layerId = "49B01604-4BAD-416A-BFCD-4FBC01F4BDB0";
paths = (
{
closed = 1;
nodes = (
"259 -40 LINE",
"696 702 LINE",
"636 740 LINE",
"199 -2 LINE"
);
},
{
closed = 1;
nodes = (
"380 628 OFFCURVE",
"319 707 OFFCURVE",
"209 707 CURVE SMOOTH",
"99 707 OFFCURVE",
"38 628 OFFCURVE",
"38 490 CURVE SMOOTH",
"38 351 OFFCURVE",
"97 270 OFFCURVE",
"208 270 CURVE SMOOTH",
"319 270 OFFCURVE",
"380 352 OFFCURVE",
"380 490 CURVE SMOOTH"
);
},
{
closed = 1;
nodes = (
"297 376 OFFCURVE",
"265 337 OFFCURVE",
"209 337 CURVE SMOOTH",
"153 337 OFFCURVE",
"121 390 OFFCURVE",
"121 490 CURVE SMOOTH",
"121 602 OFFCURVE",
"154 641 OFFCURVE",
"208 641 CURVE SMOOTH",
"265 641 OFFCURVE",
"297 589 OFFCURVE",
"297 490 CURVE SMOOTH"
);
},
{
closed = 1;
nodes = (
"862 352 OFFCURVE",
"801 431 OFFCURVE",
"691 431 CURVE SMOOTH",
"581 431 OFFCURVE",
"520 352 OFFCURVE",
"520 214 CURVE SMOOTH",
"520 75 OFFCURVE",
"579 -6 OFFCURVE",
"690 -6 CURVE SMOOTH",
"801 -6 OFFCURVE",
"862 76 OFFCURVE",
"862 214 CURVE SMOOTH"
);
},
{
closed = 1;
nodes = (
"779 100 OFFCURVE",
"747 61 OFFCURVE",
"691 61 CURVE SMOOTH",
"635 61 OFFCURVE",
"603 114 OFFCURVE",
"603 214 CURVE SMOOTH",
"603 326 OFFCURVE",
"636 365 OFFCURVE",
"690 365 CURVE SMOOTH",
"747 365 OFFCURVE",
"779 313 OFFCURVE",
"779 214 CURVE SMOOTH"
);
}
);
width = 900;
}
);
unicode = 0025;
},
{
color = 6;
glyphname = dotaccentcmb;
lastChange = "2022-01-27 14:26:41 +0000";
layers = (
{
associatedMasterId = "49B01604-4BAD-416A-BFCD-4FBC01F4BDB0";
layerId = "ED5A1C3A-03C2-44DF-8033-277772C61E36";
name = img;
width = 206;
},
{
hints = (
{
horizontal = 1;
place = "{609, 126}";
type = Stem;
},
{
place = "{40, 126}";
type = Stem;
}
);
layerId = "49B01604-4BAD-416A-BFCD-4FBC01F4BDB0";
paths = (
{
closed = 1;
nodes = (
"142 609 OFFCURVE",
"166 634 OFFCURVE",
"166 672 CURVE SMOOTH",
"166 706 OFFCURVE",
"138 735 OFFCURVE",
"103 735 CURVE SMOOTH",
"64 735 OFFCURVE",
"40 710 OFFCURVE",
"40 672 CURVE SMOOTH",
"40 638 OFFCURVE",
"68 609 OFFCURVE",
"103 609 CURVE SMOOTH"
);
}
);
width = 206;
}
);
unicode = 0307;
},
{
color = 6;
glyphname = dieresis;
lastChange = "2022-01-27 14:26:41 +0000";
layers = (
{
associatedMasterId = "49B01604-4BAD-416A-BFCD-4FBC01F4BDB0";
layerId = "ED5A1C3A-03C2-44DF-8033-277772C61E36";
name = img;
width = 402;
},
{
hints = (
{
horizontal = 1;
place = "{607, 120}";
type = Stem;
},
{
place = "{50, 120}";
type = Stem;
},
{
place = "{232, 120}";
type = Stem;
}
);
layerId = "49B01604-4BAD-416A-BFCD-4FBC01F4BDB0";
paths = (
{
closed = 1;
nodes = (
"147 607 OFFCURVE",
"170 631 OFFCURVE",
"170 667 CURVE SMOOTH",
"170 699 OFFCURVE",
"143 727 OFFCURVE",
"110 727 CURVE SMOOTH",
"73 727 OFFCURVE",
"50 703 OFFCURVE",
"50 667 CURVE SMOOTH",
"50 635 OFFCURVE",
"77 607 OFFCURVE",
"110 607 CURVE SMOOTH"
);
},
{
closed = 1;
nodes = (
"329 607 OFFCURVE",
"352 631 OFFCURVE",
"352 667 CURVE SMOOTH",
"352 699 OFFCURVE",
"325 727 OFFCURVE",
"292 727 CURVE SMOOTH",
"255 727 OFFCURVE",
"232 703 OFFCURVE",
"232 667 CURVE SMOOTH",
"232 635 OFFCURVE",
"259 607 OFFCURVE",
"292 607 CURVE SMOOTH"
);
}
);
width = 402;
}
);
unicode = 00A8;
},
{
color = 6;
glyphname = grave;
lastChange = "2022-01-27 14:26:41 +0000";
layers = (
{
associatedMasterId = "49B01604-4BAD-416A-BFCD-4FBC01F4BDB0";
layerId = "ED5A1C3A-03C2-44DF-8033-277772C61E36";
name = img;
width = 311;
},
{
hints = (
{
horizontal = 1;
place = "{761, -20}";
target = down;
type = TopGhost;
},
{
horizontal = 1;
place = "{575, 21}";
target = up;
type = BottomGhost;
}
);
layerId = "49B01604-4BAD-416A-BFCD-4FBC01F4BDB0";
paths = (
{
closed = 1;
nodes = (
"271 636 LINE",
"82 761 LINE",
"40 677 LINE",
"240 575 LINE"
);
}
);
width = 311;
}
);
unicode = 0060;
},
{
color = 6;
glyphname = acute;
lastChange = "2022-01-27 14:26:41 +0000";
layers = (
{
associatedMasterId = "49B01604-4BAD-416A-BFCD-4FBC01F4BDB0";
layerId = "ED5A1C3A-03C2-44DF-8033-277772C61E36";
name = img;
width = 311;
},
{
hints = (
{
horizontal = 1;
place = "{575, 21}";
target = up;
type = BottomGhost;
},
{
horizontal = 1;
place = "{761, -20}";
target = down;
type = TopGhost;
}
);
layerId = "49B01604-4BAD-416A-BFCD-4FBC01F4BDB0";
paths = (
{
closed = 1;
nodes = (
"71 575 LINE",
"271 677 LINE",
"229 761 LINE",
"40 636 LINE"
);
}
);
width = 311;
}
);
unicode = 00B4;
},
{
color = 6;
glyphname = circumflex;
lastChange = "2022-01-27 14:26:41 +0000";
layers = (
{
associatedMasterId = "49B01604-4BAD-416A-BFCD-4FBC01F4BDB0";
layerId = "ED5A1C3A-03C2-44DF-8033-277772C61E36";
name = img;
width = 456;
},
{
hints = (
{
horizontal = 1;
place = "{572, 21}";
target = up;
type = BottomGhost;
},
{
horizontal = 1;
place = "{740, -20}";
target = down;
type = TopGhost;
}
);
layerId = "49B01604-4BAD-416A-BFCD-4FBC01F4BDB0";
paths = (
{
closed = 1;
nodes = (
"228 677 LINE",
"359 572 LINE",
"406 646 LINE",
"260 740 LINE",
"196 740 LINE",
"50 646 LINE",
"97 572 LINE"
);
}
);
width = 456;
}
);
unicode = 02C6;
},
{
color = 6;
glyphname = caron;
lastChange = "2022-01-27 14:26:41 +0000";
layers = (
{
associatedMasterId = "49B01604-4BAD-416A-BFCD-4FBC01F4BDB0";
layerId = "ED5A1C3A-03C2-44DF-8033-277772C61E36";
name = img;
width = 457;
},
{
hints = (
{
horizontal = 1;
place = "{755, -20}";
target = down;
type = TopGhost;
},
{
horizontal = 1;
place = "{587, 21}";
target = up;
type = BottomGhost;
}
);
layerId = "49B01604-4BAD-416A-BFCD-4FBC01F4BDB0";
paths = (
{
closed = 1;
nodes = (
"97 755 LINE",
"50 681 LINE",
"196 587 LINE",
"260 587 LINE",
"406 681 LINE",
"359 755 LINE",
"228 650 LINE"
);
}
);
width = 457;
}
);
unicode = 02C7;
},
{
color = 6;
glyphname = ring;
lastChange = "2022-01-27 14:26:41 +0000";
layers = (
{
associatedMasterId = "49B01604-4BAD-416A-BFCD-4FBC01F4BDB0";
layerId = "ED5A1C3A-03C2-44DF-8033-277772C61E36";
name = img;
width = 350;
},
{
hints = (
{
horizontal = 1;
place = "{582, 62}";
type = Stem;
},
{
horizontal = 1;
place = "{760, 62}";
type = Stem;
},
{
place = "{50, 77}";
type = Stem;
},
{
place = "{223, 77}";
type = Stem;
}
);
layerId = "49B01604-4BAD-416A-BFCD-4FBC01F4BDB0";
paths = (
{
closed = 1;
nodes = (
"127 741 OFFCURVE",
"146 760 OFFCURVE",
"175 760 CURVE SMOOTH",
"205 760 OFFCURVE",
"223 733 OFFCURVE",
"223 702 CURVE SMOOTH",
"223 666 OFFCURVE",
"203 644 OFFCURVE",
"175 644 CURVE SMOOTH",
"146 644 OFFCURVE",
"127 670 OFFCURVE",
"127 702 CURVE SMOOTH"
);
},
{
closed = 1;
nodes = (
"50 632 OFFCURVE",
"106 582 OFFCURVE",
"175 582 CURVE SMOOTH",
"243 582 OFFCURVE",
"300 632 OFFCURVE",
"300 702 CURVE SMOOTH",
"300 772 OFFCURVE",
"243 822 OFFCURVE",
"175 822 CURVE SMOOTH",
"106 822 OFFCURVE",
"50 772 OFFCURVE",
"50 702 CURVE SMOOTH"
);
}
);
width = 350;
}
);
unicode = 02DA;
},
{
color = 6;
glyphname = tilde;
lastChange = "2022-01-27 14:26:41 +0000";
layers = (
{
associatedMasterId = "49B01604-4BAD-416A-BFCD-4FBC01F4BDB0";
layerId = "ED5A1C3A-03C2-44DF-8033-277772C61E36";
name = img;
width = 423;
},
{
hints = (
{
horizontal = 1;
place = "{610, 78}";
type = Stem;
},
{
horizontal = 1;
place = "{644, 44}";
type = Stem;
},
{
horizontal = 1;
place = "{644, 78}";
type = Stem;
},
{
horizontal = 1;
place = "{608, 21}";
target = up;
type = BottomGhost;
}
);
layerId = "49B01604-4BAD-416A-BFCD-4FBC01F4BDB0";
paths = (
{
closed = 1;
nodes = (
"338 719 LINE",
"321 703 OFFCURVE",
"298 688 OFFCURVE",
"269 688 CURVE SMOOTH",
"227 688 OFFCURVE",
"204 722 OFFCURVE",
"154 722 CURVE SMOOTH",
"114 722 OFFCURVE",
"74 696 OFFCURVE",
"50 670 CURVE",
"85 608 LINE",
"105 627 OFFCURVE",
"129 644 OFFCURVE",
"158 644 CURVE SMOOTH",
"203 644 OFFCURVE",
"225 610 OFFCURVE",
"277 610 CURVE SMOOTH",
"318 610 OFFCURVE",
"349 633 OFFCURVE",
"373 656 CURVE"
);
}
);
width = 423;
}
);
unicode = 02DC;
},
{
color = 6;
glyphname = macron;
lastChange = "2022-01-27 14:26:41 +0000";
layers = (
{
associatedMasterId = "49B01604-4BAD-416A-BFCD-4FBC01F4BDB0";
layerId = "ED5A1C3A-03C2-44DF-8033-277772C61E36";
name = img;
width = 410;
},
{
hints = (
{
horizontal = 1;
place = "{627, 73}";
type = Stem;
}
);
layerId = "49B01604-4BAD-416A-BFCD-4FBC01F4BDB0";
paths = (
{
closed = 1;
nodes = (
"350 627 LINE",
"350 700 LINE",
"60 700 LINE",
"60 627 LINE"
);
}
);
width = 410;
}
);
unicode = 00AF;
},
{
color = 6;
glyphname = cedilla;
lastChange = "2022-01-27 14:26:41 +0000";
layers = (
{
hints = (
{
place = "{186, 81}";
type = Stem;
},
{
horizontal = 1;
place = "{-244, 66}";
type = Stem;
},
{
horizontal = 1;
place = "{-95, 36}";
type = Stem;
},
{
horizontal = 1;
place = "{-95, 95}";
type = Stem;
}
);
layerId = "49B01604-4BAD-416A-BFCD-4FBC01F4BDB0";
paths = (
{
closed = 1;
nodes = (
"267 -89 OFFCURVE",
"222 -59 OFFCURVE",
"155 -59 CURVE",
"176 0 LINE",
"108 0 LINE",
"73 -95 LINE",
"161 -95 OFFCURVE",
"186 -117 OFFCURVE",
"186 -141 CURVE SMOOTH",
"186 -166 OFFCURVE",
"160 -178 OFFCURVE",
"126 -178 CURVE SMOOTH",
"101 -178 OFFCURVE",
"77 -173 OFFCURVE",
"54 -161 CURVE",
"30 -224 LINE",
"60 -238 OFFCURVE",
"94 -244 OFFCURVE",
"130 -244 CURVE SMOOTH",
"222 -244 OFFCURVE",
"267 -198 OFFCURVE",
"267 -148 CURVE SMOOTH"
);
}
);
width = 297;
}
);
unicode = 00B8;
},
{
color = 6;
glyphname = dotaccentcmb.case;
lastChange = "2022-01-27 14:27:50 +0000";
layers = (
{
hints = (
{
horizontal = 1;
place = "{574, 126}";
type = Stem;
},
{
place = "{40, 126}";
type = Stem;
}
);
layerId = "49B01604-4BAD-416A-BFCD-4FBC01F4BDB0";
paths = (
{
closed = 1;
nodes = (
"142 574 OFFCURVE",
"166 599 OFFCURVE",
"166 637 CURVE SMOOTH",
"166 671 OFFCURVE",
"138 700 OFFCURVE",
"103 700 CURVE SMOOTH",
"64 700 OFFCURVE",
"40 675 OFFCURVE",
"40 637 CURVE SMOOTH",
"40 603 OFFCURVE",
"68 574 OFFCURVE",
"103 574 CURVE SMOOTH"
);
}
);
width = 206;
}
);
},
{
color = 6;
glyphname = dieresis.case;
lastChange = "2022-01-27 14:27:50 +0000";
layers = (
{
hints = (
{
horizontal = 1;
place = "{577, 120}";
type = Stem;
},
{
place = "{50, 120}";
type = Stem;
},
{
place = "{232, 120}";
type = Stem;
}
);
layerId = "49B01604-4BAD-416A-BFCD-4FBC01F4BDB0";
paths = (
{
closed = 1;
nodes = (
"147 577 OFFCURVE",
"170 601 OFFCURVE",
"170 637 CURVE SMOOTH",
"170 669 OFFCURVE",
"143 697 OFFCURVE",
"110 697 CURVE SMOOTH",
"73 697 OFFCURVE",
"50 673 OFFCURVE",
"50 637 CURVE SMOOTH",
"50 605 OFFCURVE",
"77 577 OFFCURVE",
"110 577 CURVE SMOOTH"
);
},
{
closed = 1;
nodes = (
"329 577 OFFCURVE",
"352 601 OFFCURVE",
"352 637 CURVE SMOOTH",
"352 669 OFFCURVE",
"325 697 OFFCURVE",
"292 697 CURVE SMOOTH",
"255 697 OFFCURVE",
"232 673 OFFCURVE",
"232 637 CURVE SMOOTH",
"232 605 OFFCURVE",
"259 577 OFFCURVE",
"292 577 CURVE SMOOTH"
);
}
);
width = 402;
}
);
},
{
color = 6;
glyphname = grave.case;
lastChange = "2022-01-27 14:27:50 +0000";
layers = (
{
hints = (
{
horizontal = 1;
place = "{740, -20}";
target = down;
type = TopGhost;
},
{
horizontal = 1;
place = "{554, 21}";
target = up;
type = BottomGhost;
}
);
layerId = "49B01604-4BAD-416A-BFCD-4FBC01F4BDB0";
paths = (
{
closed = 1;
nodes = (
"271 615 LINE",
"82 740 LINE",
"40 656 LINE",
"240 554 LINE"
);
}
);
width = 311;
}
);
},
{
color = 6;
glyphname = acute.case;
lastChange = "2022-01-27 14:27:50 +0000";
layers = (
{
hints = (
{
horizontal = 1;
place = "{554, 21}";
target = up;
type = BottomGhost;
},
{
horizontal = 1;
place = "{740, -20}";
target = down;
type = TopGhost;
}
);
layerId = "49B01604-4BAD-416A-BFCD-4FBC01F4BDB0";
paths = (
{
closed = 1;
nodes = (
"71 554 LINE",
"271 656 LINE",
"229 740 LINE",
"40 615 LINE"
);
}
);
width = 311;
}
);
},
{
color = 6;
glyphname = circumflex.case;
lastChange = "2022-01-27 14:27:50 +0000";
layers = (
{
hints = (
{
horizontal = 1;
place = "{572, 21}";
target = up;
type = BottomGhost;
},
{
horizontal = 1;
place = "{730, -20}";
target = down;
type = TopGhost;
}
);
layerId = "49B01604-4BAD-416A-BFCD-4FBC01F4BDB0";
paths = (
{
closed = 1;
nodes = (
"229 667 LINE",
"364 572 LINE",
"407 650 LINE",
"261 730 LINE",
"197 730 LINE",
"50 650 LINE",
"93 572 LINE"
);
}
);
width = 457;
}
);
},
{
color = 6;
glyphname = caron.case;
lastChange = "2022-01-27 14:27:50 +0000";
layers = (
{
hints = (
{
horizontal = 1;
place = "{727, -20}";
target = down;
type = TopGhost;
},
{
horizontal = 1;
place = "{569, 21}";
target = up;
type = BottomGhost;
}
);
layerId = "49B01604-4BAD-416A-BFCD-4FBC01F4BDB0";
paths = (
{
closed = 1;
nodes = (
"229 632 LINE",
"93 727 LINE",
"50 649 LINE",
"197 569 LINE",
"261 569 LINE",
"407 649 LINE",
"364 727 LINE"
);
}
);
width = 457;
}
);
},
{
color = 6;
glyphname = ring.case;
lastChange = "2022-01-27 14:27:50 +0000";
layers = (
{
hints = (
{
horizontal = 1;
place = "{512, 62}";
type = Stem;
},
{
horizontal = 1;
place = "{690, 62}";
type = Stem;
},
{
place = "{50, 77}";
type = Stem;
},
{
place = "{223, 77}";
type = Stem;
}
);
layerId = "49B01604-4BAD-416A-BFCD-4FBC01F4BDB0";
paths = (
{
closed = 1;
nodes = (
"127 671 OFFCURVE",
"146 690 OFFCURVE",
"175 690 CURVE SMOOTH",
"205 690 OFFCURVE",
"223 663 OFFCURVE",
"223 632 CURVE SMOOTH",
"223 596 OFFCURVE",
"203 574 OFFCURVE",
"175 574 CURVE SMOOTH",
"146 574 OFFCURVE",
"127 600 OFFCURVE",
"127 632 CURVE SMOOTH"
);
},
{
closed = 1;
nodes = (
"50 562 OFFCURVE",
"106 512 OFFCURVE",
"175 512 CURVE SMOOTH",
"243 512 OFFCURVE",
"300 562 OFFCURVE",
"300 632 CURVE SMOOTH",
"300 702 OFFCURVE",
"243 752 OFFCURVE",
"175 752 CURVE SMOOTH",
"106 752 OFFCURVE",
"50 702 OFFCURVE",
"50 632 CURVE SMOOTH"
);
}
);
width = 350;
}
);
},
{
color = 6;
glyphname = tilde.case;
lastChange = "2022-01-27 14:27:50 +0000";
layers = (
{
hints = (
{
horizontal = 1;
place = "{580, 78}";
type = Stem;
},
{
horizontal = 1;
place = "{614, 44}";
type = Stem;
},
{
horizontal = 1;
place = "{614, 78}";
type = Stem;
},
{
horizontal = 1;
place = "{578, 21}";
target = up;
type = BottomGhost;
}
);
layerId = "49B01604-4BAD-416A-BFCD-4FBC01F4BDB0";
paths = (
{
closed = 1;
nodes = (
"338 689 LINE",
"321 673 OFFCURVE",
"298 658 OFFCURVE",
"269 658 CURVE SMOOTH",
"227 658 OFFCURVE",
"204 692 OFFCURVE",
"154 692 CURVE SMOOTH",
"114 692 OFFCURVE",
"74 666 OFFCURVE",
"50 640 CURVE",
"85 578 LINE",
"105 597 OFFCURVE",
"129 614 OFFCURVE",
"158 614 CURVE SMOOTH",
"203 614 OFFCURVE",
"225 580 OFFCURVE",
"277 580 CURVE SMOOTH",
"318 580 OFFCURVE",
"349 603 OFFCURVE",
"373 626 CURVE"
);
}
);
width = 423;
}
);
},
{
color = 6;
glyphname = commaaccent;
lastChange = "2022-01-27 14:26:41 +0000";
layers = (
{
hints = (
{
horizontal = 1;
place = "{-50, -20}";
target = down;
type = TopGhost;
},
{
horizontal = 1;
place = "{-262, 21}";
target = up;
type = BottomGhost;
}
);
layerId = "49B01604-4BAD-416A-BFCD-4FBC01F4BDB0";
paths = (
{
closed = 1;
nodes = (
"127 -50 LINE",
"112 -125 OFFCURVE",
"85 -181 OFFCURVE",
"40 -238 CURVE",
"82 -262 LINE",
"146 -222 OFFCURVE",
"190 -158 OFFCURVE",
"202 -71 CURVE"
);
}
);
width = 242;
}
);
unicode = F6C3;
},
{
color = 6;
glyphname = foundryicon;
lastChange = "2022-01-27 14:26:41 +0000";
layers = (
{
associatedMasterId = "49B01604-4BAD-416A-BFCD-4FBC01F4BDB0";
layerId = "C2829296-9E88-41ED-8D84-E252F144005A";
name = public.background;
paths = (
{
closed = 1;
nodes = (
"432 0 LINE",
"432 288 LINE",
"144 288 LINE",
"144 0 LINE"
);
},
{
closed = 1;
nodes = (
"720 0 LINE",
"720 288 LINE",
"432 288 LINE",
"432 0 LINE"
);
},
{
closed = 1;
nodes = (
"432 288 LINE",
"432 576 LINE",
"144 576 LINE",
"144 288 LINE"
);
},
{
closed = 1;
nodes = (
"720 432 LINE",
"720 576 LINE",
"576 576 LINE",
"576 432 LINE"
);
}
